  0
SECTION
  2
HEADER
  9
$ACADVER
  1
AC1024
  9
$ACADMAINTVER
 70
6
  9
$DWGCODEPAGE
  3
ANSI_1252
  9
$LASTSAVEDBY
  1
ezdxf
  9
$INSBASE
 10
0.0
 20
0.0
 30
0.0
  9
$EXTMIN
 10
1e+20
 20
1e+20
 30
1e+20
  9
$EXTMAX
 10
-1e+20
 20
-1e+20
 30
-1e+20
  9
$LIMMIN
 10
0.0
 20
0.0
  9
$LIMMAX
 10
420.0
 20
297.0
  9
$ORTHOMODE
 70
0
  9
$REGENMODE
 70
1
  9
$FILLMODE
 70
1
  9
$QTEXTMODE
 70
0
  9
$MIRRTEXT
 70
1
  9
$LTSCALE
 40
1.0
  9
$ATTMODE
 70
1
  9
$TEXTSIZE
 40
2.5
  9
$TRACEWID
 40
1.0
  9
$TEXTSTYLE
  7
Standard
  9
$CLAYER
  8
0
  9
$CELTYPE
  6
ByLayer
  9
$CECOLOR
 62
256
  9
$CELTSCALE
 40
1.0
  9
$DISPSILH
 70
0
  9
$DIMSCALE
 40
1.0
  9
$DIMASZ
 40
2.5
  9
$DIMEXO
 40
0.625
  9
$DIMDLI
 40
3.75
  9
$DIMRND
 40
0.0
  9
$DIMDLE
 40
0.0
  9
$DIMEXE
 40
1.25
  9
$DIMTP
 40
0.0
  9
$DIMTM
 40
0.0
  9
$DIMTXT
 40
2.5
  9
$DIMCEN
 40
2.5
  9
$DIMTSZ
 40
0.0
  9
$DIMTOL
 70
0
  9
$DIMLIM
 70
0
  9
$DIMTIH
 70
0
  9
$DIMTOH
 70
0
  9
$DIMSE1
 70
0
  9
$DIMSE2
 70
0
  9
$DIMTAD
 70
1
  9
$DIMZIN
 70
8
  9
$DIMBLK
  1

  9
$DIMASO
 70
1
  9
$DIMSHO
 70
1
  9
$DIMPOST
  1

  9
$DIMAPOST
  1

  9
$DIMALT
 70
0
  9
$DIMALTD
 70
3
  9
$DIMALTF
 40
0.03937007874
  9
$DIMLFAC
 40
1.0
  9
$DIMTOFL
 70
1
  9
$DIMTVP
 40
0.0
  9
$DIMTIX
 70
0
  9
$DIMSOXD
 70
0
  9
$DIMSAH
 70
0
  9
$DIMBLK1
  1

  9
$DIMBLK2
  1

  9
$DIMSTYLE
  2
ISO-25
  9
$DIMCLRD
 70
0
  9
$DIMCLRE
 70
0
  9
$DIMCLRT
 70
0
  9
$DIMTFAC
 40
1.0
  9
$DIMGAP
 40
0.625
  9
$DIMJUST
 70
0
  9
$DIMSD1
 70
0
  9
$DIMSD2
 70
0
  9
$DIMTOLJ
 70
0
  9
$DIMTZIN
 70
8
  9
$DIMALTZ
 70
0
  9
$DIMALTTZ
 70
0
  9
$DIMUPT
 70
0
  9
$DIMDEC
 70
2
  9
$DIMTDEC
 70
2
  9
$DIMALTU
 70
2
  9
$DIMALTTD
 70
3
  9
$DIMTXSTY
  7
Standard
  9
$DIMAUNIT
 70
0
  9
$DIMADEC
 70
0
  9
$DIMALTRND
 40
0.0
  9
$DIMAZIN
 70
0
  9
$DIMDSEP
 70
44
  9
$DIMATFIT
 70
3
  9
$DIMFRAC
 70
0
  9
$DIMLDRBLK
  1

  9
$DIMLUNIT
 70
2
  9
$DIMLWD
 70
-2
  9
$DIMLWE
 70
-2
  9
$DIMTMOVE
 70
0
  9
$DIMFXL
 40
1.0
  9
$DIMFXLON
 70
0
  9
$DIMJOGANG
 40
0.785398163397
  9
$DIMTFILL
 70
0
  9
$DIMTFILLCLR
 70
0
  9
$DIMARCSYM
 70
0
  9
$DIMLTYPE
  6

  9
$DIMLTEX1
  6

  9
$DIMLTEX2
  6

  9
$DIMTXTDIRECTION
 70
0
  9
$LUNITS
 70
2
  9
$LUPREC
 70
4
  9
$SKETCHINC
 40
1.0
  9
$FILLETRAD
 40
10.0
  9
$AUNITS
 70
0
  9
$AUPREC
 70
2
  9
$MENU
  1
.
  9
$ELEVATION
 40
0.0
  9
$PELEVATION
 40
0.0
  9
$THICKNESS
 40
0.0
  9
$LIMCHECK
 70
0
  9
$CHAMFERA
 40
0.0
  9
$CHAMFERB
 40
0.0
  9
$CHAMFERC
 40
0.0
  9
$CHAMFERD
 40
0.0
  9
$SKPOLY
 70
0
  9
$TDCREATE
 40
2461259.557349537
  9
$TDUCREATE
 40
2458532.153996898
  9
$TDUPDATE
 40
2461259.557349537
  9
$TDUUPDATE
 40
2458532.1544311
  9
$TDINDWG
 40
0.0
  9
$TDUSRTIMER
 40
0.0
  9
$USRTIMER
 70
1
  9
$ANGBASE
 50
0.0
  9
$ANGDIR
 70
0
  9
$PDMODE
 70
0
  9
$PDSIZE
 40
0.0
  9
$PLINEWID
 40
0.0
  9
$SPLFRAME
 70
0
  9
$SPLINETYPE
 70
6
  9
$SPLINESEGS
 70
8
  9
$HANDSEED
  5
E7
  9
$SURFTAB1
 70
6
  9
$SURFTAB2
 70
6
  9
$SURFTYPE
 70
6
  9
$SURFU
 70
6
  9
$SURFV
 70
6
  9
$UCSBASE
  2

  9
$UCSNAME
  2

  9
$UCSORG
 10
0.0
 20
0.0
 30
0.0
  9
$UCSXDIR
 10
1.0
 20
0.0
 30
0.0
  9
$UCSYDIR
 10
0.0
 20
1.0
 30
0.0
  9
$UCSORTHOREF
  2

  9
$UCSORTHOVIEW
 70
0
  9
$UCSORGTOP
 10
0.0
 20
0.0
 30
0.0
  9
$UCSORGBOTTOM
 10
0.0
 20
0.0
 30
0.0
  9
$UCSORGLEFT
 10
0.0
 20
0.0
 30
0.0
  9
$UCSORGRIGHT
 10
0.0
 20
0.0
 30
0.0
  9
$UCSORGFRONT
 10
0.0
 20
0.0
 30
0.0
  9
$UCSORGBACK
 10
0.0
 20
0.0
 30
0.0
  9
$PUCSBASE
  2

  9
$PUCSNAME
  2

  9
$PUCSORG
 10
0.0
 20
0.0
 30
0.0
  9
$PUCSXDIR
 10
1.0
 20
0.0
 30
0.0
  9
$PUCSYDIR
 10
0.0
 20
1.0
 30
0.0
  9
$PUCSORTHOREF
  2

  9
$PUCSORTHOVIEW
 70
0
  9
$PUCSORGTOP
 10
0.0
 20
0.0
 30
0.0
  9
$PUCSORGBOTTOM
 10
0.0
 20
0.0
 30
0.0
  9
$PUCSORGLEFT
 10
0.0
 20
0.0
 30
0.0
  9
$PUCSORGRIGHT
 10
0.0
 20
0.0
 30
0.0
  9
$PUCSORGFRONT
 10
0.0
 20
0.0
 30
0.0
  9
$PUCSORGBACK
 10
0.0
 20
0.0
 30
0.0
  9
$USERI1
 70
0
  9
$USERI2
 70
0
  9
$USERI3
 70
0
  9
$USERI4
 70
0
  9
$USERI5
 70
0
  9
$USERR1
 40
0.0
  9
$USERR2
 40
0.0
  9
$USERR3
 40
0.0
  9
$USERR4
 40
0.0
  9
$USERR5
 40
0.0
  9
$WORLDVIEW
 70
1
  9
$SHADEDGE
 70
3
  9
$SHADEDIF
 70
70
  9
$TILEMODE
 70
1
  9
$MAXACTVP
 70
64
  9
$PINSBASE
 10
0.0
 20
0.0
 30
0.0
  9
$PLIMCHECK
 70
0
  9
$PEXTMIN
 10
1e+20
 20
1e+20
 30
1e+20
  9
$PEXTMAX
 10
-1e+20
 20
-1e+20
 30
-1e+20
  9
$PLIMMIN
 10
0.0
 20
0.0
  9
$PLIMMAX
 10
420.0
 20
297.0
  9
$UNITMODE
 70
0
  9
$VISRETAIN
 70
1
  9
$PLINEGEN
 70
0
  9
$PSLTSCALE
 70
1
  9
$TREEDEPTH
 70
3020
  9
$CMLSTYLE
  2
Standard
  9
$CMLJUST
 70
0
  9
$CMLSCALE
 40
20.0
  9
$PROXYGRAPHICS
 70
1
  9
$MEASUREMENT
 70
0
  9
$CELWEIGHT
370
-1
  9
$ENDCAPS
280
0
  9
$JOINSTYLE
280
0
  9
$LWDISPLAY
290
0
  9
$INSUNITS
 70
2
  9
$HYPERLINKBASE
  1

  9
$STYLESHEET
  1

  9
$XEDIT
290
1
  9
$CEPSNTYPE
380
0
  9
$PSTYLEMODE
290
1
  9
$FINGERPRINTGUID
  2
{989F82ED-C4CA-4EE9-8ACE-5535640DF794}
  9
$VERSIONGUID
  2
{8BC2C56D-41ED-4DAE-A2E3-0D97E15CC7B7}
  9
$EXTNAMES
290
1
  9
$PSVPSCALE
 40
0.0
  9
$OLESTARTUP
290
0
  9
$SORTENTS
280
127
  9
$INDEXCTL
280
0
  9
$HIDETEXT
280
1
  9
$XCLIPFRAME
280
1
  9
$HALOGAP
280
0
  9
$OBSCOLOR
 70
257
  9
$OBSLTYPE
280
0
  9
$INTERSECTIONDISPLAY
280
0
  9
$INTERSECTIONCOLOR
 70
257
  9
$DIMASSOC
280
2
  9
$PROJECTNAME
  1

  9
$CAMERADISPLAY
290
0
  9
$LENSLENGTH
 40
50.0
  9
$CAMERAHEIGHT
 40
0.0
  9
$STEPSPERSEC
 40
24.0
  9
$STEPSIZE
 40
100.0
  9
$3DDWFPREC
 40
2.0
  9
$PSOLWIDTH
 40
0.005
  9
$PSOLHEIGHT
 40
0.08
  9
$LOFTANG1
 40
1.570796326795
  9
$LOFTANG2
 40
1.570796326795
  9
$LOFTMAG1
 40
0.0
  9
$LOFTMAG2
 40
0.0
  9
$LOFTPARAM
 70
7
  9
$LOFTNORMALS
280
1
  9
$LATITUDE
 40
37.795
  9
$LONGITUDE
 40
-122.394
  9
$NORTHDIRECTION
 40
0.0
  9
$TIMEZONE
 70
-8000
  9
$LIGHTGLYPHDISPLAY
280
1
  9
$TILEMODELIGHTSYNCH
280
1
  9
$CMATERIAL
347
20
  9
$SOLIDHIST
280
0
  9
$SHOWHIST
280
1
  9
$DWFFRAME
280
2
  9
$DGNFRAME
280
2
  9
$REALWORLDSCALE
290
1
  9
$INTERFERECOLOR
 62
256
  9
$CSHADOW
280
0
  9
$SHADOWPLANELOCATION
 40
0.0
  0
ENDSEC
  0
SECTION
  2
CLASSES
  0
CLASS
  1
ACDBDICTIONARYWDFLT
  2
AcDbDictionaryWithDefault
  3
ObjectDBX Classes
 90
0
 91
0
280
0
281
0
  0
CLASS
  1
SUN
  2
AcDbSun
  3
SCENEOE
 90
1153
 91
0
280
0
281
0
  0
CLASS
  1
VISUALSTYLE
  2
AcDbVisualStyle
  3
ObjectDBX Classes
 90
4095
 91
0
280
0
281
0
  0
CLASS
  1
MATERIAL
  2
AcDbMaterial
  3
ObjectDBX Classes
 90
1153
 91
0
280
0
281
0
  0
CLASS
  1
SCALE
  2
AcDbScale
  3
ObjectDBX Classes
 90
1153
 91
0
280
0
281
0
  0
CLASS
  1
TABLESTYLE
  2
AcDbTableStyle
  3
ObjectDBX Classes
 90
4095
 91
0
280
0
281
0
  0
CLASS
  1
MLEADERSTYLE
  2
AcDbMLeaderStyle
  3
ACDB_MLEADERSTYLE_CLASS
 90
4095
 91
0
280
0
281
0
  0
CLASS
  1
DICTIONARYVAR
  2
AcDbDictionaryVar
  3
ObjectDBX Classes
 90
0
 91
0
280
0
281
0
  0
CLASS
  1
CELLSTYLEMAP
  2
AcDbCellStyleMap
  3
ObjectDBX Classes
 90
1152
 91
0
280
0
281
0
  0
CLASS
  1
MENTALRAYRENDERSETTINGS
  2
AcDbMentalRayRenderSettings
  3
SCENEOE
 90
1024
 91
0
280
0
281
0
  0
CLASS
  1
ACDBDETAILVIEWSTYLE
  2
AcDbDetailViewStyle
  3
ObjectDBX Classes
 90
1025
 91
0
280
0
281
0
  0
CLASS
  1
ACDBSECTIONVIEWSTYLE
  2
AcDbSectionViewStyle
  3
ObjectDBX Classes
 90
1025
 91
0
280
0
281
0
  0
CLASS
  1
RASTERVARIABLES
  2
AcDbRasterVariables
  3
ISM
 90
0
 91
0
280
0
281
0
  0
CLASS
  1
ACDBPLACEHOLDER
  2
AcDbPlaceHolder
  3
ObjectDBX Classes
 90
0
 91
0
280
0
281
0
  0
CLASS
  1
LAYOUT
  2
AcDbLayout
  3
ObjectDBX Classes
 90
0
 91
0
280
0
281
0
  0
ENDSEC
  0
SECTION
  2
TABLES
  0
TABLE
  2
VPORT
  5
8
330
0
100
AcDbSymbolTable
 70
1
  0
VPORT
  5
23
330
8
100
AcDbSymbolTableRecord
100
AcDbViewportTableRecord
  2
*Active
 70
0
 10
0.0
 20
0.0
 11
1.0
 21
1.0
 12
0.0
 22
0.0
 13
0.0
 23
0.0
 14
0.5
 24
0.5
 15
0.5
 25
0.5
 16
0.0
 26
0.0
 36
1.0
 17
0.0
 27
0.0
 37
0.0
 40
1000.0
 41
1.34
 42
50.0
 43
0.0
 44
0.0
 50
0.0
 51
0.0
 71
0
 72
1000
 73
1
 74
3
 75
0
 76
0
 77
0
 78
0
281
0
 65
0
146
0.0
  0
ENDTAB
  0
TABLE
  2
LTYPE
  5
2
330
0
100
AcDbSymbolTable
 70
3
  0
LTYPE
  5
24
330
2
100
AcDbSymbolTableRecord
100
AcDbLinetypeTableRecord
  2
ByBlock
 70
0
  3

 72
65
 73
0
 40
0.0
  0
LTYPE
  5
25
330
2
100
AcDbSymbolTableRecord
100
AcDbLinetypeTableRecord
  2
ByLayer
 70
0
  3

 72
65
 73
0
 40
0.0
  0
LTYPE
  5
26
330
2
100
AcDbSymbolTableRecord
100
AcDbLinetypeTableRecord
  2
Continuous
 70
0
  3

 72
65
 73
0
 40
0.0
  0
ENDTAB
  0
TABLE
  2
LAYER
  5
1
330
0
100
AcDbSymbolTable
 70
6
  0
LAYER
  5
27
330
1
100
AcDbSymbolTableRecord
100
AcDbLayerTableRecord
  2
0
 70
0
 62
7
  6
Continuous
370
-3
390
13
347
21
  0
LAYER
  5
28
330
1
100
AcDbSymbolTableRecord
100
AcDbLayerTableRecord
  2
Defpoints
 70
0
 62
7
  6
Continuous
290
0
370
-3
390
13
347
21
  0
LAYER
  5
2F
330
1
100
AcDbSymbolTableRecord
100
AcDbLayerTableRecord
  2
SILT_FENCE
 70
0
 62
3
  6
Continuous
370
-3
390
13
347
21
  0
LAYER
  5
30
330
1
100
AcDbSymbolTableRecord
100
AcDbLayerTableRecord
  2
SILT_FENCE_POINTS
 70
0
 62
2
  6
Continuous
370
-3
390
13
347
21
  0
LAYER
  5
31
330
1
100
AcDbSymbolTableRecord
100
AcDbLayerTableRecord
  2
SILT_FENCE_ENDS
 70
0
 62
1
  6
Continuous
370
-3
390
13
347
21
  0
LAYER
  5
32
330
1
100
AcDbSymbolTableRecord
100
AcDbLayerTableRecord
  2
SILT_FENCE_LABELS
 70
0
 62
7
  6
Continuous
370
-3
390
13
347
21
  0
ENDTAB
  0
TABLE
  2
STYLE
  5
5
330
0
100
AcDbSymbolTable
 70
1
  0
STYLE
  5
29
330
5
100
AcDbSymbolTableRecord
100
AcDbTextStyleTableRecord
  2
Standard
 70
0
 40
0.0
 41
1.0
 50
0.0
 71
0
 42
2.5
  3
txt
  4

  0
ENDTAB
  0
TABLE
  2
VIEW
  5
7
330
0
100
AcDbSymbolTable
 70
0
  0
ENDTAB
  0
TABLE
  2
UCS
  5
6
330
0
100
AcDbSymbolTable
 70
0
  0
ENDTAB
  0
TABLE
  2
APPID
  5
3
330
0
100
AcDbSymbolTable
 70
3
  0
APPID
  5
2A
330
3
100
AcDbSymbolTableRecord
100
AcDbRegAppTableRecord
  2
ACAD
 70
0
  0
APPID
  5
E4
330
3
100
AcDbSymbolTableRecord
100
AcDbRegAppTableRecord
  2
HATCHBACKGROUNDCOLOR
 70
0
  0
APPID
  5
E5
330
3
100
AcDbSymbolTableRecord
100
AcDbRegAppTableRecord
  2
EZDXF
 70
0
  0
ENDTAB
  0
TABLE
  2
DIMSTYLE
  5
4
330
0
100
AcDbSymbolTable
 70
1
100
AcDbDimStyleTable
  0
DIMSTYLE
105
2B
330
4
100
AcDbSymbolTableRecord
100
AcDbDimStyleTableRecord
  2
Standard
 70
0
 40
1.0
 41
2.5
 42
0.625
 43
3.75
 44
1.25
 45
0.0
 46
0.0
 47
0.0
 48
0.0
 49
2.5
140
2.5
141
2.5
142
0.0
143
0.03937007874
144
1.0
145
0.0
146
1.0
147
0.625
148
0.0
 69
0
 70
0
 71
0
 72
0
 73
0
 74
0
 75
0
 76
0
 77
1
 78
8
 79
3
170
0
171
3
172
1
173
0
174
0
175
0
176
0
177
0
178
0
179
2
271
2
272
2
273
2
274
3
275
0
276
0
277
2
278
44
279
0
280
0
281
0
282
0
283
0
284
8
285
0
286
0
288
0
289
3
290
0
371
-2
372
-2
  0
ENDTAB
  0
TABLE
  2
BLOCK_RECORD
  5
9
330
0
100
AcDbSymbolTable
 70
2
  0
BLOCK_RECORD
  5
17
330
9
100
AcDbSymbolTableRecord
100
AcDbBlockTableRecord
  2
*Model_Space
340
1A
 70
0
280
1
281
0
  0
BLOCK_RECORD
  5
1B
330
9
100
AcDbSymbolTableRecord
100
AcDbBlockTableRecord
  2
*Paper_Space
340
1E
 70
0
280
1
281
0
  0
ENDTAB
  0
ENDSEC
  0
SECTION
  2
BLOCKS
  0
BLOCK
  5
18
330
17
100
AcDbEntity
  8
0
100
AcDbBlockBegin
  2
*Model_Space
 70
0
 10
0.0
 20
0.0
 30
0.0
  3
*Model_Space
  1

  0
ENDBLK
  5
19
330
17
100
AcDbEntity
  8
0
100
AcDbBlockEnd
  0
BLOCK
  5
1C
330
1B
100
AcDbEntity
  8
0
100
AcDbBlockBegin
  2
*Paper_Space
 70
0
 10
0.0
 20
0.0
 30
0.0
  3
*Paper_Space
  1

  0
ENDBLK
  5
1D
330
1B
100
AcDbEntity
  8
0
100
AcDbBlockEnd
  0
ENDSEC
  0
SECTION
  2
ENTITIES
  0
LWPOLYLINE
  5
33
330
17
100
AcDbEntity
  8
SILT_FENCE
100
AcDbPolyline
 90
3
 70
0
 10
2489836.5578
 20
416883.4451
 10
2489770.9655
 20
416878.5394
 10
2489740.3248
 20
416879.3973
  0
LWPOLYLINE
  5
34
330
17
100
AcDbEntity
  8
SILT_FENCE
100
AcDbPolyline
 90
11
 70
0
 10
2489696.1866
 20
416881.7339
 10
2489645.3072
 20
416876.4816
 10
2489641.3144
 20
416881.5578
 10
2489594.0885
 20
416910.7697
 10
2489573.2161
 20
416928.8287
 10
2489470.1933
 20
416984.8716
 10
2489413.797
 20
417007.4247
 10
2489300.4025
 20
417035.2244
 10
2489126.6391
 20
417085.2662
 10
2489038.798
 20
417122.9394
 10
2488726.294
 20
417304.2046
  0
LWPOLYLINE
  5
35
330
17
100
AcDbEntity
  8
SILT_FENCE
100
AcDbPolyline
 90
4
 70
0
 10
2489743.5146
 20
416748.7294
 10
2489716.4176
 20
416660.4527
 10
2489674.0063
 20
416591.832
 10
2489665.4913
 20
416552.2115
  0
LWPOLYLINE
  5
36
330
17
100
AcDbEntity
  8
SILT_FENCE
100
AcDbPolyline
 90
4
 70
0
 10
2489684.3449
 20
416657.5906
 10
2489618.7806
 20
416596.0501
 10
2489465.2828
 20
416417.6823
 10
2489401.0799
 20
416407.812
  0
LWPOLYLINE
  5
37
330
17
100
AcDbEntity
  8
SILT_FENCE
100
AcDbPolyline
 90
5
 70
0
 10
2488715.8652
 20
415991.6397
 10
2488682.4423
 20
415935.2611
 10
2488762.118
 20
415916.9222
 10
2488756.4056
 20
415865.1491
 10
2488627.0659
 20
415864.7178
  0
LWPOLYLINE
  5
38
330
17
100
AcDbEntity
  8
SILT_FENCE
100
AcDbPolyline
 90
34
 70
0
 10
2488594.9022
 20
415805.7865
 10
2488595.2428
 20
415667.8819
 10
2488602.1045
 20
415609.052
 10
2488775.2926
 20
416793.117
 10
2488754.935
 20
416790.1954
 10
2488747.4115
 20
416752.0775
 10
2488686.7016
 20
416674.6172
 10
2488646.1621
 20
416605.0061
 10
2488632.1409
 20
416524.155
 10
2488626.8735
 20
416454.7546
 10
2488646.28
 20
416430.3609
 10
2488705.2747
 20
416426.0632
 10
2488755.2324
 20
416441.1047
 10
2488766.0493
 20
416471.468
 10
2488810.016
 20
416560.0056
 10
2488889.7901
 20
416664.6583
 10
2488906.0883
 20
416784.6694
 10
2488895.8615
 20
416803.3119
 10
2488864.6812
 20
416770.5075
 10
2488817.8853
 20
416760.0948
 10
2488787.2619
 20
416769.1865
 10
2488378.6869
 20
416875.3779
 10
2488392.3939
 20
416833.522
 10
2488386.9279
 20
416778.0672
 10
2488365.1724
 20
416740.3937
 10
2488340.0251
 20
416730.1179
 10
2488306.0161
 20
416730.6018
 10
2488252.0247
 20
416743.6802
 10
2488201.7796
 20
416792.3034
 10
2488169.3939
 20
416859.5091
 10
2488160.4612
 20
416903.0328
 10
2488194.0413
 20
416988.0348
 10
2488268.6796
 20
416968.9802
 10
2487270.08
 20
417212.7658
  0
LWPOLYLINE
  5
39
330
17
100
AcDbEntity
  8
SILT_FENCE
100
AcDbPolyline
 90
5
 70
0
 10
2487237.3407
 20
417223.6654
 10
2487120.8271
 20
417225.4848
 10
2486762.5069
 20
417207.2021
 10
2486576.3234
 20
417204.589
 10
2486428.9276
 20
417237.332
  0
LWPOLYLINE
  5
3A
330
17
100
AcDbEntity
  8
SILT_FENCE
100
AcDbPolyline
 90
5
 70
0
 10
2486196.1847
 20
417222.0793
 10
2486130.4827
 20
417271.1071
 10
2486101.8306
 20
417354.8719
 10
2486059.167
 20
417434.5954
 10
2485957.4854
 20
417450.3332
  0
LWPOLYLINE
  5
3B
330
17
100
AcDbEntity
  8
SILT_FENCE
100
AcDbPolyline
 90
4
 70
0
 10
2485946.9491
 20
417478.2454
 10
2485946.5432
 20
417627.5014
 10
2485927.6581
 20
417628.5019
 10
2485913.8092
 20
417640.6917
  0
POINT
  5
3C
330
17
100
AcDbEntity
  8
SILT_FENCE_ENDS
100
AcDbPoint
 10
2489884.8684
 20
416911.1866
 30
0.0
  0
TEXT
  5
3D
330
17
100
AcDbEntity
  8
SILT_FENCE_LABELS
100
AcDbText
 10
2489887.8684
 20
416914.1866
 30
0.0
 40
3.0
  1
553
 11
2489887.8684
 21
416914.1866
 31
0.0
100
AcDbText
  0
POINT
  5
3E
330
17
100
AcDbEntity
  8
SILT_FENCE_POINTS
100
AcDbPoint
 10
2489836.5578
 20
416883.4451
 30
0.0
  0
TEXT
  5
3F
330
17
100
AcDbEntity
  8
SILT_FENCE_LABELS
100
AcDbText
 10
2489839.5578
 20
416886.4451
 30
0.0
 40
3.0
  1
554
 11
2489839.5578
 21
416886.4451
 31
0.0
100
AcDbText
  0
POINT
  5
40
330
17
100
AcDbEntity
  8
SILT_FENCE_POINTS
100
AcDbPoint
 10
2489770.9655
 20
416878.5394
 30
0.0
  0
TEXT
  5
41
330
17
100
AcDbEntity
  8
SILT_FENCE_LABELS
100
AcDbText
 10
2489773.9655
 20
416881.5394
 30
0.0
 40
3.0
  1
555
 11
2489773.9655
 21
416881.5394
 31
0.0
100
AcDbText
  0
POINT
  5
42
330
17
100
AcDbEntity
  8
SILT_FENCE_ENDS
100
AcDbPoint
 10
2489740.3248
 20
416879.3973
 30
842.0
  0
TEXT
  5
43
330
17
100
AcDbEntity
  8
SILT_FENCE_LABELS
100
AcDbText
 10
2489743.3248
 20
416882.3973
 30
0.0
 40
3.0
  1
556
 11
2489743.3248
 21
416882.3973
 31
0.0
100
AcDbText
  0
POINT
  5
44
330
17
100
AcDbEntity
  8
SILT_FENCE_ENDS
100
AcDbPoint
 10
2489728.0752
 20
416880.6759
 30
0.0
  0
TEXT
  5
45
330
17
100
AcDbEntity
  8
SILT_FENCE_LABELS
100
AcDbText
 10
2489731.0752
 20
416883.6759
 30
0.0
 40
3.0
  1
557
 11
2489731.0752
 21
416883.6759
 31
0.0
100
AcDbText
  0
POINT
  5
46
330
17
100
AcDbEntity
  8
SILT_FENCE_POINTS
100
AcDbPoint
 10
2489696.1866
 20
416881.7339
 30
0.0
  0
TEXT
  5
47
330
17
100
AcDbEntity
  8
SILT_FENCE_LABELS
100
AcDbText
 10
2489699.1866
 20
416884.7339
 30
0.0
 40
3.0
  1
558
 11
2489699.1866
 21
416884.7339
 31
0.0
100
AcDbText
  0
POINT
  5
48
330
17
100
AcDbEntity
  8
SILT_FENCE_POINTS
100
AcDbPoint
 10
2489645.3072
 20
416876.4816
 30
0.0
  0
TEXT
  5
49
330
17
100
AcDbEntity
  8
SILT_FENCE_LABELS
100
AcDbText
 10
2489648.3072
 20
416879.4816
 30
0.0
 40
3.0
  1
559
 11
2489648.3072
 21
416879.4816
 31
0.0
100
AcDbText
  0
POINT
  5
4A
330
17
100
AcDbEntity
  8
SILT_FENCE_POINTS
100
AcDbPoint
 10
2489641.3144
 20
416881.5578
 30
0.0
  0
TEXT
  5
4B
330
17
100
AcDbEntity
  8
SILT_FENCE_LABELS
100
AcDbText
 10
2489644.3144
 20
416884.5578
 30
0.0
 40
3.0
  1
560
 11
2489644.3144
 21
416884.5578
 31
0.0
100
AcDbText
  0
POINT
  5
4C
330
17
100
AcDbEntity
  8
SILT_FENCE_POINTS
100
AcDbPoint
 10
2489594.0885
 20
416910.7697
 30
0.0
  0
TEXT
  5
4D
330
17
100
AcDbEntity
  8
SILT_FENCE_LABELS
100
AcDbText
 10
2489597.0885
 20
416913.7697
 30
0.0
 40
3.0
  1
561
 11
2489597.0885
 21
416913.7697
 31
0.0
100
AcDbText
  0
POINT
  5
4E
330
17
100
AcDbEntity
  8
SILT_FENCE_POINTS
100
AcDbPoint
 10
2489573.2161
 20
416928.8287
 30
0.0
  0
TEXT
  5
4F
330
17
100
AcDbEntity
  8
SILT_FENCE_LABELS
100
AcDbText
 10
2489576.2161
 20
416931.8287
 30
0.0
 40
3.0
  1
562
 11
2489576.2161
 21
416931.8287
 31
0.0
100
AcDbText
  0
POINT
  5
50
330
17
100
AcDbEntity
  8
SILT_FENCE_POINTS
100
AcDbPoint
 10
2489470.1933
 20
416984.8716
 30
0.0
  0
TEXT
  5
51
330
17
100
AcDbEntity
  8
SILT_FENCE_LABELS
100
AcDbText
 10
2489473.1933
 20
416987.8716
 30
0.0
 40
3.0
  1
563
 11
2489473.1933
 21
416987.8716
 31
0.0
100
AcDbText
  0
POINT
  5
52
330
17
100
AcDbEntity
  8
SILT_FENCE_POINTS
100
AcDbPoint
 10
2489413.797
 20
417007.4247
 30
0.0
  0
TEXT
  5
53
330
17
100
AcDbEntity
  8
SILT_FENCE_LABELS
100
AcDbText
 10
2489416.797
 20
417010.4247
 30
0.0
 40
3.0
  1
564
 11
2489416.797
 21
417010.4247
 31
0.0
100
AcDbText
  0
POINT
  5
54
330
17
100
AcDbEntity
  8
SILT_FENCE_POINTS
100
AcDbPoint
 10
2489300.4025
 20
417035.2244
 30
0.0
  0
TEXT
  5
55
330
17
100
AcDbEntity
  8
SILT_FENCE_LABELS
100
AcDbText
 10
2489303.4025
 20
417038.2244
 30
0.0
 40
3.0
  1
565
 11
2489303.4025
 21
417038.2244
 31
0.0
100
AcDbText
  0
POINT
  5
56
330
17
100
AcDbEntity
  8
SILT_FENCE_POINTS
100
AcDbPoint
 10
2489126.6391
 20
417085.2662
 30
0.0
  0
TEXT
  5
57
330
17
100
AcDbEntity
  8
SILT_FENCE_LABELS
100
AcDbText
 10
2489129.6391
 20
417088.2662
 30
0.0
 40
3.0
  1
566
 11
2489129.6391
 21
417088.2662
 31
0.0
100
AcDbText
  0
POINT
  5
58
330
17
100
AcDbEntity
  8
SILT_FENCE_POINTS
100
AcDbPoint
 10
2489038.798
 20
417122.9394
 30
0.0
  0
TEXT
  5
59
330
17
100
AcDbEntity
  8
SILT_FENCE_LABELS
100
AcDbText
 10
2489041.798
 20
417125.9394
 30
0.0
 40
3.0
  1
567
 11
2489041.798
 21
417125.9394
 31
0.0
100
AcDbText
  0
POINT
  5
5A
330
17
100
AcDbEntity
  8
SILT_FENCE_ENDS
100
AcDbPoint
 10
2488726.294
 20
417304.2046
 30
0.0
  0
TEXT
  5
5B
330
17
100
AcDbEntity
  8
SILT_FENCE_LABELS
100
AcDbText
 10
2488729.294
 20
417307.2046
 30
0.0
 40
3.0
  1
568
 11
2488729.294
 21
417307.2046
 31
0.0
100
AcDbText
  0
POINT
  5
5C
330
17
100
AcDbEntity
  8
SILT_FENCE_ENDS
100
AcDbPoint
 10
2489748.3287
 20
416786.6804
 30
0.0
  0
TEXT
  5
5D
330
17
100
AcDbEntity
  8
SILT_FENCE_LABELS
100
AcDbText
 10
2489751.3287
 20
416789.6804
 30
0.0
 40
3.0
  1
569
 11
2489751.3287
 21
416789.6804
 31
0.0
100
AcDbText
  0
POINT
  5
5E
330
17
100
AcDbEntity
  8
SILT_FENCE_POINTS
100
AcDbPoint
 10
2489743.5146
 20
416748.7294
 30
0.0
  0
TEXT
  5
5F
330
17
100
AcDbEntity
  8
SILT_FENCE_LABELS
100
AcDbText
 10
2489746.5146
 20
416751.7294
 30
0.0
 40
3.0
  1
570
 11
2489746.5146
 21
416751.7294
 31
0.0
100
AcDbText
  0
POINT
  5
60
330
17
100
AcDbEntity
  8
SILT_FENCE_POINTS
100
AcDbPoint
 10
2489716.4176
 20
416660.4527
 30
0.0
  0
TEXT
  5
61
330
17
100
AcDbEntity
  8
SILT_FENCE_LABELS
100
AcDbText
 10
2489719.4176
 20
416663.4527
 30
0.0
 40
3.0
  1
571
 11
2489719.4176
 21
416663.4527
 31
0.0
100
AcDbText
  0
POINT
  5
62
330
17
100
AcDbEntity
  8
SILT_FENCE_POINTS
100
AcDbPoint
 10
2489674.0063
 20
416591.832
 30
0.0
  0
TEXT
  5
63
330
17
100
AcDbEntity
  8
SILT_FENCE_LABELS
100
AcDbText
 10
2489677.0063
 20
416594.832
 30
0.0
 40
3.0
  1
572
 11
2489677.0063
 21
416594.832
 31
0.0
100
AcDbText
  0
POINT
  5
64
330
17
100
AcDbEntity
  8
SILT_FENCE_ENDS
100
AcDbPoint
 10
2489665.4913
 20
416552.2115
 30
0.0
  0
TEXT
  5
65
330
17
100
AcDbEntity
  8
SILT_FENCE_LABELS
100
AcDbText
 10
2489668.4913
 20
416555.2115
 30
0.0
 40
3.0
  1
573
 11
2489668.4913
 21
416555.2115
 31
0.0
100
AcDbText
  0
POINT
  5
66
330
17
100
AcDbEntity
  8
SILT_FENCE_ENDS
100
AcDbPoint
 10
2489713.4972
 20
416797.2563
 30
0.0
  0
TEXT
  5
67
330
17
100
AcDbEntity
  8
SILT_FENCE_LABELS
100
AcDbText
 10
2489716.4972
 20
416800.2563
 30
0.0
 40
3.0
  1
574
 11
2489716.4972
 21
416800.2563
 31
0.0
100
AcDbText
  0
POINT
  5
68
330
17
100
AcDbEntity
  8
SILT_FENCE_POINTS
100
AcDbPoint
 10
2489684.3449
 20
416657.5906
 30
0.0
  0
TEXT
  5
69
330
17
100
AcDbEntity
  8
SILT_FENCE_LABELS
100
AcDbText
 10
2489687.3449
 20
416660.5906
 30
0.0
 40
3.0
  1
575
 11
2489687.3449
 21
416660.5906
 31
0.0
100
AcDbText
  0
POINT
  5
6A
330
17
100
AcDbEntity
  8
SILT_FENCE_POINTS
100
AcDbPoint
 10
2489618.7806
 20
416596.0501
 30
0.0
  0
TEXT
  5
6B
330
17
100
AcDbEntity
  8
SILT_FENCE_LABELS
100
AcDbText
 10
2489621.7806
 20
416599.0501
 30
0.0
 40
3.0
  1
576
 11
2489621.7806
 21
416599.0501
 31
0.0
100
AcDbText
  0
POINT
  5
6C
330
17
100
AcDbEntity
  8
SILT_FENCE_POINTS
100
AcDbPoint
 10
2489465.2828
 20
416417.6823
 30
0.0
  0
TEXT
  5
6D
330
17
100
AcDbEntity
  8
SILT_FENCE_LABELS
100
AcDbText
 10
2489468.2828
 20
416420.6823
 30
0.0
 40
3.0
  1
577
 11
2489468.2828
 21
416420.6823
 31
0.0
100
AcDbText
  0
POINT
  5
6E
330
17
100
AcDbEntity
  8
SILT_FENCE_ENDS
100
AcDbPoint
 10
2489401.0799
 20
416407.812
 30
0.0
  0
TEXT
  5
6F
330
17
100
AcDbEntity
  8
SILT_FENCE_LABELS
100
AcDbText
 10
2489404.0799
 20
416410.812
 30
0.0
 40
3.0
  1
578
 11
2489404.0799
 21
416410.812
 31
0.0
100
AcDbText
  0
POINT
  5
70
330
17
100
AcDbEntity
  8
SILT_FENCE_ENDS
100
AcDbPoint
 10
2488766.6873
 20
416024.5058
 30
0.0
  0
TEXT
  5
71
330
17
100
AcDbEntity
  8
SILT_FENCE_LABELS
100
AcDbText
 10
2488769.6873
 20
416027.5058
 30
0.0
 40
3.0
  1
579
 11
2488769.6873
 21
416027.5058
 31
0.0
100
AcDbText
  0
POINT
  5
72
330
17
100
AcDbEntity
  8
SILT_FENCE_POINTS
100
AcDbPoint
 10
2488715.8652
 20
415991.6397
 30
0.0
  0
TEXT
  5
73
330
17
100
AcDbEntity
  8
SILT_FENCE_LABELS
100
AcDbText
 10
2488718.8652
 20
415994.6397
 30
0.0
 40
3.0
  1
626
 11
2488718.8652
 21
415994.6397
 31
0.0
100
AcDbText
  0
POINT
  5
74
330
17
100
AcDbEntity
  8
SILT_FENCE_POINTS
100
AcDbPoint
 10
2488682.4423
 20
415935.2611
 30
0.0
  0
TEXT
  5
75
330
17
100
AcDbEntity
  8
SILT_FENCE_LABELS
100
AcDbText
 10
2488685.4423
 20
415938.2611
 30
0.0
 40
3.0
  1
647
 11
2488685.4423
 21
415938.2611
 31
0.0
100
AcDbText
  0
POINT
  5
76
330
17
100
AcDbEntity
  8
SILT_FENCE_POINTS
100
AcDbPoint
 10
2488762.118
 20
415916.9222
 30
0.0
  0
TEXT
  5
77
330
17
100
AcDbEntity
  8
SILT_FENCE_LABELS
100
AcDbText
 10
2488765.118
 20
415919.9222
 30
0.0
 40
3.0
  1
648
 11
2488765.118
 21
415919.9222
 31
0.0
100
AcDbText
  0
POINT
  5
78
330
17
100
AcDbEntity
  8
SILT_FENCE_POINTS
100
AcDbPoint
 10
2488756.4056
 20
415865.1491
 30
0.0
  0
TEXT
  5
79
330
17
100
AcDbEntity
  8
SILT_FENCE_LABELS
100
AcDbText
 10
2488759.4056
 20
415868.1491
 30
0.0
 40
3.0
  1
649
 11
2488759.4056
 21
415868.1491
 31
0.0
100
AcDbText
  0
POINT
  5
7A
330
17
100
AcDbEntity
  8
SILT_FENCE_ENDS
100
AcDbPoint
 10
2488627.0659
 20
415864.7178
 30
0.0
  0
TEXT
  5
7B
330
17
100
AcDbEntity
  8
SILT_FENCE_LABELS
100
AcDbText
 10
2488630.0659
 20
415867.7178
 30
0.0
 40
3.0
  1
650
 11
2488630.0659
 21
415867.7178
 31
0.0
100
AcDbText
  0
POINT
  5
7C
330
17
100
AcDbEntity
  8
SILT_FENCE_ENDS
100
AcDbPoint
 10
2488617.0219
 20
415843.8575
 30
0.0
  0
TEXT
  5
7D
330
17
100
AcDbEntity
  8
SILT_FENCE_LABELS
100
AcDbText
 10
2488620.0219
 20
415846.8575
 30
0.0
 40
3.0
  1
651
 11
2488620.0219
 21
415846.8575
 31
0.0
100
AcDbText
  0
POINT
  5
7E
330
17
100
AcDbEntity
  8
SILT_FENCE_POINTS
100
AcDbPoint
 10
2488594.9022
 20
415805.7865
 30
0.0
  0
TEXT
  5
7F
330
17
100
AcDbEntity
  8
SILT_FENCE_LABELS
100
AcDbText
 10
2488597.9022
 20
415808.7865
 30
0.0
 40
3.0
  1
652
 11
2488597.9022
 21
415808.7865
 31
0.0
100
AcDbText
  0
POINT
  5
80
330
17
100
AcDbEntity
  8
SILT_FENCE_POINTS
100
AcDbPoint
 10
2488595.2428
 20
415667.8819
 30
0.0
  0
TEXT
  5
81
330
17
100
AcDbEntity
  8
SILT_FENCE_LABELS
100
AcDbText
 10
2488598.2428
 20
415670.8819
 30
0.0
 40
3.0
  1
653
 11
2488598.2428
 21
415670.8819
 31
0.0
100
AcDbText
  0
POINT
  5
82
330
17
100
AcDbEntity
  8
SILT_FENCE_POINTS
100
AcDbPoint
 10
2488602.1045
 20
415609.052
 30
0.0
  0
TEXT
  5
83
330
17
100
AcDbEntity
  8
SILT_FENCE_LABELS
100
AcDbText
 10
2488605.1045
 20
415612.052
 30
0.0
 40
3.0
  1
654
 11
2488605.1045
 21
415612.052
 31
0.0
100
AcDbText
  0
POINT
  5
84
330
17
100
AcDbEntity
  8
SILT_FENCE_POINTS
100
AcDbPoint
 10
2488775.2926
 20
416793.117
 30
0.0
  0
TEXT
  5
85
330
17
100
AcDbEntity
  8
SILT_FENCE_LABELS
100
AcDbText
 10
2488778.2926
 20
416796.117
 30
0.0
 40
3.0
  1
655
 11
2488778.2926
 21
416796.117
 31
0.0
100
AcDbText
  0
POINT
  5
86
330
17
100
AcDbEntity
  8
SILT_FENCE_POINTS
100
AcDbPoint
 10
2488754.935
 20
416790.1954
 30
0.0
  0
TEXT
  5
87
330
17
100
AcDbEntity
  8
SILT_FENCE_LABELS
100
AcDbText
 10
2488757.935
 20
416793.1954
 30
0.0
 40
3.0
  1
656
 11
2488757.935
 21
416793.1954
 31
0.0
100
AcDbText
  0
POINT
  5
88
330
17
100
AcDbEntity
  8
SILT_FENCE_POINTS
100
AcDbPoint
 10
2488747.4115
 20
416752.0775
 30
0.0
  0
TEXT
  5
89
330
17
100
AcDbEntity
  8
SILT_FENCE_LABELS
100
AcDbText
 10
2488750.4115
 20
416755.0775
 30
0.0
 40
3.0
  1
657
 11
2488750.4115
 21
416755.0775
 31
0.0
100
AcDbText
  0
POINT
  5
8A
330
17
100
AcDbEntity
  8
SILT_FENCE_POINTS
100
AcDbPoint
 10
2488686.7016
 20
416674.6172
 30
0.0
  0
TEXT
  5
8B
330
17
100
AcDbEntity
  8
SILT_FENCE_LABELS
100
AcDbText
 10
2488689.7016
 20
416677.6172
 30
0.0
 40
3.0
  1
658
 11
2488689.7016
 21
416677.6172
 31
0.0
100
AcDbText
  0
POINT
  5
8C
330
17
100
AcDbEntity
  8
SILT_FENCE_POINTS
100
AcDbPoint
 10
2488646.1621
 20
416605.0061
 30
0.0
  0
TEXT
  5
8D
330
17
100
AcDbEntity
  8
SILT_FENCE_LABELS
100
AcDbText
 10
2488649.1621
 20
416608.0061
 30
0.0
 40
3.0
  1
659
 11
2488649.1621
 21
416608.0061
 31
0.0
100
AcDbText
  0
POINT
  5
8E
330
17
100
AcDbEntity
  8
SILT_FENCE_POINTS
100
AcDbPoint
 10
2488632.1409
 20
416524.155
 30
0.0
  0
TEXT
  5
8F
330
17
100
AcDbEntity
  8
SILT_FENCE_LABELS
100
AcDbText
 10
2488635.1409
 20
416527.155
 30
0.0
 40
3.0
  1
660
 11
2488635.1409
 21
416527.155
 31
0.0
100
AcDbText
  0
POINT
  5
90
330
17
100
AcDbEntity
  8
SILT_FENCE_POINTS
100
AcDbPoint
 10
2488626.8735
 20
416454.7546
 30
0.0
  0
TEXT
  5
91
330
17
100
AcDbEntity
  8
SILT_FENCE_LABELS
100
AcDbText
 10
2488629.8735
 20
416457.7546
 30
0.0
 40
3.0
  1
661
 11
2488629.8735
 21
416457.7546
 31
0.0
100
AcDbText
  0
POINT
  5
92
330
17
100
AcDbEntity
  8
SILT_FENCE_POINTS
100
AcDbPoint
 10
2488646.28
 20
416430.3609
 30
0.0
  0
TEXT
  5
93
330
17
100
AcDbEntity
  8
SILT_FENCE_LABELS
100
AcDbText
 10
2488649.28
 20
416433.3609
 30
0.0
 40
3.0
  1
662
 11
2488649.28
 21
416433.3609
 31
0.0
100
AcDbText
  0
POINT
  5
94
330
17
100
AcDbEntity
  8
SILT_FENCE_POINTS
100
AcDbPoint
 10
2488705.2747
 20
416426.0632
 30
0.0
  0
TEXT
  5
95
330
17
100
AcDbEntity
  8
SILT_FENCE_LABELS
100
AcDbText
 10
2488708.2747
 20
416429.0632
 30
0.0
 40
3.0
  1
663
 11
2488708.2747
 21
416429.0632
 31
0.0
100
AcDbText
  0
POINT
  5
96
330
17
100
AcDbEntity
  8
SILT_FENCE_POINTS
100
AcDbPoint
 10
2488755.2324
 20
416441.1047
 30
0.0
  0
TEXT
  5
97
330
17
100
AcDbEntity
  8
SILT_FENCE_LABELS
100
AcDbText
 10
2488758.2324
 20
416444.1047
 30
0.0
 40
3.0
  1
664
 11
2488758.2324
 21
416444.1047
 31
0.0
100
AcDbText
  0
POINT
  5
98
330
17
100
AcDbEntity
  8
SILT_FENCE_POINTS
100
AcDbPoint
 10
2488766.0493
 20
416471.468
 30
0.0
  0
TEXT
  5
99
330
17
100
AcDbEntity
  8
SILT_FENCE_LABELS
100
AcDbText
 10
2488769.0493
 20
416474.468
 30
0.0
 40
3.0
  1
665
 11
2488769.0493
 21
416474.468
 31
0.0
100
AcDbText
  0
POINT
  5
9A
330
17
100
AcDbEntity
  8
SILT_FENCE_POINTS
100
AcDbPoint
 10
2488810.016
 20
416560.0056
 30
0.0
  0
TEXT
  5
9B
330
17
100
AcDbEntity
  8
SILT_FENCE_LABELS
100
AcDbText
 10
2488813.016
 20
416563.0056
 30
0.0
 40
3.0
  1
666
 11
2488813.016
 21
416563.0056
 31
0.0
100
AcDbText
  0
POINT
  5
9C
330
17
100
AcDbEntity
  8
SILT_FENCE_POINTS
100
AcDbPoint
 10
2488889.7901
 20
416664.6583
 30
0.0
  0
TEXT
  5
9D
330
17
100
AcDbEntity
  8
SILT_FENCE_LABELS
100
AcDbText
 10
2488892.7901
 20
416667.6583
 30
0.0
 40
3.0
  1
667
 11
2488892.7901
 21
416667.6583
 31
0.0
100
AcDbText
  0
POINT
  5
9E
330
17
100
AcDbEntity
  8
SILT_FENCE_POINTS
100
AcDbPoint
 10
2488906.0883
 20
416784.6694
 30
0.0
  0
TEXT
  5
9F
330
17
100
AcDbEntity
  8
SILT_FENCE_LABELS
100
AcDbText
 10
2488909.0883
 20
416787.6694
 30
0.0
 40
3.0
  1
668
 11
2488909.0883
 21
416787.6694
 31
0.0
100
AcDbText
  0
POINT
  5
A0
330
17
100
AcDbEntity
  8
SILT_FENCE_POINTS
100
AcDbPoint
 10
2488895.8615
 20
416803.3119
 30
0.0
  0
TEXT
  5
A1
330
17
100
AcDbEntity
  8
SILT_FENCE_LABELS
100
AcDbText
 10
2488898.8615
 20
416806.3119
 30
0.0
 40
3.0
  1
669
 11
2488898.8615
 21
416806.3119
 31
0.0
100
AcDbText
  0
POINT
  5
A2
330
17
100
AcDbEntity
  8
SILT_FENCE_POINTS
100
AcDbPoint
 10
2488864.6812
 20
416770.5075
 30
0.0
  0
TEXT
  5
A3
330
17
100
AcDbEntity
  8
SILT_FENCE_LABELS
100
AcDbText
 10
2488867.6812
 20
416773.5075
 30
0.0
 40
3.0
  1
670
 11
2488867.6812
 21
416773.5075
 31
0.0
100
AcDbText
  0
POINT
  5
A4
330
17
100
AcDbEntity
  8
SILT_FENCE_POINTS
100
AcDbPoint
 10
2488817.8853
 20
416760.0948
 30
0.0
  0
TEXT
  5
A5
330
17
100
AcDbEntity
  8
SILT_FENCE_LABELS
100
AcDbText
 10
2488820.8853
 20
416763.0948
 30
0.0
 40
3.0
  1
671
 11
2488820.8853
 21
416763.0948
 31
0.0
100
AcDbText
  0
POINT
  5
A6
330
17
100
AcDbEntity
  8
SILT_FENCE_POINTS
100
AcDbPoint
 10
2488787.2619
 20
416769.1865
 30
0.0
  0
TEXT
  5
A7
330
17
100
AcDbEntity
  8
SILT_FENCE_LABELS
100
AcDbText
 10
2488790.2619
 20
416772.1865
 30
0.0
 40
3.0
  1
672
 11
2488790.2619
 21
416772.1865
 31
0.0
100
AcDbText
  0
POINT
  5
A8
330
17
100
AcDbEntity
  8
SILT_FENCE_POINTS
100
AcDbPoint
 10
2488378.6869
 20
416875.3779
 30
0.0
  0
TEXT
  5
A9
330
17
100
AcDbEntity
  8
SILT_FENCE_LABELS
100
AcDbText
 10
2488381.6869
 20
416878.3779
 30
0.0
 40
3.0
  1
673
 11
2488381.6869
 21
416878.3779
 31
0.0
100
AcDbText
  0
POINT
  5
AA
330
17
100
AcDbEntity
  8
SILT_FENCE_POINTS
100
AcDbPoint
 10
2488392.3939
 20
416833.522
 30
0.0
  0
TEXT
  5
AB
330
17
100
AcDbEntity
  8
SILT_FENCE_LABELS
100
AcDbText
 10
2488395.3939
 20
416836.522
 30
0.0
 40
3.0
  1
674
 11
2488395.3939
 21
416836.522
 31
0.0
100
AcDbText
  0
POINT
  5
AC
330
17
100
AcDbEntity
  8
SILT_FENCE_POINTS
100
AcDbPoint
 10
2488386.9279
 20
416778.0672
 30
0.0
  0
TEXT
  5
AD
330
17
100
AcDbEntity
  8
SILT_FENCE_LABELS
100
AcDbText
 10
2488389.9279
 20
416781.0672
 30
0.0
 40
3.0
  1
675
 11
2488389.9279
 21
416781.0672
 31
0.0
100
AcDbText
  0
POINT
  5
AE
330
17
100
AcDbEntity
  8
SILT_FENCE_POINTS
100
AcDbPoint
 10
2488365.1724
 20
416740.3937
 30
0.0
  0
TEXT
  5
AF
330
17
100
AcDbEntity
  8
SILT_FENCE_LABELS
100
AcDbText
 10
2488368.1724
 20
416743.3937
 30
0.0
 40
3.0
  1
676
 11
2488368.1724
 21
416743.3937
 31
0.0
100
AcDbText
  0
POINT
  5
B0
330
17
100
AcDbEntity
  8
SILT_FENCE_POINTS
100
AcDbPoint
 10
2488340.0251
 20
416730.1179
 30
0.0
  0
TEXT
  5
B1
330
17
100
AcDbEntity
  8
SILT_FENCE_LABELS
100
AcDbText
 10
2488343.0251
 20
416733.1179
 30
0.0
 40
3.0
  1
677
 11
2488343.0251
 21
416733.1179
 31
0.0
100
AcDbText
  0
POINT
  5
B2
330
17
100
AcDbEntity
  8
SILT_FENCE_POINTS
100
AcDbPoint
 10
2488306.0161
 20
416730.6018
 30
0.0
  0
TEXT
  5
B3
330
17
100
AcDbEntity
  8
SILT_FENCE_LABELS
100
AcDbText
 10
2488309.0161
 20
416733.6018
 30
0.0
 40
3.0
  1
678
 11
2488309.0161
 21
416733.6018
 31
0.0
100
AcDbText
  0
POINT
  5
B4
330
17
100
AcDbEntity
  8
SILT_FENCE_POINTS
100
AcDbPoint
 10
2488252.0247
 20
416743.6802
 30
0.0
  0
TEXT
  5
B5
330
17
100
AcDbEntity
  8
SILT_FENCE_LABELS
100
AcDbText
 10
2488255.0247
 20
416746.6802
 30
0.0
 40
3.0
  1
679
 11
2488255.0247
 21
416746.6802
 31
0.0
100
AcDbText
  0
POINT
  5
B6
330
17
100
AcDbEntity
  8
SILT_FENCE_POINTS
100
AcDbPoint
 10
2488201.7796
 20
416792.3034
 30
0.0
  0
TEXT
  5
B7
330
17
100
AcDbEntity
  8
SILT_FENCE_LABELS
100
AcDbText
 10
2488204.7796
 20
416795.3034
 30
0.0
 40
3.0
  1
680
 11
2488204.7796
 21
416795.3034
 31
0.0
100
AcDbText
  0
POINT
  5
B8
330
17
100
AcDbEntity
  8
SILT_FENCE_POINTS
100
AcDbPoint
 10
2488169.3939
 20
416859.5091
 30
0.0
  0
TEXT
  5
B9
330
17
100
AcDbEntity
  8
SILT_FENCE_LABELS
100
AcDbText
 10
2488172.3939
 20
416862.5091
 30
0.0
 40
3.0
  1
681
 11
2488172.3939
 21
416862.5091
 31
0.0
100
AcDbText
  0
POINT
  5
BA
330
17
100
AcDbEntity
  8
SILT_FENCE_POINTS
100
AcDbPoint
 10
2488160.4612
 20
416903.0328
 30
0.0
  0
TEXT
  5
BB
330
17
100
AcDbEntity
  8
SILT_FENCE_LABELS
100
AcDbText
 10
2488163.4612
 20
416906.0328
 30
0.0
 40
3.0
  1
682
 11
2488163.4612
 21
416906.0328
 31
0.0
100
AcDbText
  0
POINT
  5
BC
330
17
100
AcDbEntity
  8
SILT_FENCE_POINTS
100
AcDbPoint
 10
2488194.0413
 20
416988.0348
 30
0.0
  0
TEXT
  5
BD
330
17
100
AcDbEntity
  8
SILT_FENCE_LABELS
100
AcDbText
 10
2488197.0413
 20
416991.0348
 30
0.0
 40
3.0
  1
683
 11
2488197.0413
 21
416991.0348
 31
0.0
100
AcDbText
  0
POINT
  5
BE
330
17
100
AcDbEntity
  8
SILT_FENCE_POINTS
100
AcDbPoint
 10
2488268.6796
 20
416968.9802
 30
0.0
  0
TEXT
  5
BF
330
17
100
AcDbEntity
  8
SILT_FENCE_LABELS
100
AcDbText
 10
2488271.6796
 20
416971.9802
 30
0.0
 40
3.0
  1
684
 11
2488271.6796
 21
416971.9802
 31
0.0
100
AcDbText
  0
POINT
  5
C0
330
17
100
AcDbEntity
  8
SILT_FENCE_ENDS
100
AcDbPoint
 10
2487270.08
 20
417212.7658
 30
0.0
  0
TEXT
  5
C1
330
17
100
AcDbEntity
  8
SILT_FENCE_LABELS
100
AcDbText
 10
2487273.08
 20
417215.7658
 30
0.0
 40
3.0
  1
685
 11
2487273.08
 21
417215.7658
 31
0.0
100
AcDbText
  0
POINT
  5
C2
330
17
100
AcDbEntity
  8
SILT_FENCE_POINTS
100
AcDbPoint
 10
2487237.3407
 20
417223.6654
 30
0.0
  0
TEXT
  5
C3
330
17
100
AcDbEntity
  8
SILT_FENCE_LABELS
100
AcDbText
 10
2487240.3407
 20
417226.6654
 30
0.0
 40
3.0
  1
686
 11
2487240.3407
 21
417226.6654
 31
0.0
100
AcDbText
  0
POINT
  5
C4
330
17
100
AcDbEntity
  8
SILT_FENCE_POINTS
100
AcDbPoint
 10
2487120.8271
 20
417225.4848
 30
0.0
  0
TEXT
  5
C5
330
17
100
AcDbEntity
  8
SILT_FENCE_LABELS
100
AcDbText
 10
2487123.8271
 20
417228.4848
 30
0.0
 40
3.0
  1
687
 11
2487123.8271
 21
417228.4848
 31
0.0
100
AcDbText
  0
POINT
  5
C6
330
17
100
AcDbEntity
  8
SILT_FENCE_POINTS
100
AcDbPoint
 10
2486762.5069
 20
417207.2021
 30
0.0
  0
TEXT
  5
C7
330
17
100
AcDbEntity
  8
SILT_FENCE_LABELS
100
AcDbText
 10
2486765.5069
 20
417210.2021
 30
0.0
 40
3.0
  1
688
 11
2486765.5069
 21
417210.2021
 31
0.0
100
AcDbText
  0
POINT
  5
C8
330
17
100
AcDbEntity
  8
SILT_FENCE_POINTS
100
AcDbPoint
 10
2486576.3234
 20
417204.589
 30
0.0
  0
TEXT
  5
C9
330
17
100
AcDbEntity
  8
SILT_FENCE_LABELS
100
AcDbText
 10
2486579.3234
 20
417207.589
 30
0.0
 40
3.0
  1
689
 11
2486579.3234
 21
417207.589
 31
0.0
100
AcDbText
  0
POINT
  5
CA
330
17
100
AcDbEntity
  8
SILT_FENCE_ENDS
100
AcDbPoint
 10
2486428.9276
 20
417237.332
 30
0.0
  0
TEXT
  5
CB
330
17
100
AcDbEntity
  8
SILT_FENCE_LABELS
100
AcDbText
 10
2486431.9276
 20
417240.332
 30
0.0
 40
3.0
  1
690
 11
2486431.9276
 21
417240.332
 31
0.0
100
AcDbText
  0
POINT
  5
CC
330
17
100
AcDbEntity
  8
SILT_FENCE_ENDS
100
AcDbPoint
 10
2486421.3638
 20
417235.5832
 30
0.0
  0
TEXT
  5
CD
330
17
100
AcDbEntity
  8
SILT_FENCE_LABELS
100
AcDbText
 10
2486424.3638
 20
417238.5832
 30
0.0
 40
3.0
  1
691
 11
2486424.3638
 21
417238.5832
 31
0.0
100
AcDbText
  0
POINT
  5
CE
330
17
100
AcDbEntity
  8
SILT_FENCE_POINTS
100
AcDbPoint
 10
2486196.1847
 20
417222.0793
 30
0.0
  0
TEXT
  5
CF
330
17
100
AcDbEntity
  8
SILT_FENCE_LABELS
100
AcDbText
 10
2486199.1847
 20
417225.0793
 30
0.0
 40
3.0
  1
692
 11
2486199.1847
 21
417225.0793
 31
0.0
100
AcDbText
  0
POINT
  5
D0
330
17
100
AcDbEntity
  8
SILT_FENCE_POINTS
100
AcDbPoint
 10
2486130.4827
 20
417271.1071
 30
0.0
  0
TEXT
  5
D1
330
17
100
AcDbEntity
  8
SILT_FENCE_LABELS
100
AcDbText
 10
2486133.4827
 20
417274.1071
 30
0.0
 40
3.0
  1
693
 11
2486133.4827
 21
417274.1071
 31
0.0
100
AcDbText
  0
POINT
  5
D2
330
17
100
AcDbEntity
  8
SILT_FENCE_POINTS
100
AcDbPoint
 10
2486101.8306
 20
417354.8719
 30
0.0
  0
TEXT
  5
D3
330
17
100
AcDbEntity
  8
SILT_FENCE_LABELS
100
AcDbText
 10
2486104.8306
 20
417357.8719
 30
0.0
 40
3.0
  1
694
 11
2486104.8306
 21
417357.8719
 31
0.0
100
AcDbText
  0
POINT
  5
D4
330
17
100
AcDbEntity
  8
SILT_FENCE_POINTS
100
AcDbPoint
 10
2486059.167
 20
417434.5954
 30
0.0
  0
TEXT
  5
D5
330
17
100
AcDbEntity
  8
SILT_FENCE_LABELS
100
AcDbText
 10
2486062.167
 20
417437.5954
 30
0.0
 40
3.0
  1
695
 11
2486062.167
 21
417437.5954
 31
0.0
100
AcDbText
  0
POINT
  5
D6
330
17
100
AcDbEntity
  8
SILT_FENCE_ENDS
100
AcDbPoint
 10
2485957.4854
 20
417450.3332
 30
0.0
  0
TEXT
  5
D7
330
17
100
AcDbEntity
  8
SILT_FENCE_LABELS
100
AcDbText
 10
2485960.4854
 20
417453.3332
 30
0.0
 40
3.0
  1
696
 11
2485960.4854
 21
417453.3332
 31
0.0
100
AcDbText
  0
POINT
  5
D8
330
17
100
AcDbEntity
  8
SILT_FENCE_ENDS
100
AcDbPoint
 10
2485948.3512
 20
417450.6356
 30
0.0
  0
TEXT
  5
D9
330
17
100
AcDbEntity
  8
SILT_FENCE_LABELS
100
AcDbText
 10
2485951.3512
 20
417453.6356
 30
0.0
 40
3.0
  1
697
 11
2485951.3512
 21
417453.6356
 31
0.0
100
AcDbText
  0
POINT
  5
DA
330
17
100
AcDbEntity
  8
SILT_FENCE_POINTS
100
AcDbPoint
 10
2485946.9491
 20
417478.2454
 30
0.0
  0
TEXT
  5
DB
330
17
100
AcDbEntity
  8
SILT_FENCE_LABELS
100
AcDbText
 10
2485949.9491
 20
417481.2454
 30
0.0
 40
3.0
  1
698
 11
2485949.9491
 21
417481.2454
 31
0.0
100
AcDbText
  0
POINT
  5
DC
330
17
100
AcDbEntity
  8
SILT_FENCE_POINTS
100
AcDbPoint
 10
2485946.5432
 20
417627.5014
 30
0.0
  0
TEXT
  5
DD
330
17
100
AcDbEntity
  8
SILT_FENCE_LABELS
100
AcDbText
 10
2485949.5432
 20
417630.5014
 30
0.0
 40
3.0
  1
699
 11
2485949.5432
 21
417630.5014
 31
0.0
100
AcDbText
  0
POINT
  5
DE
330
17
100
AcDbEntity
  8
SILT_FENCE_POINTS
100
AcDbPoint
 10
2485927.6581
 20
417628.5019
 30
0.0
  0
TEXT
  5
DF
330
17
100
AcDbEntity
  8
SILT_FENCE_LABELS
100
AcDbText
 10
2485930.6581
 20
417631.5019
 30
0.0
 40
3.0
  1
700
 11
2485930.6581
 21
417631.5019
 31
0.0
100
AcDbText
  0
POINT
  5
E0
330
17
100
AcDbEntity
  8
SILT_FENCE_ENDS
100
AcDbPoint
 10
2485913.8092
 20
417640.6917
 30
0.0
  0
TEXT
  5
E1
330
17
100
AcDbEntity
  8
SILT_FENCE_LABELS
100
AcDbText
 10
2485916.8092
 20
417643.6917
 30
0.0
 40
3.0
  1
701
 11
2485916.8092
 21
417643.6917
 31
0.0
100
AcDbText
  0
POINT
  5
E2
330
17
100
AcDbEntity
  8
SILT_FENCE_ENDS
100
AcDbPoint
 10
2488631.3373
 20
415576.7768
 30
0.0
  0
TEXT
  5
E3
330
17
100
AcDbEntity
  8
SILT_FENCE_LABELS
100
AcDbText
 10
2488634.3373
 20
415579.7768
 30
0.0
 40
3.0
  1
702
 11
2488634.3373
 21
415579.7768
 31
0.0
100
AcDbText
  0
ENDSEC
  0
SECTION
  2
OBJECTS
  0
DICTIONARY
  5
A
330
0
100
AcDbDictionary
281
1
  3
ACAD_COLOR
350
B
  3
ACAD_GROUP
350
C
  3
ACAD_LAYOUT
350
D
  3
ACAD_MATERIAL
350
E
  3
ACAD_MLEADERSTYLE
350
F
  3
ACAD_MLINESTYLE
350
10
  3
ACAD_PLOTSETTINGS
350
11
  3
ACAD_PLOTSTYLENAME
350
12
  3
ACAD_SCALELIST
350
14
  3
ACAD_TABLESTYLE
350
15
  3
ACAD_VISUALSTYLE
350
16
  3
EZDXF_META
350
2D
  0
DICTIONARY
  5
B
330
A
100
AcDbDictionary
281
1
  0
DICTIONARY
  5
C
330
A
100
AcDbDictionary
281
1
  0
DICTIONARY
  5
D
330
A
100
AcDbDictionary
281
1
  3
Model
350
1A
  3
Layout1
350
1E
  0
DICTIONARY
  5
E
330
A
100
AcDbDictionary
281
1
  3
ByBlock
350
1F
  3
ByLayer
350
20
  3
Global
350
21
  0
DICTIONARY
  5
F
330
A
100
AcDbDictionary
281
1
  3
Standard
350
2C
  0
DICTIONARY
  5
10
330
A
100
AcDbDictionary
281
1
  3
Standard
350
22
  0
DICTIONARY
  5
11
330
A
100
AcDbDictionary
281
1
  0
ACDBDICTIONARYWDFLT
  5
12
330
A
100
AcDbDictionary
281
1
  3
Normal
350
13
100
AcDbDictionaryWithDefault
340
13
  0
ACDBPLACEHOLDER
  5
13
330
12
  0
DICTIONARY
  5
14
330
A
100
AcDbDictionary
281
1
  0
DICTIONARY
  5
15
330
A
100
AcDbDictionary
281
1
  0
DICTIONARY
  5
16
330
A
100
AcDbDictionary
281
1
  0
LAYOUT
  5
1A
330
D
100
AcDbPlotSettings
  1

  4
A3
  6

 40
7.5
 41
20.0
 42
7.5
 43
20.0
 44
420.0
 45
297.0
 46
0.0
 47
0.0
 48
0.0
 49
0.0
140
0.0
141
0.0
142
1.0
143
1.0
 70
1024
 72
1
 73
0
 74
5
  7

 75
16
 76
0
 77
2
 78
300
147
1.0
148
0.0
149
0.0
100
AcDbLayout
  1
Model
 70
1
 71
0
 10
0.0
 20
0.0
 11
420.0
 21
297.0
 12
0.0
 22
0.0
 32
0.0
 14
1e+20
 24
1e+20
 34
1e+20
 15
-1e+20
 25
-1e+20
 35
-1e+20
146
0.0
 13
0.0
 23
0.0
 33
0.0
 16
1.0
 26
0.0
 36
0.0
 17
0.0
 27
1.0
 37
0.0
 76
1
330
17
  0
LAYOUT
  5
1E
330
D
100
AcDbPlotSettings
  1

  4
A3
  6

 40
7.5
 41
20.0
 42
7.5
 43
20.0
 44
420.0
 45
297.0
 46
0.0
 47
0.0
 48
0.0
 49
0.0
140
0.0
141
0.0
142
1.0
143
1.0
 70
0
 72
1
 73
0
 74
5
  7

 75
16
 76
0
 77
2
 78
300
147
1.0
148
0.0
149
0.0
100
AcDbLayout
  1
Layout1
 70
1
 71
1
 10
0.0
 20
0.0
 11
420.0
 21
297.0
 12
0.0
 22
0.0
 32
0.0
 14
1e+20
 24
1e+20
 34
1e+20
 15
-1e+20
 25
-1e+20
 35
-1e+20
146
0.0
 13
0.0
 23
0.0
 33
0.0
 16
1.0
 26
0.0
 36
0.0
 17
0.0
 27
1.0
 37
0.0
 76
1
330
1B
  0
MATERIAL
  5
1F
102
{ACAD_REACTORS
330
E
102
}
330
E
100
AcDbMaterial
  1
ByBlock
  2

 70
0
 40
1.0
 71
1
 41
1.0
 91
-1023410177
 42
1.0
 72
1
  3

 73
1
 74
1
 75
1
 44
0.5
 73
0
 45
1.0
 46
1.0
 77
1
  4

 78
1
 79
1
170
1
 48
1.0
171
1
  6

172
1
173
1
174
1
140
1.0
141
1.0
175
1
  7

176
1
177
1
178
1
143
1.0
179
1
  8

270
1
271
1
272
1
145
1.0
146
1.0
273
1
  9

274
1
275
1
276
1
 42
1.0
 72
1
  3

 73
1
 74
1
 75
1
 94
63
  0
MATERIAL
  5
20
102
{ACAD_REACTORS
330
E
102
}
330
E
100
AcDbMaterial
  1
ByLayer
  2

 70
0
 40
1.0
 71
1
 41
1.0
 91
-1023410177
 42
1.0
 72
1
  3

 73
1
 74
1
 75
1
 44
0.5
 73
0
 45
1.0
 46
1.0
 77
1
  4

 78
1
 79
1
170
1
 48
1.0
171
1
  6

172
1
173
1
174
1
140
1.0
141
1.0
175
1
  7

176
1
177
1
178
1
143
1.0
179
1
  8

270
1
271
1
272
1
145
1.0
146
1.0
273
1
  9

274
1
275
1
276
1
 42
1.0
 72
1
  3

 73
1
 74
1
 75
1
 94
63
  0
MATERIAL
  5
21
102
{ACAD_REACTORS
330
E
102
}
330
E
100
AcDbMaterial
  1
Global
  2

 70
0
 40
1.0
 71
1
 41
1.0
 91
-1023410177
 42
1.0
 72
1
  3

 73
1
 74
1
 75
1
 44
0.5
 73
0
 45
1.0
 46
1.0
 77
1
  4

 78
1
 79
1
170
1
 48
1.0
171
1
  6

172
1
173
1
174
1
140
1.0
141
1.0
175
1
  7

176
1
177
1
178
1
143
1.0
179
1
  8

270
1
271
1
272
1
145
1.0
146
1.0
273
1
  9

274
1
275
1
276
1
 42
1.0
 72
1
  3

 73
1
 74
1
 75
1
 94
63
  0
MLINESTYLE
  5
22
102
{ACAD_REACTORS
330
10
102
}
330
10
100
AcDbMlineStyle
  2
Standard
 70
0
  3

 62
256
 51
90.0
 52
90.0
 71
2
 49
0.5
 62
256
  6
BYLAYER
 49
-0.5
 62
256
  6
BYLAYER
  0
MLEADERSTYLE
  5
2C
102
{ACAD_REACTORS
330
F
102
}
330
F
100
AcDbMLeaderStyle
179
2
170
2
171
1
172
0
 90
2
 40
0.0
 41
0.0
173
1
 91
-1056964608
 92
-2
290
1
 42
2.0
291
1
 43
8.0
  3
Standard
 44
4.0
300

342
29
174
1
175
1
176
0
178
1
 93
-1056964608
 45
4.0
292
0
297
0
 46
4.0
 94
-1056964608
 47
1.0
 49
1.0
140
1.0
294
1
141
0.0
177
0
142
1.0
295
0
296
0
143
3.75
271
0
272
9
273
9
  0
DICTIONARY
  5
2D
330
A
100
AcDbDictionary
280
1
281
1
  3
CREATED_BY_EZDXF
350
2E
  3
WRITTEN_BY_EZDXF
350
E6
  0
DICTIONARYVAR
  5
2E
330
2D
100
DictionaryVariables
280
0
  1
1.4.4 @ 2026-08-06T13:22:35.868719+00:00
  0
DICTIONARYVAR
  5
E6
330
2D
100
DictionaryVariables
280
0
  1
1.4.4 @ 2026-08-06T13:22:35.871936+00:00
  0
ENDSEC
  0
EOF
