  0
SECTION
  2
HEADER
  9
$ACADVER
  1
AC1024
  9
$ACADMAINTVER
 70
6
  9
$DWGCODEPAGE
  3
ANSI_1252
  9
$LASTSAVEDBY
  1
ezdxf
  9
$INSBASE
 10
0.0
 20
0.0
 30
0.0
  9
$EXTMIN
 10
1e+20
 20
1e+20
 30
1e+20
  9
$EXTMAX
 10
-1e+20
 20
-1e+20
 30
-1e+20
  9
$LIMMIN
 10
0.0
 20
0.0
  9
$LIMMAX
 10
420.0
 20
297.0
  9
$ORTHOMODE
 70
0
  9
$REGENMODE
 70
1
  9
$FILLMODE
 70
1
  9
$QTEXTMODE
 70
0
  9
$MIRRTEXT
 70
1
  9
$LTSCALE
 40
1.0
  9
$ATTMODE
 70
1
  9
$TEXTSIZE
 40
2.5
  9
$TRACEWID
 40
1.0
  9
$TEXTSTYLE
  7
Standard
  9
$CLAYER
  8
0
  9
$CELTYPE
  6
ByLayer
  9
$CECOLOR
 62
256
  9
$CELTSCALE
 40
1.0
  9
$DISPSILH
 70
0
  9
$DIMSCALE
 40
1.0
  9
$DIMASZ
 40
2.5
  9
$DIMEXO
 40
0.625
  9
$DIMDLI
 40
3.75
  9
$DIMRND
 40
0.0
  9
$DIMDLE
 40
0.0
  9
$DIMEXE
 40
1.25
  9
$DIMTP
 40
0.0
  9
$DIMTM
 40
0.0
  9
$DIMTXT
 40
2.5
  9
$DIMCEN
 40
2.5
  9
$DIMTSZ
 40
0.0
  9
$DIMTOL
 70
0
  9
$DIMLIM
 70
0
  9
$DIMTIH
 70
0
  9
$DIMTOH
 70
0
  9
$DIMSE1
 70
0
  9
$DIMSE2
 70
0
  9
$DIMTAD
 70
1
  9
$DIMZIN
 70
8
  9
$DIMBLK
  1

  9
$DIMASO
 70
1
  9
$DIMSHO
 70
1
  9
$DIMPOST
  1

  9
$DIMAPOST
  1

  9
$DIMALT
 70
0
  9
$DIMALTD
 70
3
  9
$DIMALTF
 40
0.03937007874
  9
$DIMLFAC
 40
1.0
  9
$DIMTOFL
 70
1
  9
$DIMTVP
 40
0.0
  9
$DIMTIX
 70
0
  9
$DIMSOXD
 70
0
  9
$DIMSAH
 70
0
  9
$DIMBLK1
  1

  9
$DIMBLK2
  1

  9
$DIMSTYLE
  2
ISO-25
  9
$DIMCLRD
 70
0
  9
$DIMCLRE
 70
0
  9
$DIMCLRT
 70
0
  9
$DIMTFAC
 40
1.0
  9
$DIMGAP
 40
0.625
  9
$DIMJUST
 70
0
  9
$DIMSD1
 70
0
  9
$DIMSD2
 70
0
  9
$DIMTOLJ
 70
0
  9
$DIMTZIN
 70
8
  9
$DIMALTZ
 70
0
  9
$DIMALTTZ
 70
0
  9
$DIMUPT
 70
0
  9
$DIMDEC
 70
2
  9
$DIMTDEC
 70
2
  9
$DIMALTU
 70
2
  9
$DIMALTTD
 70
3
  9
$DIMTXSTY
  7
Standard
  9
$DIMAUNIT
 70
0
  9
$DIMADEC
 70
0
  9
$DIMALTRND
 40
0.0
  9
$DIMAZIN
 70
0
  9
$DIMDSEP
 70
44
  9
$DIMATFIT
 70
3
  9
$DIMFRAC
 70
0
  9
$DIMLDRBLK
  1

  9
$DIMLUNIT
 70
2
  9
$DIMLWD
 70
-2
  9
$DIMLWE
 70
-2
  9
$DIMTMOVE
 70
0
  9
$DIMFXL
 40
1.0
  9
$DIMFXLON
 70
0
  9
$DIMJOGANG
 40
0.785398163397
  9
$DIMTFILL
 70
0
  9
$DIMTFILLCLR
 70
0
  9
$DIMARCSYM
 70
0
  9
$DIMLTYPE
  6

  9
$DIMLTEX1
  6

  9
$DIMLTEX2
  6

  9
$DIMTXTDIRECTION
 70
0
  9
$LUNITS
 70
2
  9
$LUPREC
 70
4
  9
$SKETCHINC
 40
1.0
  9
$FILLETRAD
 40
10.0
  9
$AUNITS
 70
0
  9
$AUPREC
 70
2
  9
$MENU
  1
.
  9
$ELEVATION
 40
0.0
  9
$PELEVATION
 40
0.0
  9
$THICKNESS
 40
0.0
  9
$LIMCHECK
 70
0
  9
$CHAMFERA
 40
0.0
  9
$CHAMFERB
 40
0.0
  9
$CHAMFERC
 40
0.0
  9
$CHAMFERD
 40
0.0
  9
$SKPOLY
 70
0
  9
$TDCREATE
 40
2461259.677372685
  9
$TDUCREATE
 40
2458532.153996898
  9
$TDUPDATE
 40
2461259.677372685
  9
$TDUUPDATE
 40
2458532.1544311
  9
$TDINDWG
 40
0.0
  9
$TDUSRTIMER
 40
0.0
  9
$USRTIMER
 70
1
  9
$ANGBASE
 50
0.0
  9
$ANGDIR
 70
0
  9
$PDMODE
 70
0
  9
$PDSIZE
 40
0.0
  9
$PLINEWID
 40
0.0
  9
$SPLFRAME
 70
0
  9
$SPLINETYPE
 70
6
  9
$SPLINESEGS
 70
8
  9
$HANDSEED
  5
162
  9
$SURFTAB1
 70
6
  9
$SURFTAB2
 70
6
  9
$SURFTYPE
 70
6
  9
$SURFU
 70
6
  9
$SURFV
 70
6
  9
$UCSBASE
  2

  9
$UCSNAME
  2

  9
$UCSORG
 10
0.0
 20
0.0
 30
0.0
  9
$UCSXDIR
 10
1.0
 20
0.0
 30
0.0
  9
$UCSYDIR
 10
0.0
 20
1.0
 30
0.0
  9
$UCSORTHOREF
  2

  9
$UCSORTHOVIEW
 70
0
  9
$UCSORGTOP
 10
0.0
 20
0.0
 30
0.0
  9
$UCSORGBOTTOM
 10
0.0
 20
0.0
 30
0.0
  9
$UCSORGLEFT
 10
0.0
 20
0.0
 30
0.0
  9
$UCSORGRIGHT
 10
0.0
 20
0.0
 30
0.0
  9
$UCSORGFRONT
 10
0.0
 20
0.0
 30
0.0
  9
$UCSORGBACK
 10
0.0
 20
0.0
 30
0.0
  9
$PUCSBASE
  2

  9
$PUCSNAME
  2

  9
$PUCSORG
 10
0.0
 20
0.0
 30
0.0
  9
$PUCSXDIR
 10
1.0
 20
0.0
 30
0.0
  9
$PUCSYDIR
 10
0.0
 20
1.0
 30
0.0
  9
$PUCSORTHOREF
  2

  9
$PUCSORTHOVIEW
 70
0
  9
$PUCSORGTOP
 10
0.0
 20
0.0
 30
0.0
  9
$PUCSORGBOTTOM
 10
0.0
 20
0.0
 30
0.0
  9
$PUCSORGLEFT
 10
0.0
 20
0.0
 30
0.0
  9
$PUCSORGRIGHT
 10
0.0
 20
0.0
 30
0.0
  9
$PUCSORGFRONT
 10
0.0
 20
0.0
 30
0.0
  9
$PUCSORGBACK
 10
0.0
 20
0.0
 30
0.0
  9
$USERI1
 70
0
  9
$USERI2
 70
0
  9
$USERI3
 70
0
  9
$USERI4
 70
0
  9
$USERI5
 70
0
  9
$USERR1
 40
0.0
  9
$USERR2
 40
0.0
  9
$USERR3
 40
0.0
  9
$USERR4
 40
0.0
  9
$USERR5
 40
0.0
  9
$WORLDVIEW
 70
1
  9
$SHADEDGE
 70
3
  9
$SHADEDIF
 70
70
  9
$TILEMODE
 70
1
  9
$MAXACTVP
 70
64
  9
$PINSBASE
 10
0.0
 20
0.0
 30
0.0
  9
$PLIMCHECK
 70
0
  9
$PEXTMIN
 10
1e+20
 20
1e+20
 30
1e+20
  9
$PEXTMAX
 10
-1e+20
 20
-1e+20
 30
-1e+20
  9
$PLIMMIN
 10
0.0
 20
0.0
  9
$PLIMMAX
 10
420.0
 20
297.0
  9
$UNITMODE
 70
0
  9
$VISRETAIN
 70
1
  9
$PLINEGEN
 70
0
  9
$PSLTSCALE
 70
1
  9
$TREEDEPTH
 70
3020
  9
$CMLSTYLE
  2
Standard
  9
$CMLJUST
 70
0
  9
$CMLSCALE
 40
20.0
  9
$PROXYGRAPHICS
 70
1
  9
$MEASUREMENT
 70
1
  9
$CELWEIGHT
370
-1
  9
$ENDCAPS
280
0
  9
$JOINSTYLE
280
0
  9
$LWDISPLAY
290
0
  9
$INSUNITS
 70
2
  9
$HYPERLINKBASE
  1

  9
$STYLESHEET
  1

  9
$XEDIT
290
1
  9
$CEPSNTYPE
380
0
  9
$PSTYLEMODE
290
1
  9
$FINGERPRINTGUID
  2
{2160A071-20FD-4C21-86C9-864485778C5C}
  9
$VERSIONGUID
  2
{A031E359-281E-4A0C-8CDB-5E59B794C557}
  9
$EXTNAMES
290
1
  9
$PSVPSCALE
 40
0.0
  9
$OLESTARTUP
290
0
  9
$SORTENTS
280
127
  9
$INDEXCTL
280
0
  9
$HIDETEXT
280
1
  9
$XCLIPFRAME
280
1
  9
$HALOGAP
280
0
  9
$OBSCOLOR
 70
257
  9
$OBSLTYPE
280
0
  9
$INTERSECTIONDISPLAY
280
0
  9
$INTERSECTIONCOLOR
 70
257
  9
$DIMASSOC
280
2
  9
$PROJECTNAME
  1

  9
$CAMERADISPLAY
290
0
  9
$LENSLENGTH
 40
50.0
  9
$CAMERAHEIGHT
 40
0.0
  9
$STEPSPERSEC
 40
24.0
  9
$STEPSIZE
 40
100.0
  9
$3DDWFPREC
 40
2.0
  9
$PSOLWIDTH
 40
0.005
  9
$PSOLHEIGHT
 40
0.08
  9
$LOFTANG1
 40
1.570796326795
  9
$LOFTANG2
 40
1.570796326795
  9
$LOFTMAG1
 40
0.0
  9
$LOFTMAG2
 40
0.0
  9
$LOFTPARAM
 70
7
  9
$LOFTNORMALS
280
1
  9
$LATITUDE
 40
37.795
  9
$LONGITUDE
 40
-122.394
  9
$NORTHDIRECTION
 40
0.0
  9
$TIMEZONE
 70
-8000
  9
$LIGHTGLYPHDISPLAY
280
1
  9
$TILEMODELIGHTSYNCH
280
1
  9
$CMATERIAL
347
20
  9
$SOLIDHIST
280
0
  9
$SHOWHIST
280
1
  9
$DWFFRAME
280
2
  9
$DGNFRAME
280
2
  9
$REALWORLDSCALE
290
1
  9
$INTERFERECOLOR
 62
256
  9
$CSHADOW
280
0
  9
$SHADOWPLANELOCATION
 40
0.0
  0
ENDSEC
  0
SECTION
  2
CLASSES
  0
CLASS
  1
ACDBDICTIONARYWDFLT
  2
AcDbDictionaryWithDefault
  3
ObjectDBX Classes
 90
0
 91
0
280
0
281
0
  0
CLASS
  1
SUN
  2
AcDbSun
  3
SCENEOE
 90
1153
 91
0
280
0
281
0
  0
CLASS
  1
VISUALSTYLE
  2
AcDbVisualStyle
  3
ObjectDBX Classes
 90
4095
 91
0
280
0
281
0
  0
CLASS
  1
MATERIAL
  2
AcDbMaterial
  3
ObjectDBX Classes
 90
1153
 91
0
280
0
281
0
  0
CLASS
  1
SCALE
  2
AcDbScale
  3
ObjectDBX Classes
 90
1153
 91
0
280
0
281
0
  0
CLASS
  1
TABLESTYLE
  2
AcDbTableStyle
  3
ObjectDBX Classes
 90
4095
 91
0
280
0
281
0
  0
CLASS
  1
MLEADERSTYLE
  2
AcDbMLeaderStyle
  3
ACDB_MLEADERSTYLE_CLASS
 90
4095
 91
0
280
0
281
0
  0
CLASS
  1
DICTIONARYVAR
  2
AcDbDictionaryVar
  3
ObjectDBX Classes
 90
0
 91
0
280
0
281
0
  0
CLASS
  1
CELLSTYLEMAP
  2
AcDbCellStyleMap
  3
ObjectDBX Classes
 90
1152
 91
0
280
0
281
0
  0
CLASS
  1
MENTALRAYRENDERSETTINGS
  2
AcDbMentalRayRenderSettings
  3
SCENEOE
 90
1024
 91
0
280
0
281
0
  0
CLASS
  1
ACDBDETAILVIEWSTYLE
  2
AcDbDetailViewStyle
  3
ObjectDBX Classes
 90
1025
 91
0
280
0
281
0
  0
CLASS
  1
ACDBSECTIONVIEWSTYLE
  2
AcDbSectionViewStyle
  3
ObjectDBX Classes
 90
1025
 91
0
280
0
281
0
  0
CLASS
  1
RASTERVARIABLES
  2
AcDbRasterVariables
  3
ISM
 90
0
 91
0
280
0
281
0
  0
CLASS
  1
LAYOUT
  2
AcDbLayout
  3
ObjectDBX Classes
 90
0
 91
0
280
0
281
0
  0
CLASS
  1
ACDBPLACEHOLDER
  2
AcDbPlaceHolder
  3
ObjectDBX Classes
 90
0
 91
0
280
0
281
0
  0
ENDSEC
  0
SECTION
  2
TABLES
  0
TABLE
  2
VPORT
  5
8
330
0
100
AcDbSymbolTable
 70
1
  0
VPORT
  5
23
330
8
100
AcDbSymbolTableRecord
100
AcDbViewportTableRecord
  2
*Active
 70
0
 10
0.0
 20
0.0
 11
1.0
 21
1.0
 12
0.0
 22
0.0
 13
0.0
 23
0.0
 14
0.5
 24
0.5
 15
0.5
 25
0.5
 16
0.0
 26
0.0
 36
1.0
 17
0.0
 27
0.0
 37
0.0
 40
1000.0
 41
1.34
 42
50.0
 43
0.0
 44
0.0
 50
0.0
 51
0.0
 71
0
 72
1000
 73
1
 74
3
 75
0
 76
0
 77
0
 78
0
281
0
 65
0
146
0.0
  0
ENDTAB
  0
TABLE
  2
LTYPE
  5
2
330
0
100
AcDbSymbolTable
 70
3
  0
LTYPE
  5
24
330
2
100
AcDbSymbolTableRecord
100
AcDbLinetypeTableRecord
  2
ByBlock
 70
0
  3

 72
65
 73
0
 40
0.0
  0
LTYPE
  5
25
330
2
100
AcDbSymbolTableRecord
100
AcDbLinetypeTableRecord
  2
ByLayer
 70
0
  3

 72
65
 73
0
 40
0.0
  0
LTYPE
  5
26
330
2
100
AcDbSymbolTableRecord
100
AcDbLinetypeTableRecord
  2
Continuous
 70
0
  3

 72
65
 73
0
 40
0.0
  0
ENDTAB
  0
TABLE
  2
LAYER
  5
1
330
0
100
AcDbSymbolTable
 70
8
  0
LAYER
  5
27
330
1
100
AcDbSymbolTableRecord
100
AcDbLayerTableRecord
  2
0
 70
0
 62
7
  6
Continuous
370
-3
390
13
347
21
  0
LAYER
  5
28
330
1
100
AcDbSymbolTableRecord
100
AcDbLayerTableRecord
  2
Defpoints
 70
0
 62
7
  6
Continuous
290
0
370
-3
390
13
347
21
  0
LAYER
  5
2F
330
1
100
AcDbSymbolTableRecord
100
AcDbLayerTableRecord
  2
SILT_FENCE
 70
0
 62
3
  6
Continuous
370
-3
390
13
347
21
  0
LAYER
  5
30
330
1
100
AcDbSymbolTableRecord
100
AcDbLayerTableRecord
  2
SILT_POINTS
 70
0
 62
2
  6
Continuous
370
-3
390
13
347
21
  0
LAYER
  5
31
330
1
100
AcDbSymbolTableRecord
100
AcDbLayerTableRecord
  2
SANITARY_ALIGN
 70
0
 62
1
  6
Continuous
370
-3
390
13
347
21
  0
LAYER
  5
32
330
1
100
AcDbSymbolTableRecord
100
AcDbLayerTableRecord
  2
SANITARY_OFFSET
 70
0
 62
6
  6
Continuous
370
-3
390
13
347
21
  0
LAYER
  5
33
330
1
100
AcDbSymbolTableRecord
100
AcDbLayerTableRecord
  2
SANITARY_BORE
 70
0
 62
5
  6
Continuous
370
-3
390
13
347
21
  0
LAYER
  5
34
330
1
100
AcDbSymbolTableRecord
100
AcDbLayerTableRecord
  2
SANITARY_OTHER
 70
0
 62
4
  6
Continuous
370
-3
390
13
347
21
  0
ENDTAB
  0
TABLE
  2
STYLE
  5
5
330
0
100
AcDbSymbolTable
 70
1
  0
STYLE
  5
29
330
5
100
AcDbSymbolTableRecord
100
AcDbTextStyleTableRecord
  2
Standard
 70
0
 40
0.0
 41
1.0
 50
0.0
 71
0
 42
2.5
  3
txt
  4

  0
ENDTAB
  0
TABLE
  2
VIEW
  5
7
330
0
100
AcDbSymbolTable
 70
0
  0
ENDTAB
  0
TABLE
  2
UCS
  5
6
330
0
100
AcDbSymbolTable
 70
0
  0
ENDTAB
  0
TABLE
  2
APPID
  5
3
330
0
100
AcDbSymbolTable
 70
3
  0
APPID
  5
2A
330
3
100
AcDbSymbolTableRecord
100
AcDbRegAppTableRecord
  2
ACAD
 70
0
  0
APPID
  5
15F
330
3
100
AcDbSymbolTableRecord
100
AcDbRegAppTableRecord
  2
HATCHBACKGROUNDCOLOR
 70
0
  0
APPID
  5
160
330
3
100
AcDbSymbolTableRecord
100
AcDbRegAppTableRecord
  2
EZDXF
 70
0
  0
ENDTAB
  0
TABLE
  2
DIMSTYLE
  5
4
330
0
100
AcDbSymbolTable
 70
1
100
AcDbDimStyleTable
  0
DIMSTYLE
105
2B
330
4
100
AcDbSymbolTableRecord
100
AcDbDimStyleTableRecord
  2
Standard
 70
0
 40
1.0
 41
2.5
 42
0.625
 43
3.75
 44
1.25
 45
0.0
 46
0.0
 47
0.0
 48
0.0
 49
2.5
140
2.5
141
2.5
142
0.0
143
0.03937007874
144
1.0
145
0.0
146
1.0
147
0.625
148
0.0
 69
0
 70
0
 71
0
 72
0
 73
0
 74
0
 75
0
 76
0
 77
1
 78
8
 79
3
170
0
171
3
172
1
173
0
174
0
175
0
176
0
177
0
178
0
179
2
271
2
272
2
273
2
274
3
275
0
276
0
277
2
278
44
279
0
280
0
281
0
282
0
283
0
284
8
285
0
286
0
288
0
289
3
290
0
371
-2
372
-2
  0
ENDTAB
  0
TABLE
  2
BLOCK_RECORD
  5
9
330
0
100
AcDbSymbolTable
 70
2
  0
BLOCK_RECORD
  5
17
330
9
100
AcDbSymbolTableRecord
100
AcDbBlockTableRecord
  2
*Model_Space
340
1A
 70
0
280
1
281
0
  0
BLOCK_RECORD
  5
1B
330
9
100
AcDbSymbolTableRecord
100
AcDbBlockTableRecord
  2
*Paper_Space
340
1E
 70
0
280
1
281
0
  0
ENDTAB
  0
ENDSEC
  0
SECTION
  2
BLOCKS
  0
BLOCK
  5
18
330
17
100
AcDbEntity
  8
0
100
AcDbBlockBegin
  2
*Model_Space
 70
0
 10
0.0
 20
0.0
 30
0.0
  3
*Model_Space
  1

  0
ENDBLK
  5
19
330
17
100
AcDbEntity
  8
0
100
AcDbBlockEnd
  0
BLOCK
  5
1C
330
1B
100
AcDbEntity
  8
0
100
AcDbBlockBegin
  2
*Paper_Space
 70
0
 10
0.0
 20
0.0
 30
0.0
  3
*Paper_Space
  1

  0
ENDBLK
  5
1D
330
1B
100
AcDbEntity
  8
0
100
AcDbBlockEnd
  0
ENDSEC
  0
SECTION
  2
ENTITIES
  0
POINT
  5
35
330
17
100
AcDbEntity
  8
SILT_POINTS
100
AcDbPoint
 10
2488675.3548
 20
415370.1508
 30
0.0
  0
LWPOLYLINE
  5
36
330
17
100
AcDbEntity
  8
SILT_FENCE
100
AcDbPolyline
 90
10
 70
0
 10
2488590.4401
 20
415422.8397
 10
2488581.947
 20
415453.4712
 10
2488582.6999
 20
415464.2537
 10
2488600.5827
 20
415483.4897
 10
2488782.4694
 20
415404.4756
 10
2488785.0424
 20
415538.18
 10
2488746.5447
 20
415562.547
 10
2488650.0828
 20
415560.0746
 10
2488578.3943
 20
415570.2964
 10
2488525.1732
 20
415573.1631
  0
POINT
  5
37
330
17
100
AcDbEntity
  8
SILT_POINTS
100
AcDbPoint
 10
2488590.4401
 20
415422.8397
 30
0.0
  0
POINT
  5
38
330
17
100
AcDbEntity
  8
SILT_POINTS
100
AcDbPoint
 10
2488581.947
 20
415453.4712
 30
0.0
  0
POINT
  5
39
330
17
100
AcDbEntity
  8
SILT_POINTS
100
AcDbPoint
 10
2488582.6999
 20
415464.2537
 30
0.0
  0
POINT
  5
3A
330
17
100
AcDbEntity
  8
SILT_POINTS
100
AcDbPoint
 10
2488600.5827
 20
415483.4897
 30
0.0
  0
POINT
  5
3B
330
17
100
AcDbEntity
  8
SILT_POINTS
100
AcDbPoint
 10
2488782.4694
 20
415404.4756
 30
0.0
  0
POINT
  5
3C
330
17
100
AcDbEntity
  8
SILT_POINTS
100
AcDbPoint
 10
2488785.0424
 20
415538.18
 30
0.0
  0
POINT
  5
3D
330
17
100
AcDbEntity
  8
SILT_POINTS
100
AcDbPoint
 10
2488746.5447
 20
415562.547
 30
0.0
  0
POINT
  5
3E
330
17
100
AcDbEntity
  8
SILT_POINTS
100
AcDbPoint
 10
2488650.0828
 20
415560.0746
 30
0.0
  0
POINT
  5
3F
330
17
100
AcDbEntity
  8
SILT_POINTS
100
AcDbPoint
 10
2488578.3943
 20
415570.2964
 30
0.0
  0
POINT
  5
40
330
17
100
AcDbEntity
  8
SILT_POINTS
100
AcDbPoint
 10
2488525.1732
 20
415573.1631
 30
0.0
  0
LWPOLYLINE
  5
41
330
17
100
AcDbEntity
  8
SILT_FENCE
100
AcDbPolyline
 90
5
 70
0
 10
2488548.8568
 20
415476.0081
 10
2488571.1314
 20
415469.6629
 10
2488569.7561
 20
415442.886
 10
2488553.0194
 20
415436.2293
 10
2488548.6215
 20
415341.5318
  0
POINT
  5
42
330
17
100
AcDbEntity
  8
SILT_POINTS
100
AcDbPoint
 10
2488548.8568
 20
415476.0081
 30
0.0
  0
POINT
  5
43
330
17
100
AcDbEntity
  8
SILT_POINTS
100
AcDbPoint
 10
2488571.1314
 20
415469.6629
 30
0.0
  0
POINT
  5
44
330
17
100
AcDbEntity
  8
SILT_POINTS
100
AcDbPoint
 10
2488569.7561
 20
415442.886
 30
0.0
  0
POINT
  5
45
330
17
100
AcDbEntity
  8
SILT_POINTS
100
AcDbPoint
 10
2488553.0194
 20
415436.2293
 30
0.0
  0
POINT
  5
46
330
17
100
AcDbEntity
  8
SILT_POINTS
100
AcDbPoint
 10
2488548.6215
 20
415341.5318
 30
0.0
  0
LWPOLYLINE
  5
47
330
17
100
AcDbEntity
  8
SANITARY_ALIGN
100
AcDbPolyline
 90
12
 70
0
 10
2488731.5685
 20
415172.2261
 10
2488612.2126
 20
415326.0087
 10
2488522.5134
 20
415693.9729
 10
2488600.4046
 20
415850.5176
 10
2488700.701
 20
416052.0919
 10
2488982.7251
 20
416232.9887
 10
2489220.9975
 20
416281.1034
 10
2489387.1654
 20
416420.7701
 10
2489460.4519
 20
416574.8989
 10
2489463.6122
 20
416788.5305
 10
2489660.6335
 20
416805.2846
 10
2489897.1137
 20
416805.231
  0
LWPOLYLINE
  5
48
330
17
100
AcDbEntity
  8
SANITARY_ALIGN
100
AcDbPolyline
 90
4
 70
0
 10
2489897.1137
 20
416805.231
 10
2489897.1945
 20
416571.8866
 10
2489897.2754
 20
416338.6907
 10
2489897.362
 20
416088.6907
  0
LWPOLYLINE
  5
49
330
17
100
AcDbEntity
  8
SANITARY_ALIGN
100
AcDbPolyline
 90
2
 70
0
 10
2489897.1137
 20
416805.231
 10
2489897.0075
 20
417111.3756
  0
LINE
  5
4A
330
17
100
AcDbEntity
  8
SANITARY_BORE
100
AcDbLine
 10
2488604.9014
 20
415356.001
 30
0.0
 11
2488557.5341
 21
415550.311
 31
0.0
  0
LINE
  5
4B
330
17
100
AcDbEntity
  8
SANITARY_BORE
100
AcDbLine
 10
2489693.4255
 20
416805.2565
 30
0.0
 11
2489773.4254
 21
416805.1882
 31
0.0
  0
POINT
  5
4C
330
17
100
AcDbEntity
  8
SANITARY_ALIGN
100
AcDbPoint
 10
2488731.5685
 20
415172.2261
 30
825.13
  0
POINT
  5
4D
330
17
100
AcDbEntity
  8
SANITARY_OFFSET
100
AcDbPoint
 10
2488751.318
 20
415187.5543
 30
0.0
  0
POINT
  5
4E
330
17
100
AcDbEntity
  8
SANITARY_ALIGN
100
AcDbPoint
 10
2488612.2126
 20
415326.0087
 30
825.52
  0
POINT
  5
4F
330
17
100
AcDbEntity
  8
SANITARY_OFFSET
100
AcDbPoint
 10
2488589.1887
 20
415314.8993
 30
0.0
  0
POINT
  5
50
330
17
100
AcDbEntity
  8
SANITARY_OFFSET
100
AcDbPoint
 10
2488635.2365
 20
415337.1182
 30
0.0
  0
POINT
  5
51
330
17
100
AcDbEntity
  8
SANITARY_BORE
100
AcDbPoint
 10
2488604.9014
 20
415356.001
 30
0.0
  0
POINT
  5
52
330
17
100
AcDbEntity
  8
SANITARY_BORE
100
AcDbPoint
 10
2488557.5341
 20
415550.311
 30
0.0
  0
POINT
  5
53
330
17
100
AcDbEntity
  8
SANITARY_ALIGN
100
AcDbPoint
 10
2488522.5134
 20
415693.9729
 30
826.38
  0
POINT
  5
54
330
17
100
AcDbEntity
  8
SANITARY_OFFSET
100
AcDbPoint
 10
2488548.9662
 20
415691.0166
 30
0.0
  0
POINT
  5
55
330
17
100
AcDbEntity
  8
SANITARY_ALIGN
100
AcDbPoint
 10
2488600.4046
 20
415850.5176
 30
826.98
  0
POINT
  5
56
330
17
100
AcDbEntity
  8
SANITARY_OFFSET
100
AcDbPoint
 10
2488622.7871
 20
415839.3809
 30
0.0
  0
POINT
  5
57
330
17
100
AcDbEntity
  8
SANITARY_ALIGN
100
AcDbPoint
 10
2488588.7427
 20
415858.2634
 30
0.0
  0
POINT
  5
58
330
17
100
AcDbEntity
  8
SANITARY_ALIGN
100
AcDbPoint
 10
2488700.701
 20
416052.0919
 30
827.53
  0
POINT
  5
59
330
17
100
AcDbEntity
  8
SANITARY_OFFSET
100
AcDbPoint
 10
2488720.0086
 20
416034.7754
 30
0.0
  0
POINT
  5
5A
330
17
100
AcDbEntity
  8
SANITARY_ALIGN
100
AcDbPoint
 10
2488982.7251
 20
416232.9887
 30
828.45
  0
POINT
  5
5B
330
17
100
AcDbEntity
  8
SANITARY_OFFSET
100
AcDbPoint
 10
2488992.273
 20
416209.4121
 30
0.0
  0
POINT
  5
5C
330
17
100
AcDbEntity
  8
SANITARY_ALIGN
100
AcDbPoint
 10
2489220.9975
 20
416281.1034
 30
829.04
  0
POINT
  5
5D
330
17
100
AcDbEntity
  8
SANITARY_OFFSET
100
AcDbPoint
 10
2489232.1993
 20
416257.8608
 30
0.0
  0
POINT
  5
5E
330
17
100
AcDbEntity
  8
SANITARY_ALIGN
100
AcDbPoint
 10
2489387.1654
 20
416420.7701
 30
829.72
  0
POINT
  5
5F
330
17
100
AcDbEntity
  8
SANITARY_OFFSET
100
AcDbPoint
 10
2489407.41
 20
416405.1281
 30
0.0
  0
POINT
  5
60
330
17
100
AcDbEntity
  8
SANITARY_ALIGN
100
AcDbPoint
 10
2489460.4519
 20
416574.8989
 30
830.16
  0
POINT
  5
61
330
17
100
AcDbEntity
  8
SANITARY_OFFSET
100
AcDbPoint
 10
2489485.3685
 20
416569.0827
 30
0.0
  0
POINT
  5
62
330
17
100
AcDbEntity
  8
SANITARY_ALIGN
100
AcDbPoint
 10
2489463.6122
 20
416788.5305
 30
830.69
  0
POINT
  5
63
330
17
100
AcDbEntity
  8
SANITARY_ALIGN
100
AcDbPoint
 10
2489452.0653
 20
416796.4469
 30
0.0
  0
POINT
  5
64
330
17
100
AcDbEntity
  8
SANITARY_ALIGN
100
AcDbPoint
 10
2489660.6335
 20
416805.2846
 30
830.69
  0
POINT
  5
65
330
17
100
AcDbEntity
  8
SANITARY_OFFSET
100
AcDbPoint
 10
2489661.6839
 20
416780.2837
 30
0.0
  0
POINT
  5
66
330
17
100
AcDbEntity
  8
SANITARY_OFFSET
100
AcDbPoint
 10
2489659.5831
 20
416830.2855
 30
0.0
  0
POINT
  5
67
330
17
100
AcDbEntity
  8
SANITARY_BORE
100
AcDbPoint
 10
2489693.4255
 20
416805.2565
 30
0.0
  0
POINT
  5
68
330
17
100
AcDbEntity
  8
SANITARY_BORE
100
AcDbPoint
 10
2489773.4254
 20
416805.1882
 30
0.0
  0
POINT
  5
69
330
17
100
AcDbEntity
  8
SANITARY_ALIGN
100
AcDbPoint
 10
2489897.1137
 20
416805.231
 30
831.92
  0
POINT
  5
6A
330
17
100
AcDbEntity
  8
SANITARY_ALIGN
100
AcDbPoint
 10
2489897.0075
 20
417111.3756
 30
833.25
  0
POINT
  5
6B
330
17
100
AcDbEntity
  8
SANITARY_ALIGN
100
AcDbPoint
 10
2489897.1945
 20
416571.8866
 30
833.73
  0
POINT
  5
6C
330
17
100
AcDbEntity
  8
SANITARY_OFFSET
100
AcDbPoint
 10
2489872.1945
 20
416571.8779
 30
0.0
  0
POINT
  5
6D
330
17
100
AcDbEntity
  8
SANITARY_ALIGN
100
AcDbPoint
 10
2489897.2754
 20
416338.6907
 30
834.81
  0
POINT
  5
6E
330
17
100
AcDbEntity
  8
SANITARY_ALIGN
100
AcDbPoint
 10
2489872.2754
 20
416338.4782
 30
0.0
  0
POINT
  5
6F
330
17
100
AcDbEntity
  8
SANITARY_ALIGN
100
AcDbPoint
 10
2489897.362
 20
416088.6907
 30
836.28
  0
POINT
  5
70
330
17
100
AcDbEntity
  8
SANITARY_OFFSET
100
AcDbPoint
 10
2489872.362
 20
416088.682
 30
0.0
  0
LWPOLYLINE
  5
71
330
17
100
AcDbEntity
  8
SANITARY_CLEAR_ZONE
100
AcDbPolyline
 90
4
 70
0
 10
2489118.8358016293
 20
415739.5719256012
 10
2489120.19397892
 20
415736.6754259819
 10
2489157.6455117217
 20
415760.4199288975
 10
2489118.8358016293
 20
415739.5719256012
  0
LWPOLYLINE
  5
72
330
17
100
AcDbEntity
  8
SANITARY_CLEAR_ZONE
100
AcDbPolyline
 90
4
 70
0
 10
2489120.19397892
 20
415736.6754259819
 10
2489157.6455117217
 20
415760.4199288975
 10
2489159.0036890125
 20
415757.5234292783
 10
2489120.19397892
 20
415736.6754259819
  0
LWPOLYLINE
  5
73
330
17
100
AcDbEntity
  8
SANITARY_CLEAR_ZONE
100
AcDbPolyline
 90
5
 70
0
 10
2489180.8427085388
 20
415758.0466404856
 10
2489179.3944587293
 20
415757.3675518402
 10
2489155.788315923
 20
415771.9164936958
 10
2489156.8519851505
 20
415771.53191311366
 10
2489180.8427085388
 20
415758.0466404856
  0
LWPOLYLINE
  5
74
330
17
100
AcDbEntity
  8
SANITARY_CLEAR_ZONE
100
AcDbPolyline
 90
4
 70
0
 10
2489170.271280151
 20
415778.7078233743
 10
2489168.8229325335
 20
415778.0284642128
 10
2489167.4235113463
 20
415750.8710007411
 10
2489170.271280151
 20
415778.7078233743
  0
LWPOLYLINE
  5
75
330
17
100
AcDbEntity
  8
SANITARY_CLEAR_ZONE
100
AcDbPolyline
 90
4
 70
0
 10
2489175.7944072494
 20
415770.69667651405
 10
2489177.15258454
 20
415767.8001768948
 10
2489184.484101723
 20
415774.77174941875
 10
2489175.7944072494
 20
415770.69667651405
  0
LWPOLYLINE
  5
76
330
17
100
AcDbEntity
  8
SANITARY_CLEAR_ZONE
100
AcDbPolyline
 90
4
 70
0
 10
2489177.15258454
 20
415767.8001768948
 10
2489184.484101723
 20
415774.77174941875
 10
2489185.842451722
 20
415771.8748814755
 10
2489177.15258454
 20
415767.8001768948
  0
LWPOLYLINE
  5
77
330
17
100
AcDbEntity
  8
SANITARY_CLEAR_ZONE
100
AcDbPolyline
 90
4
 70
0
 10
2489184.868682305
 20
415775.8354186463
 10
2489185.842451722
 20
415771.8748814755
 10
2489245.541875139
 20
415783.9675809948
 10
2489184.868682305
 20
415775.8354186463
  0
LWPOLYLINE
  5
78
330
17
100
AcDbEntity
  8
SANITARY_CLEAR_ZONE
100
AcDbPolyline
 90
4
 70
0
 10
2489185.842451722
 20
415771.8748814755
 10
2489245.541875139
 20
415783.9675809948
 10
2489246.5153740398
 20
415780.00714163197
 10
2489185.842451722
 20
415771.8748814755
  0
LINE
  5
79
330
17
100
AcDbEntity
  8
SANITARY_CLEAR_ZONE
100
AcDbLine
 10
2489245.541875139
 20
415783.9675809948
 30
0.0
 11
2489246.5153740398
 21
415780.00714163197
 31
0.0
  0
LWPOLYLINE
  5
7A
330
17
100
AcDbEntity
  8
SANITARY_CLEAR_ZONE
100
AcDbPolyline
 90
5
 70
0
 10
2489266.726171427
 20
415772.69971934054
 10
2489265.6625021994
 20
415773.08429992263
 10
2489247.939528958
 20
415793.9254551407
 10
2489249.3877787674
 20
415794.60454378615
 10
2489266.726171427
 20
415772.69971934054
  0
LWPOLYLINE
  5
7B
330
17
100
AcDbEntity
  8
SANITARY_CLEAR_ZONE
100
AcDbPolyline
 90
5
 70
0
 10
2489250.2057685545
 20
415770.2535074149
 10
2489261.9480127934
 20
415796.07715900306
 10
2489263.396262603
 20
415796.7562476485
 10
2489251.654018364
 20
415770.93259606033
 10
2489250.2057685545
 20
415770.2535074149
  0
LWPOLYLINE
  5
7C
330
17
100
AcDbEntity
  8
SANITARY_CLEAR_ZONE
100
AcDbPolyline
 90
4
 70
0
 10
2489265.638136792
 20
415786.32362259383
 10
2489266.611635693
 20
415782.363183231
 10
2489273.1742622275
 20
415787.207319492
 10
2489265.638136792
 20
415786.32362259383
  0
LWPOLYLINE
  5
7D
330
17
100
AcDbEntity
  8
SANITARY_CLEAR_ZONE
100
AcDbPolyline
 90
4
 70
0
 10
2489266.611635693
 20
415782.363183231
 10
2489273.1742622275
 20
415787.207319492
 10
2489274.1477611284
 20
415783.24688012915
 10
2489266.611635693
 20
415782.363183231
  0
LWPOLYLINE
  5
7E
330
17
100
AcDbEntity
  8
SANITARY_CLEAR_ZONE
100
AcDbPolyline
 90
4
 70
0
 10
2489274.237931455
 20
415786.8227389099
 10
2489273.084091901
 20
415783.63146071124
 10
2489336.9726578244
 20
415777.3705586423
 10
2489274.237931455
 20
415786.8227389099
  0
LWPOLYLINE
  5
7F
330
17
100
AcDbEntity
  8
SANITARY_CLEAR_ZONE
100
AcDbPolyline
 90
4
 70
0
 10
2489273.084091901
 20
415783.63146071124
 10
2489336.9726578244
 20
415777.3705586423
 10
2489336.20349666
 20
415775.24322018726
 10
2489273.084091901
 20
415783.63146071124
  0
LWPOLYLINE
  5
80
330
17
100
AcDbEntity
  8
SANITARY_CLEAR_ZONE
100
AcDbPolyline
 90
5
 70
0
 10
2489354.1064422308
 20
415761.5536098225
 10
2489353.042773003
 20
415761.9381904046
 10
2489341.8822795846
 20
415787.62307610956
 10
2489342.945948812
 20
415787.2384955275
 10
2489354.1064422308
 20
415761.5536098225
  0
LWPOLYLINE
  5
81
330
17
100
AcDbEntity
  8
SANITARY_CLEAR_ZONE
100
AcDbPolyline
 90
5
 70
0
 10
2489338.060790267
 20
415763.7469259051
 10
2489356.479730643
 20
415784.7508066396
 10
2489357.9279804523
 20
415785.429895285
 10
2489339.1244594944
 20
415763.362345323
 10
2489338.060790267
 20
415763.7469259051
  0
LWPOLYLINE
  5
82
330
17
100
AcDbEntity
  8
SANITARY_CLEAR_ZONE
100
AcDbPolyline
 90
4
 70
0
 10
2489356.5942174727
 20
415775.0872074911
 10
2489356.504144954
 20
415771.5116192264
 10
2489427.159577341
 20
415764.00680508453
 10
2489356.5942174727
 20
415775.0872074911
  0
LWPOLYLINE
  5
83
330
17
100
AcDbEntity
  8
SANITARY_CLEAR_ZONE
100
AcDbPolyline
 90
3
 70
0
 10
2489427.454085404
 20
415761.4948860474
 10
2489356.504144954
 20
415771.5116192264
 10
2489427.159577341
 20
415764.00680508453
  0
LWPOLYLINE
  5
84
330
17
100
AcDbEntity
  8
SANITARY_CLEAR_ZONE
100
AcDbPolyline
 90
4
 70
0
 10
2488976.290105648
 20
416216.8902014857
 10
2488979.4811133305
 20
416215.7364597394
 10
2489001.3130142624
 20
416272.7924520882
 10
2488976.290105648
 20
416216.8902014857
  0
LWPOLYLINE
  5
85
330
17
100
AcDbEntity
  8
SANITARY_CLEAR_ZONE
100
AcDbPolyline
 90
4
 70
0
 10
2488979.4811133305
 20
416215.7364597394
 10
2489001.3130142624
 20
416272.7924520882
 10
2489004.119662975
 20
416270.5748080485
 10
2488979.4811133305
 20
416215.7364597394
  0
LWPOLYLINE
  5
86
330
17
100
AcDbEntity
  8
SANITARY_CLEAR_ZONE
100
AcDbPolyline
 90
5
 70
0
 10
2489022.358458313
 20
416284.42751225363
 10
2489021.973828827
 20
416283.36370776803
 10
2488993.9571805764
 20
416279.0603374935
 10
2488994.3417611583
 20
416280.124006721
 10
2489022.358458313
 20
416284.42751225363
  0
LWPOLYLINE
  5
87
330
17
100
AcDbEntity
  8
SANITARY_CLEAR_ZONE
100
AcDbPolyline
 90
5
 70
0
 10
2489015.9104164164
 20
416269.9200473602
 10
2489000.0208635028
 20
416292.5039000935
 10
2489000.405444085
 20
416293.567569321
 10
2489016.2950459025
 20
416270.9838518458
 10
2489015.9104164164
 20
416269.9200473602
  0
LWPOLYLINE
  5
88
330
17
100
AcDbEntity
  8
SANITARY_CLEAR_ZONE
100
AcDbPolyline
 90
4
 70
0
 10
2489010.363047715
 20
416291.17001330963
 10
2489013.1697453316
 20
416288.95250452793
 10
2489045.908924419
 20
416352.88962855795
 10
2489010.363047715
 20
416291.17001330963
  0
LWPOLYLINE
  5
89
330
17
100
AcDbEntity
  8
SANITARY_CLEAR_ZONE
100
AcDbPolyline
 90
4
 70
0
 10
2489013.1697453316
 20
416288.95250452793
 10
2489045.908924419
 20
416352.88962855795
 10
2489048.7156220353
 20
416350.67211977625
 10
2489013.1697453316
 20
416288.95250452793
  0
LWPOLYLINE
  5
8A
330
17
100
AcDbEntity
  8
SANITARY_CLEAR_ZONE
100
AcDbPolyline
 90
5
 70
0
 10
2489066.5697878874
 20
416363.4610194958
 10
2489066.1852073055
 20
416362.3973502683
 10
2489037.874050991
 20
416360.60589903087
 10
2489039.322300801
 20
416361.2849876763
 10
2489066.5697878874
 20
416363.4610194958
  0
LWPOLYLINE
  5
8B
330
17
100
AcDbEntity
  8
SANITARY_CLEAR_ZONE
100
AcDbPolyline
 90
5
 70
0
 10
2489059.0581256673
 20
416349.33827044256
 10
2489046.065072373
 20
416373.2803004667
 10
2489046.449652955
 20
416374.34396969416
 10
2489059.442706249
 20
416350.4019396701
 10
2489059.0581256673
 20
416349.33827044256
  0
LWPOLYLINE
  5
8C
330
17
100
AcDbEntity
  8
SANITARY_CLEAR_ZONE
100
AcDbPolyline
 90
4
 70
0
 10
2489056.022946519
 20
416370.8826466474
 10
2489058.4450146495
 20
416367.60133338015
 10
2489110.82989718
 20
416416.0160166537
 10
2489056.022946519
 20
416370.8826466474
  0
LWPOLYLINE
  5
8D
330
17
100
AcDbEntity
  8
SANITARY_CLEAR_ZONE
100
AcDbPolyline
 90
4
 70
0
 10
2489058.4450146495
 20
416367.60133338015
 10
2489110.82989718
 20
416416.0160166537
 10
2489113.636324281
 20
416413.7986056799
 10
2489058.4450146495
 20
416367.60133338015
  0
LWPOLYLINE
  5
8E
330
17
100
AcDbEntity
  8
SANITARY_CLEAR_ZONE
100
AcDbPolyline
 90
5
 70
0
 10
2489134.501796002
 20
416418.28212099196
 10
2489134.11721542
 20
416417.21845176443
 10
2489107.139822086
 20
416425.7696883209
 10
2489107.524402668
 20
416426.83335754846
 10
2489134.501796002
 20
416418.28212099196
  0
LWPOLYLINE
  5
8F
330
17
100
AcDbEntity
  8
SANITARY_CLEAR_ZONE
100
AcDbPolyline
 90
5
 70
0
 10
2489122.4406782924
 20
416408.20971111214
 10
2489118.1372216637
 20
416436.2265435249
 10
2489119.5855203774
 20
416436.90576742834
 10
2489122.8253077785
 20
416409.2735155977
 10
2489122.4406782924
 20
416408.20971111214
  0
LWPOLYLINE
  5
90
330
17
100
AcDbEntity
  8
SANITARY_CLEAR_ZONE
100
AcDbPolyline
 90
4
 70
0
 10
2489126.5569950934
 20
416429.5739797296
 10
2489128.9788416116
 20
416426.2928995282
 10
2489187.271529631
 20
416467.7603756852
 10
2489126.5569950934
 20
416429.5739797296
  0
LWPOLYLINE
  5
91
330
17
100
AcDbEntity
  8
SANITARY_CLEAR_ZONE
100
AcDbPolyline
 90
4
 70
0
 10
2489128.9788416116
 20
416426.2928995282
 10
2489187.271529631
 20
416467.7603756852
 10
2489189.6933761495
 20
416464.47929548385
 10
2489128.9788416116
 20
416426.2928995282
  0
LWPOLYLINE
  5
92
330
17
100
AcDbEntity
  8
SANITARY_CLEAR_ZONE
100
AcDbPolyline
 90
5
 70
0
 10
2489210.8533070306
 20
416466.45075650077
 10
2489210.4687264482
 20
416465.38708727324
 10
2489184.6451237644
 20
416477.12946677033
 10
2489186.093373574
 20
416477.8085554158
 10
2489210.8533070306
 20
416466.45075650077
  0
LWPOLYLINE
  5
93
330
17
100
AcDbEntity
  8
SANITARY_CLEAR_ZONE
100
AcDbPolyline
 90
4
 70
0
 10
2489198.833531025
 20
416486.43258022796
 10
2489197.3852812154
 20
416485.7534915825
 10
2489198.113149579
 20
416457.8267316886
 10
2489198.833531025
 20
416486.43258022796
  0
LWPOLYLINE
  5
94
330
17
100
AcDbEntity
  8
SANITARY_CLEAR_ZONE
100
AcDbPolyline
 90
4
 70
0
 10
2489204.3568048356
 20
416478.4218391418
 10
2489206.7786024497
 20
416475.14062368247
 10
2489219.608930228
 20
416487.34050727537
 10
2489204.3568048356
 20
416478.4218391418
  0
LWPOLYLINE
  5
95
330
17
100
AcDbEntity
  8
SANITARY_CLEAR_ZONE
100
AcDbPolyline
 90
4
 70
0
 10
2489206.7786024497
 20
416475.14062368247
 10
2489219.608930228
 20
416487.34050727537
 10
2489222.030998358
 20
416484.0591940081
 10
2489206.7786024497
 20
416475.14062368247
  0
LWPOLYLINE
  5
96
330
17
100
AcDbEntity
  8
SANITARY_CLEAR_ZONE
100
AcDbPolyline
 90
4
 70
0
 10
2489219.608930228
 20
416487.34050727537
 10
2489222.4155789404
 20
416485.12286323565
 10
2489241.6695343032
 20
416525.0693991351
 10
2489219.608930228
 20
416487.34050727537
  0
LWPOLYLINE
  5
97
330
17
100
AcDbEntity
  8
SANITARY_CLEAR_ZONE
100
AcDbPolyline
 90
4
 70
0
 10
2489222.4155789404
 20
416485.12286323565
 10
2489241.6695343032
 20
416525.0693991351
 10
2489244.475961404
 20
416522.8519881613
 10
2489222.4155789404
 20
416485.12286323565
  0
LWPOLYLINE
  5
98
330
17
100
AcDbEntity
  8
SANITARY_CLEAR_ZONE
100
AcDbPolyline
 90
4
 70
0
 10
2489244.1814533407
 20
416525.3639071984
 10
2489243.0276626903
 20
416522.1727642578
 10
2489253.075928775
 20
416523.3507361534
 10
2489244.1814533407
 20
416525.3639071984
  0
LWPOLYLINE
  5
99
330
17
100
AcDbEntity
  8
SANITARY_CLEAR_ZONE
100
AcDbPolyline
 90
4
 70
0
 10
2489243.0276626903
 20
416522.1727642578
 10
2489253.075928775
 20
416523.3507361534
 10
2489251.922187029
 20
416520.15972847084
 10
2489243.0276626903
 20
416522.1727642578
  0
LWPOLYLINE
  5
9A
330
17
100
AcDbEntity
  8
SANITARY_CLEAR_ZONE
100
AcDbPolyline
 90
5
 70
0
 10
2489268.761192856
 20
416506.85479649605
 10
2489267.3128941422
 20
416506.1755725926
 10
2489258.664639181
 20
416532.15500381106
 10
2489260.112937894
 20
416532.8342277145
 10
2489268.761192856
 20
416506.85479649605
  0
LWPOLYLINE
  5
9B
330
17
100
AcDbEntity
  8
SANITARY_CLEAR_ZONE
100
AcDbPolyline
 90
4
 70
0
 10
2489254.1637417977
 20
416509.72706596606
 10
2489255.2276815413
 20
416509.34238757606
 10
2489273.2620902387
 20
416529.28273434105
 10
2489254.1637417977
 20
416509.72706596606
  0
LWPOLYLINE
  5
9C
330
17
100
AcDbEntity
  8
SANITARY_CLEAR_ZONE
100
AcDbPolyline
 90
4
 70
0
 10
2489268.556806215
 20
416512.94243905594
 10
2489264.5966373687
 20
416511.96884234715
 10
2489271.886715039
 20
416488.885910748
 10
2489268.556806215
 20
416512.94243905594
  0
LWPOLYLINE
  5
9D
330
17
100
AcDbEntity
  8
SANITARY_CLEAR_ZONE
100
AcDbPolyline
 90
4
 70
0
 10
2489264.5966373687
 20
416511.96884234715
 10
2489271.886715039
 20
416488.885910748
 10
2489268.311126774
 20
416488.9759832668
 10
2489264.5966373687
 20
416511.96884234715
  0
LWPOLYLINE
  5
9E
330
17
100
AcDbEntity
  8
SANITARY_CLEAR_ZONE
100
AcDbPolyline
 90
4
 70
0
 10
2489271.2076263935
 20
416490.3341605576
 10
2489268.990166516
 20
416487.52759819914
 10
2489298.888252169
 20
416467.09558458626
 10
2489271.2076263935
 20
416490.3341605576
  0
LWPOLYLINE
  5
9F
330
17
100
AcDbEntity
  8
SANITARY_CLEAR_ZONE
100
AcDbPolyline
 90
4
 70
0
 10
2489268.990166516
 20
416487.52759819914
 10
2489298.888252169
 20
416467.09558458626
 10
2489296.670792291
 20
416464.28902222775
 10
2489268.990166516
 20
416487.52759819914
  0
LWPOLYLINE
  5
A0
330
17
100
AcDbEntity
  8
SANITARY_CLEAR_ZONE
100
AcDbPolyline
 90
4
 70
0
 10
2489297.8245829414
 20
416467.48016516835
 10
2489297.7344615185
 20
416463.90444164566
 10
2489309.2310263165
 20
416465.76163744467
 10
2489297.8245829414
 20
416467.48016516835
  0
LWPOLYLINE
  5
A1
330
17
100
AcDbEntity
  8
SANITARY_CLEAR_ZONE
100
AcDbPolyline
 90
4
 70
0
 10
2489297.7344615185
 20
416463.90444164566
 10
2489309.2310263165
 20
416465.76163744467
 10
2489308.0772356666
 20
416462.57049450406
 10
2489297.7344615185
 20
416463.90444164566
  0
LWPOLYLINE
  5
A2
330
17
100
AcDbEntity
  8
SANITARY_CLEAR_ZONE
100
AcDbPolyline
 90
5
 70
0
 10
2489326.364761819
 20
416449.9445533668
 10
2489325.3010925916
 20
416450.32913394895
 10
2489313.756018591
 20
416474.95035042637
 10
2489315.204317305
 20
416475.6295743298
 10
2489326.364761819
 20
416449.9445533668
  0
LWPOLYLINE
  5
A3
330
17
100
AcDbEntity
  8
SANITARY_CLEAR_ZONE
100
AcDbPolyline
 90
5
 70
0
 10
2489310.3190609515
 20
416452.1377341914
 10
2489327.6743810037
 20
416473.526330766
 10
2489329.1226797174
 20
416474.20555466943
 10
2489311.382730179
 20
416451.7531536093
 10
2489310.3190609515
 20
416452.1377341914
  0
LWPOLYLINE
  5
A4
330
17
100
AcDbEntity
  8
SANITARY_CLEAR_ZONE
100
AcDbPolyline
 90
4
 70
0
 10
2489328.8525859653
 20
416463.47828629345
 10
2489328.7624645424
 20
416459.90256277076
 10
2489353.1134031056
 20
416460.72028204135
 10
2489328.8525859653
 20
416463.47828629345
  0
LWPOLYLINE
  5
A5
330
17
100
AcDbEntity
  8
SANITARY_CLEAR_ZONE
100
AcDbPolyline
 90
4
 70
0
 10
2489328.7624645424
 20
416459.90256277076
 10
2489353.1134031056
 20
416460.72028204135
 10
2489353.023281683
 20
416457.14455851866
 10
2489328.7624645424
 20
416459.90256277076
  0
LWPOLYLINE
  5
A6
330
17
100
AcDbEntity
  8
SANITARY_CLEAR_ZONE
100
AcDbPolyline
 90
4
 70
0
 10
2489351.665153296
 20
416460.04119339597
 10
2489354.0869509107
 20
416456.75997793657
 10
2489393.3714608154
 20
416482.24764449924
 10
2489351.665153296
 20
416460.04119339597
  0
LWPOLYLINE
  5
A7
330
17
100
AcDbEntity
  8
SANITARY_CLEAR_ZONE
100
AcDbPolyline
 90
4
 70
0
 10
2489354.0869509107
 20
416456.75997793657
 10
2489393.3714608154
 20
416482.24764449924
 10
2489394.7298597186
 20
416479.3509118141
 10
2489354.0869509107
 20
416456.75997793657
  0
LWPOLYLINE
  5
A8
330
17
100
AcDbEntity
  8
SANITARY_CLEAR_ZONE
100
AcDbPolyline
 90
5
 70
0
 10
2489416.5689281486
 20
416479.8742582794
 10
2489416.184298663
 20
416478.81045379385
 10
2489391.5144866286
 20
416493.74397623155
 10
2489392.578155856
 20
416493.35939564946
 10
2489416.5689281486
 20
416479.8742582794
  0
LWPOLYLINE
  5
A9
330
17
100
AcDbEntity
  8
SANITARY_CLEAR_ZONE
100
AcDbPolyline
 90
5
 70
0
 10
2489403.149362632
 20
416472.69844582665
 10
2489404.5491521433
 20
416499.8560820066
 10
2489404.933732725
 20
416500.9197512341
 10
2489404.2130318596
 20
416472.31386524456
 10
2489403.149362632
 20
416472.69844582665
  0
LWPOLYLINE
  5
AA
330
17
100
AcDbEntity
  8
SANITARY_CLEAR_ZONE
100
AcDbPolyline
 90
4
 70
0
 10
2489402.6746606273
 20
416468.05905307643
 10
2489399.0990723628
 20
416468.1491255952
 10
2489403.5583575256
 20
416460.52292764105
 10
2489402.6746606273
 20
416468.05905307643
  0
LWPOLYLINE
  5
AB
330
17
100
AcDbEntity
  8
SANITARY_CLEAR_ZONE
100
AcDbPolyline
 90
4
 70
0
 10
2489399.0990723628
 20
416468.1491255952
 10
2489403.5583575256
 20
416460.52292764105
 10
2489400.66158739
 20
416459.1648481581
 10
2489399.0990723628
 20
416468.1491255952
  0
LWPOLYLINE
  5
AC
330
17
100
AcDbEntity
  8
SANITARY_CLEAR_ZONE
100
AcDbPolyline
 90
4
 70
0
 10
2489404.2374461708
 20
416459.07467783144
 10
2489401.0461679725
 20
416460.2285173856
 10
2489374.575009548
 20
416403.6471781377
 10
2489404.2374461708
 20
416459.07467783144
  0
LWPOLYLINE
  5
AD
330
17
100
AcDbEntity
  8
SANITARY_CLEAR_ZONE
100
AcDbPolyline
 90
4
 70
0
 10
2489401.0461679725
 20
416460.2285173856
 10
2489374.575009548
 20
416403.6471781377
 10
2489371.38373135
 20
416404.80101769185
 10
2489401.0461679725
 20
416460.2285173856
  0
LWPOLYLINE
  5
AE
330
17
100
AcDbEntity
  8
SANITARY_CLEAR_ZONE
100
AcDbPolyline
 90
5
 70
0
 10
2489353.5295654973
 20
416392.01211797225
 10
2489353.9141949834
 20
416393.07592245785
 10
2489382.2253512978
 20
416394.86737369525
 10
2489380.777052584
 20
416394.1881497918
 10
2489353.5295654973
 20
416392.01211797225
  0
LWPOLYLINE
  5
AF
330
17
100
AcDbEntity
  8
SANITARY_CLEAR_ZONE
100
AcDbPolyline
 90
5
 70
0
 10
2489361.0412766216
 20
416406.13500228355
 10
2489375.4828502415
 20
416382.871963097
 10
2489375.0982696596
 20
416381.8082938695
 10
2489360.6566471355
 20
416405.071197798
 10
2489361.0412766216
 20
416406.13500228355
  0
LWPOLYLINE
  5
B0
330
17
100
AcDbEntity
  8
SANITARY_CLEAR_ZONE
100
AcDbPolyline
 90
4
 70
0
 10
2489365.5249760957
 20
416385.26961691625
 10
2489362.333697897
 20
416386.4234564704
 10
2489340.0027295533
 20
416337.9673940426
 10
2489365.5249760957
 20
416385.26961691625
  0
LWPOLYLINE
  5
B1
330
17
100
AcDbEntity
  8
SANITARY_CLEAR_ZONE
100
AcDbPolyline
 90
4
 70
0
 10
2489362.333697897
 20
416386.4234564704
 10
2489340.0027295533
 20
416337.9673940426
 10
2489336.8117218707
 20
416339.12113578885
 10
2489362.333697897
 20
416386.4234564704
  0
LWPOLYLINE
  5
B2
330
17
100
AcDbEntity
  8
SANITARY_CLEAR_ZONE
100
AcDbPolyline
 90
4
 70
0
 10
2489339.618100067
 20
416336.903589557
 10
2489338.25997168
 20
416339.8002244343
 10
2489325.04506332
 20
416326.53667161387
 10
2489339.618100067
 20
416336.903589557
  0
LWPOLYLINE
  5
B3
330
17
100
AcDbEntity
  8
SANITARY_CLEAR_ZONE
100
AcDbPolyline
 90
4
 70
0
 10
2489338.25997168
 20
416339.8002244343
 10
2489325.04506332
 20
416326.53667161387
 10
2489323.6866644174
 20
416329.433404299
 10
2489338.25997168
 20
416339.8002244343
  0
LWPOLYLINE
  5
B4
330
17
100
AcDbEntity
  8
SANITARY_CLEAR_ZONE
100
AcDbPolyline
 90
5
 70
0
 10
2489302.1423745663
 20
416326.39804098866
 10
2489302.5269551487
 20
416327.4617102162
 10
2489328.7351873186
 20
416316.78313520463
 10
2489327.286937509
 20
416316.1040465592
 10
2489302.1423745663
 20
416326.39804098866
  0
LWPOLYLINE
  5
B5
330
17
100
AcDbEntity
  8
SANITARY_CLEAR_ZONE
100
AcDbPolyline
 90
5
 70
0
 10
2489315.267161504
 20
416336.0858702864
 10
2489317.0583796753
 20
416307.7744923602
 10
2489315.6101298654
 20
416307.09540371475
 10
2489313.8188627902
 20
416335.40664638294
 10
2489315.267161504
 20
416336.0858702864
  0
LWPOLYLINE
  5
B6
330
17
100
AcDbEntity
  8
SANITARY_CLEAR_ZONE
100
AcDbPolyline
 90
4
 70
0
 10
2489308.638876762
 20
416314.42695834755
 10
2489307.2807483748
 20
416317.32359322486
 10
2489250.7310398403
 20
416274.0230536103
 10
2489308.638876762
 20
416314.42695834755
  0
LWPOLYLINE
  5
B7
330
17
100
AcDbEntity
  8
SANITARY_CLEAR_ZONE
100
AcDbPolyline
 90
4
 70
0
 10
2489307.2807483748
 20
416317.32359322486
 10
2489250.7310398403
 20
416274.0230536103
 10
2489248.9880114514
 20
416275.8559818099
 10
2489307.2807483748
 20
416317.32359322486
  0
LWPOLYLINE
  5
B8
330
17
100
AcDbEntity
  8
SANITARY_CLEAR_ZONE
100
AcDbPolyline
 90
5
 70
0
 10
2489227.4434510847
 20
416272.8207163074
 10
2489227.8280805703
 20
416273.884520793
 10
2489254.036263837
 20
416263.20581052336
 10
2489252.588014027
 20
416262.526721878
 10
2489227.4434510847
 20
416272.8207163074
  0
LWPOLYLINE
  5
B9
330
17
100
AcDbEntity
  8
SANITARY_CLEAR_ZONE
100
AcDbPolyline
 90
5
 70
0
 10
2489240.568508538
 20
416282.50844779727
 10
2489241.2961063855
 20
416254.5817857112
 10
2489240.9115258036
 20
416253.5181164837
 10
2489239.120258728
 20
416281.82935915183
 10
2489240.568508538
 20
416282.50844779727
  0
LWPOLYLINE
  5
BA
330
17
100
AcDbEntity
  8
SANITARY_CLEAR_ZONE
100
AcDbPolyline
 90
4
 70
0
 10
2489234.324853282
 20
416261.91334034404
 10
2489231.5184261813
 20
416264.13075131783
 10
2489217.918666723
 20
416249.8036270777
 10
2489234.324853282
 20
416261.91334034404
  0
LWPOLYLINE
  5
BB
330
17
100
AcDbEntity
  8
SANITARY_CLEAR_ZONE
100
AcDbPolyline
 90
4
 70
0
 10
2489231.5184261813
 20
416264.13075131783
 10
2489217.918666723
 20
416249.8036270777
 10
2489215.4968691086
 20
416253.0848425371
 10
2489231.5184261813
 20
416264.13075131783
  0
LWPOLYLINE
  5
BC
330
17
100
AcDbEntity
  8
SANITARY_CLEAR_ZONE
100
AcDbPolyline
 90
4
 70
0
 10
2489218.3032962093
 20
416250.86743156327
 10
2489215.4968691086
 20
416253.0848425371
 10
2489181.939970751
 20
416213.49865707045
 10
2489218.3032962093
 20
416250.86743156327
  0
LWPOLYLINE
  5
BD
330
17
100
AcDbEntity
  8
SANITARY_CLEAR_ZONE
100
AcDbPolyline
 90
4
 70
0
 10
2489215.4968691086
 20
416253.0848425371
 10
2489181.939970751
 20
416213.49865707045
 10
2489179.51790262
 20
416216.7799703377
 10
2489215.4968691086
 20
416253.0848425371
  0
LINE
  5
BE
330
17
100
AcDbEntity
  8
SANITARY_CLEAR_ZONE
100
AcDbLine
 10
2489181.939970751
 20
416213.49865707045
 30
0.0
 11
2489179.51790262
 21
416216.7799703377
 31
0.0
  0
LWPOLYLINE
  5
BF
330
17
100
AcDbEntity
  8
SANITARY_CLEAR_ZONE
100
AcDbPolyline
 90
5
 70
0
 10
2489157.8832208305
 20
416210.16898131254
 10
2489159.3314706404
 20
416210.8480699579
 10
2489186.0144048156
 20
416204.80888769665
 10
2489185.6298242332
 20
416203.7452184691
 10
2489157.8832208305
 20
416210.16898131254
  0
LWPOLYLINE
  5
C0
330
17
100
AcDbEntity
  8
SANITARY_CLEAR_ZONE
100
AcDbPolyline
 90
5
 70
0
 10
2489169.265249895
 20
416221.689641002
 10
2489176.080944981
 20
416193.96735410276
 10
2489174.6326462673
 20
416193.2881301993
 10
2489168.880669313
 20
416220.62597177445
 10
2489169.265249895
 20
416221.689641002
  0
LWPOLYLINE
  5
C1
330
17
100
AcDbEntity
  8
SANITARY_CLEAR_ZONE
100
AcDbPolyline
 90
4
 70
0
 10
2489167.276542065
 20
416199.55611341243
 10
2489164.8547444507
 20
416202.8373288718
 10
2489116.634417407
 20
416149.3085997472
 10
2489167.276542065
 20
416199.55611341243
  0
LWPOLYLINE
  5
C2
330
17
100
AcDbEntity
  8
SANITARY_CLEAR_ZONE
100
AcDbPolyline
 90
4
 70
0
 10
2489164.8547444507
 20
416202.8373288718
 10
2489116.634417407
 20
416149.3085997472
 10
2489114.2123492765
 20
416152.58991301444
 10
2489164.8547444507
 20
416202.8373288718
  0
LWPOLYLINE
  5
C3
330
17
100
AcDbEntity
  8
SANITARY_CLEAR_ZONE
100
AcDbPolyline
 90
5
 70
0
 10
2489093.6416072305
 20
416145.5942455993
 10
2489094.026187813
 20
416146.6579148268
 10
2489121.772791215
 20
416140.2341519834
 10
2489120.3242708896
 20
416139.55516114586
 10
2489093.6416072305
 20
416145.5942455993
  0
LWPOLYLINE
  5
C4
330
17
100
AcDbEntity
  8
SANITARY_CLEAR_ZONE
100
AcDbPolyline
 90
5
 70
0
 10
2489105.023636295
 20
416157.11490528873
 10
2489110.775342733
 20
416129.77716152143
 10
2489110.390762151
 20
416128.7134922939
 10
2489103.575386485
 20
416156.43581664335
 10
2489105.023636295
 20
416157.11490528873
  0
LWPOLYLINE
  5
C5
330
17
100
AcDbEntity
  8
SANITARY_CLEAR_ZONE
100
AcDbPolyline
 90
4
 70
0
 10
2489099.254683044
 20
416141.1591905857
 10
2489100.4084736938
 20
416144.3503335263
 10
2489032.240816549
 20
416165.3887453368
 10
2489099.254683044
 20
416141.1591905857
  0
LWPOLYLINE
  5
C6
330
17
100
AcDbEntity
  8
SANITARY_CLEAR_ZONE
100
AcDbPolyline
 90
4
 70
0
 10
2489100.4084736938
 20
416144.3503335263
 10
2489032.240816549
 20
416165.3887453368
 10
2489033.3946071994
 20
416168.5798882774
 10
2489100.4084736938
 20
416144.3503335263
  0
LWPOLYLINE
  5
C7
330
17
100
AcDbEntity
  8
SANITARY_CLEAR_ZONE
100
AcDbPolyline
 90
5
 70
0
 10
2489018.7727907337
 20
416184.69148041855
 10
2489019.8364599613
 20
416184.30689983646
 10
2489025.5881663994
 20
416156.96915606916
 10
2489024.5244971723
 20
416157.35373665125
 10
2489018.7727907337
 20
416184.69148041855
  0
LWPOLYLINE
  5
C8
330
17
100
AcDbEntity
  8
SANITARY_CLEAR_ZONE
100
AcDbPolyline
 90
5
 70
0
 10
2489033.6647009514
 20
416179.30715665343
 10
2489011.7599254097
 20
416161.96889925224
 10
2489010.696256182
 20
416162.35347983433
 10
2489032.601031724
 20
416179.6917372355
 10
2489033.6647009514
 20
416179.30715665343
  0
LWPOLYLINE
  5
C9
330
17
100
AcDbEntity
  8
SANITARY_CLEAR_ZONE
100
AcDbPolyline
 90
4
 70
0
 10
2489013.0939589054
 20
416172.31148923823
 10
2489014.2477495554
 20
416175.50263217883
 10
2488988.628484608
 20
416181.1572338581
 10
2489013.0939589054
 20
416172.31148923823
  0
LWPOLYLINE
  5
CA
330
17
100
AcDbEntity
  8
SANITARY_CLEAR_ZONE
100
AcDbPolyline
 90
4
 70
0
 10
2489014.2477495554
 20
416175.50263217883
 10
2488988.628484608
 20
416181.1572338581
 10
2488989.782275258
 20
416184.3483767987
 10
2489014.2477495554
 20
416175.50263217883
  0
LWPOLYLINE
  5
CB
330
17
100
AcDbEntity
  8
SANITARY_CLEAR_ZONE
100
AcDbPolyline
 90
4
 70
0
 10
2488987.5648153806
 20
416181.54181444016
 10
2488990.46163442
 20
416182.90002918115
 10
2488976.9691942935
 20
416215.4419516761
 10
2488987.5648153806
 20
416181.54181444016
  0
LWPOLYLINE
  5
CC
330
17
100
AcDbEntity
  8
SANITARY_CLEAR_ZONE
100
AcDbPolyline
 90
4
 70
0
 10
2488990.46163442
 20
416182.90002918115
 10
2488976.9691942935
 20
416215.4419516761
 10
2488979.8657428166
 20
416216.80026422493
 10
2488990.46163442
 20
416182.90002918115
  0
LWPOLYLINE
  5
CD
330
17
100
AcDbEntity
  8
SANITARY_CLEAR_ZONE
100
AcDbPolyline
 90
4
 70
0
 10
2488653.283680447
 20
416873.7190486505
 10
2488656.0903780633
 20
416871.5015398688
 10
2488688.2890991303
 20
416913.98422495474
 10
2488653.283680447
 20
416873.7190486505
  0
LWPOLYLINE
  5
CE
330
17
100
AcDbEntity
  8
SANITARY_CLEAR_ZONE
100
AcDbPolyline
 90
4
 70
0
 10
2488656.0903780633
 20
416871.5015398688
 10
2488688.2890991303
 20
416913.98422495474
 10
2488691.095526231
 20
416911.7668139809
 10
2488656.0903780633
 20
416871.5015398688
  0
LWPOLYLINE
  5
CF
330
17
100
AcDbEntity
  8
SANITARY_CLEAR_ZONE
100
AcDbPolyline
 90
5
 70
0
 10
2488712.051119375
 20
416919.8260528157
 10
2488711.666538793
 20
416918.7623835882
 10
2488683.1507253223
 20
416923.05867271853
 10
2488684.5989751318
 20
416923.7377613639
 10
2488712.051119375
 20
416919.8260528157
  0
LWPOLYLINE
  5
D0
330
17
100
AcDbEntity
  8
SANITARY_CLEAR_ZONE
100
AcDbPolyline
 90
4
 70
0
 10
2488701.732759538
 20
416907.9208125441
 10
2488702.1173401205
 20
416908.98448177165
 10
2488693.469085159
 20
416934.96391299006
 10
2488701.732759538
 20
416907.9208125441
  0
LWPOLYLINE
  5
D1
330
17
100
AcDbEntity
  8
SANITARY_CLEAR_ZONE
100
AcDbPolyline
 90
4
 70
0
 10
2488702.2731686546
 20
416929.3751162302
 10
2488705.079866271
 20
416927.1576074485
 10
2488721.07678742
 20
416951.4429367083
 10
2488702.2731686546
 20
416929.3751162302
  0
LWPOLYLINE
  5
D2
330
17
100
AcDbEntity
  8
SANITARY_CLEAR_ZONE
100
AcDbPolyline
 90
4
 70
0
 10
2488705.079866271
 20
416927.1576074485
 10
2488721.07678742
 20
416951.4429367083
 10
2488723.883485037
 20
416949.2254279266
 10
2488705.079866271
 20
416927.1576074485
  0
LWPOLYLINE
  5
D3
330
17
100
AcDbEntity
  8
SANITARY_CLEAR_ZONE
100
AcDbPolyline
 90
4
 70
0
 10
2488723.5889769737
 20
416951.7373469637
 10
2488721.371295484
 20
416948.93101767113
 10
2488759.1001384393
 20
416926.8702783373
 10
2488723.5889769737
 20
416951.7373469637
  0
LWPOLYLINE
  5
D4
330
17
100
AcDbEntity
  8
SANITARY_CLEAR_ZONE
100
AcDbPolyline
 90
4
 70
0
 10
2488721.371295484
 20
416948.93101767113
 10
2488759.1001384393
 20
416926.8702783373
 10
2488757.2673080475
 20
416925.12752046436
 10
2488721.371295484
 20
416948.93101767113
  0
LWPOLYLINE
  5
D5
330
17
100
AcDbEntity
  8
SANITARY_CLEAR_ZONE
100
AcDbPolyline
 90
5
 70
0
 10
2488767.159696694
 20
416905.9147226433
 10
2488766.095756951
 20
416906.2994010333
 10
2488767.4958169777
 20
416933.45693940535
 10
2488768.559486205
 20
416933.0723588232
 10
2488767.159696694
 20
416905.9147226433
  0
LWPOLYLINE
  5
D6
330
17
100
AcDbEntity
  8
SANITARY_CLEAR_ZONE
100
AcDbPolyline
 90
5
 70
0
 10
2488754.4849758386
 20
416914.10570657486
 10
2488779.10659809
 20
416925.65063386376
 10
2488780.1702673174
 20
416925.26605328167
 10
2488755.548915582
 20
416913.72102818487
 10
2488754.4849758386
 20
416914.10570657486
  0
LWPOLYLINE
  5
D7
330
17
100
AcDbEntity
  8
SANITARY_CLEAR_ZONE
100
AcDbPolyline
 90
4
 70
0
 10
2488775.645226139
 20
416916.07720504195
 10
2488773.4277662616
 20
416913.27064268343
 10
2488796.060090747
 20
416902.6821027405
 10
2488775.645226139
 20
416916.07720504195
  0
LWPOLYLINE
  5
D8
330
17
100
AcDbEntity
  8
SANITARY_CLEAR_ZONE
100
AcDbPolyline
 90
4
 70
0
 10
2488773.4277662616
 20
416913.27064268343
 10
2488796.060090747
 20
416902.6821027405
 10
2488793.842360353
 20
416899.8756381899
 10
2488773.4277662616
 20
416913.27064268343
  0
LWPOLYLINE
  5
D9
330
17
100
AcDbEntity
  8
SANITARY_CLEAR_ZONE
100
AcDbPolyline
 90
4
 70
0
 10
2488795.675510165
 20
416901.618433513
 10
2488793.842360353
 20
416899.8756381899
 10
2488819.330162174
 20
416860.59107938095
 10
2488795.675510165
 20
416901.618433513
  0
LWPOLYLINE
  5
DA
330
17
100
AcDbEntity
  8
SANITARY_CLEAR_ZONE
100
AcDbPolyline
 90
4
 70
0
 10
2488793.842360353
 20
416899.8756381899
 10
2488819.330162174
 20
416860.59107938095
 10
2488816.4336625547
 20
416859.23290209007
 10
2488793.842360353
 20
416899.8756381899
  0
LWPOLYLINE
  5
DB
330
17
100
AcDbEntity
  8
SANITARY_CLEAR_ZONE
100
AcDbPolyline
 90
5
 70
0
 10
2488816.956603246
 20
416837.39398037177
 10
2488817.341183828
 20
416838.4576495993
 10
2488829.7627872285
 20
416862.83295356994
 10
2488830.826726972
 20
416862.44827517995
 10
2488816.956603246
 20
416837.39398037177
  0
LWPOLYLINE
  5
DC
330
17
100
AcDbEntity
  8
SANITARY_CLEAR_ZONE
100
AcDbPolyline
 90
4
 70
0
 10
2488838.0023178128
 20
416849.0289427293
 10
2488837.3232780714
 20
416850.4773277969
 10
2488809.781012405
 20
416850.8133128224
 10
2488838.0023178128
 20
416849.0289427293
  0
LWPOLYLINE
  5
DD
330
17
100
AcDbEntity
  8
SANITARY_CLEAR_ZONE
100
AcDbPolyline
 90
4
 70
0
 10
2488829.9915392767
 20
416843.5059883389
 10
2488827.094990753
 20
416842.14767579
 10
2488865.281386709
 20
416781.43314125214
 10
2488829.9915392767
 20
416843.5059883389
  0
LWPOLYLINE
  5
DE
330
17
100
AcDbEntity
  8
SANITARY_CLEAR_ZONE
100
AcDbPolyline
 90
4
 70
0
 10
2488827.094990753
 20
416842.14767579
 10
2488865.281386709
 20
416781.43314125214
 10
2488862.3848381857
 20
416780.07482870325
 10
2488827.094990753
 20
416842.14767579
  0
LWPOLYLINE
  5
DF
330
17
100
AcDbEntity
  8
SANITARY_CLEAR_ZONE
100
AcDbPolyline
 90
5
 70
0
 10
2488862.907778877
 20
416758.2359069849
 10
2488861.8441096493
 20
416758.62048756704
 10
2488875.7139628595
 20
416783.6748801831
 10
2488876.3933220212
 20
416782.2265325656
 10
2488862.907778877
 20
416758.2359069849
  0
LWPOLYLINE
  5
E0
330
17
100
AcDbEntity
  8
SANITARY_CLEAR_ZONE
100
AcDbPolyline
 90
5
 70
0
 10
2488854.6685188087
 20
416772.0398200177
 10
2488882.889602604
 20
416770.2556829905
 10
2488883.9535423475
 20
416769.8710046005
 10
2488855.3476074543
 20
416770.5915702081
 10
2488854.6685188087
 20
416772.0398200177
  0
LWPOLYLINE
  5
E1
330
17
100
AcDbEntity
  8
SANITARY_CLEAR_ZONE
100
AcDbPolyline
 90
4
 70
0
 10
2488875.5581343253
 20
416763.28424572456
 10
2488872.661585802
 20
416761.92593317566
 10
2488877.97993194
 20
416760.00303026516
 10
2488875.5581343253
 20
416763.28424572456
  0
LWPOLYLINE
  5
E2
330
17
100
AcDbEntity
  8
SANITARY_CLEAR_ZONE
100
AcDbPolyline
 90
4
 70
0
 10
2488872.661585802
 20
416761.92593317566
 10
2488877.97993194
 20
416760.00303026516
 10
2488874.6988028344
 20
416757.5810484888
 10
2488872.661585802
 20
416761.92593317566
  0
LWPOLYLINE
  5
E3
330
17
100
AcDbEntity
  8
SANITARY_CLEAR_ZONE
100
AcDbPolyline
 90
4
 70
0
 10
2488877.5953513575
 20
416758.9393610376
 10
2488874.019763093
 20
416759.0294335564
 10
2488876.334511892
 20
416708.8790735542
 10
2488877.5953513575
 20
416758.9393610376
  0
LWPOLYLINE
  5
E4
330
17
100
AcDbEntity
  8
SANITARY_CLEAR_ZONE
100
AcDbPolyline
 90
4
 70
0
 10
2488874.019763093
 20
416759.0294335564
 10
2488876.334511892
 20
416708.8790735542
 10
2488872.758604207
 20
416708.96910862275
 10
2488874.019763093
 20
416759.0294335564
  0
LWPOLYLINE
  5
E5
330
17
100
AcDbEntity
  8
SANITARY_CLEAR_ZONE
100
AcDbPolyline
 90
4
 70
0
 10
2488876.334511892
 20
416708.8790735542
 10
2488873.143233693
 20
416710.03291310836
 10
2488868.4379496695
 20
416693.6926178232
 10
2488876.334511892
 20
416708.8790735542
  0
LWPOLYLINE
  5
E6
330
17
100
AcDbEntity
  8
SANITARY_CLEAR_ZONE
100
AcDbPolyline
 90
4
 70
0
 10
2488873.143233693
 20
416710.03291310836
 10
2488868.4379496695
 20
416693.6926178232
 10
2488865.246941987
 20
416694.8463595695
 10
2488873.143233693
 20
416710.03291310836
  0
LWPOLYLINE
  5
E7
330
17
100
AcDbEntity
  8
SANITARY_CLEAR_ZONE
100
AcDbPolyline
 90
5
 70
0
 10
2488848.4561748463
 20
416681.6729770757
 10
2488848.840755428
 20
416682.7366463032
 10
2488876.4731425173
 20
416685.9763848004
 10
2488876.088513031
 20
416684.91258031485
 10
2488848.4561748463
 20
416681.6729770757
  0
LWPOLYLINE
  5
E8
330
17
100
AcDbEntity
  8
SANITARY_CLEAR_ZONE
100
AcDbPolyline
 90
5
 70
0
 10
2488854.904167839
 20
416696.18030671106
 10
2488870.4096812024
 20
416672.5325891345
 10
2488870.0251006205
 20
416671.468919907
 10
2488854.519587257
 20
416695.11663748353
 10
2488854.904167839
 20
416696.18030671106
  0
LWPOLYLINE
  5
E9
330
17
100
AcDbEntity
  8
SANITARY_CLEAR_ZONE
100
AcDbPolyline
 90
4
 70
0
 10
2488860.4515365404
 20
416674.93034076167
 10
2488857.260528858
 20
416676.08408250794
 10
2488848.414833142
 20
416651.61874346866
 10
2488860.4515365404
 20
416674.93034076167
  0
LWPOLYLINE
  5
EA
330
17
100
AcDbEntity
  8
SANITARY_CLEAR_ZONE
100
AcDbPolyline
 90
4
 70
0
 10
2488857.260528858
 20
416676.08408250794
 10
2488848.414833142
 20
416651.61874346866
 10
2488845.2238254594
 20
416652.772485215
 10
2488857.260528858
 20
416676.08408250794
  0
LWPOLYLINE
  5
EB
330
17
100
AcDbEntity
  8
SANITARY_CLEAR_ZONE
100
AcDbPolyline
 90
4
 70
0
 10
2488848.0302036563
 20
416650.5549389831
 10
2488845.6084060417
 20
416653.8361544425
 10
2488813.6794593064
 20
416622.0807002824
 10
2488848.0302036563
 20
416650.5549389831
  0
LWPOLYLINE
  5
EC
330
17
100
AcDbEntity
  8
SANITARY_CLEAR_ZONE
100
AcDbPolyline
 90
4
 70
0
 10
2488845.6084060417
 20
416653.8361544425
 10
2488813.6794593064
 20
416622.0807002824
 10
2488810.87308111
 20
416624.2982465143
 10
2488845.6084060417
 20
416653.8361544425
  0
LWPOLYLINE
  5
ED
330
17
100
AcDbEntity
  8
SANITARY_CLEAR_ZONE
100
AcDbPolyline
 90
5
 70
0
 10
2488790.007879905
 20
416619.8146333943
 10
2488791.4561297144
 20
416620.49372203974
 10
2488817.369853821
 20
416612.32706606534
 10
2488816.985273239
 20
416611.2633968378
 10
2488790.007879905
 20
416619.8146333943
  0
LWPOLYLINE
  5
EE
330
17
100
AcDbEntity
  8
SANITARY_CLEAR_ZONE
100
AcDbPolyline
 90
5
 70
0
 10
2488802.068678194
 20
416629.887005824
 10
2488806.372134823
 20
416601.87017341127
 10
2488804.9238850134
 20
416601.19108476583
 10
2488801.6840976123
 20
416628.8233365965
 10
2488802.068678194
 20
416629.887005824
  0
LWPOLYLINE
  5
EF
330
17
100
AcDbEntity
  8
SANITARY_CLEAR_ZONE
100
AcDbPolyline
 90
4
 70
0
 10
2488793.198887587
 20
416618.660891648
 10
2488792.904379524
 20
416621.1728106851
 10
2488778.5113151064
 20
416617.9574375953
 10
2488793.198887587
 20
416618.660891648
  0
LWPOLYLINE
  5
F0
330
17
100
AcDbEntity
  8
SANITARY_CLEAR_ZONE
100
AcDbPolyline
 90
4
 70
0
 10
2488792.904379524
 20
416621.1728106851
 10
2488778.5113151064
 20
416617.9574375953
 10
2488778.6014365293
 20
416621.533161118
 10
2488792.904379524
 20
416621.1728106851
  0
LWPOLYLINE
  5
F1
330
17
100
AcDbEntity
  8
SANITARY_CLEAR_ZONE
100
AcDbPolyline
 90
4
 70
0
 10
2488778.5113151064
 20
416617.9574375953
 10
2488779.665105757
 20
416621.1485805359
 10
2488742.344938274
 20
416631.03376423393
 10
2488778.5113151064
 20
416617.9574375953
  0
LWPOLYLINE
  5
F2
330
17
100
AcDbEntity
  8
SANITARY_CLEAR_ZONE
100
AcDbPolyline
 90
4
 70
0
 10
2488779.665105757
 20
416621.1485805359
 10
2488742.344938274
 20
416631.03376423393
 10
2488743.4987289244
 20
416634.22490717453
 10
2488779.665105757
 20
416621.1485805359
  0
LWPOLYLINE
  5
F3
330
17
100
AcDbEntity
  8
SANITARY_CLEAR_ZONE
100
AcDbPolyline
 90
4
 70
0
 10
2488742.344938274
 20
416631.03376423393
 10
2488743.4987289244
 20
416634.22490717453
 10
2488725.8003916065
 20
416641.8266419135
 10
2488742.344938274
 20
416631.03376423393
  0
LWPOLYLINE
  5
F4
330
17
100
AcDbEntity
  8
SANITARY_CLEAR_ZONE
100
AcDbPolyline
 90
4
 70
0
 10
2488743.4987289244
 20
416634.22490717453
 10
2488725.8003916065
 20
416641.8266419135
 10
2488728.0178514845
 20
416644.633204272
 10
2488743.4987289244
 20
416634.22490717453
  0
LWPOLYLINE
  5
F5
330
17
100
AcDbEntity
  8
SANITARY_CLEAR_ZONE
100
AcDbPolyline
 90
5
 70
0
 10
2488718.12568445
 20
416663.84576902713
 10
2488719.1893536774
 20
416663.46118844504
 10
2488717.405032488
 20
416635.24001829565
 10
2488716.3413632605
 20
416635.62459887774
 10
2488718.12568445
 20
416663.84576902713
  0
LWPOLYLINE
  5
F6
330
17
100
AcDbEntity
  8
SANITARY_CLEAR_ZONE
100
AcDbPolyline
 90
5
 70
0
 10
2488730.8001347897
 20
416655.6548829035
 10
2488705.794521892
 20
416643.04622602934
 10
2488704.7305821483
 20
416643.43090441934
 10
2488729.736465562
 20
416656.0394634856
 10
2488730.8001347897
 20
416655.6548829035
  0
LWPOLYLINE
  5
F7
330
17
100
AcDbEntity
  8
SANITARY_CLEAR_ZONE
100
AcDbPolyline
 90
4
 70
0
 10
2488709.255893843
 20
416652.61965485115
 10
2488711.4733537207
 20
416655.42621720966
 10
2488689.9043790423
 20
416665.63013912033
 10
2488709.255893843
 20
416652.61965485115
  0
LWPOLYLINE
  5
F8
330
17
100
AcDbEntity
  8
SANITARY_CLEAR_ZONE
100
AcDbPolyline
 90
4
 70
0
 10
2488711.4733537207
 20
416655.42621720966
 10
2488689.9043790423
 20
416665.63013912033
 10
2488691.0581696928
 20
416668.82128206093
 10
2488711.4733537207
 20
416655.42621720966
  0
LWPOLYLINE
  5
F9
330
17
100
AcDbEntity
  8
SANITARY_CLEAR_ZONE
100
AcDbPolyline
 90
4
 70
0
 10
2488689.225290397
 20
416667.07838892995
 10
2488692.1218389203
 20
416668.43670147884
 10
2488668.467186911
 20
416709.4640556109
 10
2488689.225290397
 20
416667.07838892995
  0
LWPOLYLINE
  5
FA
330
17
100
AcDbEntity
  8
SANITARY_CLEAR_ZONE
100
AcDbPolyline
 90
4
 70
0
 10
2488692.1218389203
 20
416668.43670147884
 10
2488668.467186911
 20
416709.4640556109
 10
2488671.3639570465
 20
416710.82213509385
 10
2488692.1218389203
 20
416668.43670147884
  0
LWPOLYLINE
  5
FB
330
17
100
AcDbEntity
  8
SANITARY_CLEAR_ZONE
100
AcDbPolyline
 90
4
 70
0
 10
2488671.9041445507
 20
416732.2766718459
 10
2488656.2918039835
 20
416709.0550118136
 10
2488657.355473211
 20
416708.6704312315
 10
2488671.9041445507
 20
416732.2766718459
  0
LWPOLYLINE
  5
FC
330
17
100
AcDbEntity
  8
SANITARY_CLEAR_ZONE
100
AcDbPolyline
 90
5
 70
0
 10
2488679.0800059075
 20
416718.8572415873
 10
2488651.2432810823
 20
416721.705280908
 10
2488650.1796118547
 20
416722.08986149007
 10
2488678.01633668
 20
416719.2418221694
 10
2488679.0800059075
 20
416718.8572415873
  0
LWPOLYLINE
  5
FD
330
17
100
AcDbEntity
  8
SANITARY_CLEAR_ZONE
100
AcDbPolyline
 90
4
 70
0
 10
2488659.6386891045
 20
416728.2920397839
 10
2488662.5355081437
 20
416729.6502545249
 10
2488654.500315296
 20
416737.3664875477
 10
2488659.6386891045
 20
416728.2920397839
  0
LWPOLYLINE
  5
FE
330
17
100
AcDbEntity
  8
SANITARY_CLEAR_ZONE
100
AcDbPolyline
 90
4
 70
0
 10
2488662.5355081437
 20
416729.6502545249
 10
2488654.500315296
 20
416737.3664875477
 10
2488657.7814444015
 20
416739.7884693241
 10
2488662.5355081437
 20
416729.6502545249
  0
LWPOLYLINE
  5
FF
330
17
100
AcDbEntity
  8
SANITARY_CLEAR_ZONE
100
AcDbPolyline
 90
4
 70
0
 10
2488653.821226651
 20
416738.8147373573
 10
2488657.3968149154
 20
416738.7246648385
 10
2488647.816402757
 20
416798.71876902686
 10
2488653.821226651
 20
416738.8147373573
  0
LWPOLYLINE
  5
100
330
17
100
AcDbEntity
  8
SANITARY_CLEAR_ZONE
100
AcDbPolyline
 90
4
 70
0
 10
2488657.3968149154
 20
416738.7246648385
 10
2488647.816402757
 20
416798.71876902686
 10
2488651.391991022
 20
416798.62869650807
 10
2488657.3968149154
 20
416738.7246648385
  0
LWPOLYLINE
  5
101
330
17
100
AcDbEntity
  8
SANITARY_CLEAR_ZONE
100
AcDbPolyline
 90
5
 70
0
 10
2488659.762984733
 20
416818.4546427971
 10
2488659.3784041507
 20
416817.3909735696
 10
2488637.473628609
 20
416800.0527161684
 10
2488636.794539964
 20
416801.500965978
 10
2488659.762984733
 20
416818.4546427971
  0
LWPOLYLINE
  5
102
330
17
100
AcDbEntity
  8
SANITARY_CLEAR_ZONE
100
AcDbPolyline
 90
5
 70
0
 10
2488661.5303785293
 20
416803.38239192637
 10
2488635.706775845
 20
416815.12477142346
 10
2488636.091356427
 20
416816.188440651
 10
2488660.8512898837
 20
416804.830641736
 10
2488661.5303785293
 20
416803.38239192637
  0
LWPOLYLINE
  5
103
330
17
100
AcDbEntity
  8
SANITARY_CLEAR_ZONE
100
AcDbPolyline
 90
4
 70
0
 10
2488645.4603122543
 20
416818.8148954221
 10
2488649.036171035
 20
416818.72472509544
 10
2488645.550163161
 20
416822.3907167527
 10
2488645.4603122543
 20
416818.8148954221
  0
LWPOLYLINE
  5
104
330
17
100
AcDbEntity
  8
SANITARY_CLEAR_ZONE
100
AcDbPolyline
 90
4
 70
0
 10
2488649.036171035
 20
416818.72472509544
 10
2488645.550163161
 20
416822.3907167527
 10
2488649.1260219417
 20
416822.30054642603
 10
2488649.036171035
 20
416818.72472509544
  0
LWPOLYLINE
  5
105
330
17
100
AcDbEntity
  8
SANITARY_CLEAR_ZONE
100
AcDbPolyline
 90
4
 70
0
 10
2488645.550163161
 20
416822.3907167527
 10
2488649.1260219417
 20
416822.30054642603
 10
2488652.8990998645
 20
416872.655379423
 10
2488645.550163161
 20
416822.3907167527
  0
LWPOLYLINE
  5
106
330
17
100
AcDbEntity
  8
SANITARY_CLEAR_ZONE
100
AcDbPolyline
 90
4
 70
0
 10
2488649.1260219417
 20
416822.30054642603
 10
2488652.8990998645
 20
416872.655379423
 10
2488656.474958645
 20
416872.5652090963
 10
2488649.1260219417
 20
416822.30054642603
  0
LINE
  5
107
330
17
100
AcDbEntity
  8
SANITARY_CLEAR_ZONE
100
AcDbLine
 10
2488652.8990998645
 20
416872.655379423
 30
0.0
 11
2488656.474958645
 21
416872.5652090963
 31
0.0
  0
LWPOLYLINE
  5
108
330
17
100
AcDbEntity
  8
SANITARY_CLEAR_ZONE
100
AcDbPolyline
 90
4
 70
0
 10
2489426.996445784
 20
417064.2573440735
 10
2489425.163517584
 20
417062.5143156845
 10
2489459.3409160706
 20
417027.30455926416
 10
2489426.996445784
 20
417064.2573440735
  0
LWPOLYLINE
  5
109
330
17
100
AcDbEntity
  8
SANITARY_CLEAR_ZONE
100
AcDbPolyline
 90
4
 70
0
 10
2489425.163517584
 20
417062.5143156845
 10
2489459.3409160706
 20
417027.30455926416
 10
2489456.059565353
 20
417024.88281055365
 10
2489425.163517584
 20
417062.5143156845
  0
LWPOLYLINE
  5
10A
330
17
100
AcDbEntity
  8
SANITARY_CLEAR_ZONE
100
AcDbPolyline
 90
5
 70
0
 10
2489460.543215923
 20
417004.01728992834
 10
2489459.479546696
 20
417004.4018705104
 10
2489469.09445248
 20
417030.9946832628
 10
2489469.773541125
 20
417029.54643345316
 10
2489460.543215923
 20
417004.01728992834
  0
LWPOLYLINE
  5
10B
330
17
100
AcDbEntity
  8
SANITARY_CLEAR_ZONE
100
AcDbPolyline
 90
5
 70
0
 10
2489450.4708060436
 20
417016.078407638
 10
2489478.103193132
 20
417019.3181461352
 10
2489479.1668623597
 20
417018.9335655531
 10
2489451.1498946887
 20
417014.6301578284
 10
2489450.4708060436
 20
417016.078407638
  0
LWPOLYLINE
  5
10C
330
17
100
AcDbEntity
  8
SANITARY_CLEAR_ZONE
100
AcDbPolyline
 90
4
 70
0
 10
2489471.835442985
 20
417011.96226354525
 10
2489469.6179342032
 20
417009.15556592867
 10
2489518.0323469606
 20
416956.7707812056
 10
2489471.835442985
 20
417011.96226354525
  0
LWPOLYLINE
  5
10D
330
17
100
AcDbEntity
  8
SANITARY_CLEAR_ZONE
100
AcDbPolyline
 90
4
 70
0
 10
2489469.6179342032
 20
417009.15556592867
 10
2489518.0323469606
 20
416956.7707812056
 10
2489514.7511689514
 20
416954.3486641711
 10
2489469.6179342032
 20
417009.15556592867
  0
LWPOLYLINE
  5
10E
330
17
100
AcDbEntity
  8
SANITARY_CLEAR_ZONE
100
AcDbPolyline
 90
5
 70
0
 10
2489519.234917329
 20
416933.4834140619
 10
2489518.555828684
 20
416934.9316638715
 10
2489527.786153886
 20
416960.46080739633
 10
2489528.8498231135
 20
416960.07622681424
 10
2489519.234917329
 20
416933.4834140619
  0
LWPOLYLINE
  5
10F
330
17
100
AcDbEntity
  8
SANITARY_CLEAR_ZONE
100
AcDbPolyline
 90
5
 70
0
 10
2489509.1625074497
 20
416945.54453177156
 10
2489537.179204604
 20
416949.8480373042
 10
2489537.858195442
 20
416948.3995169785
 10
2489510.2261766773
 20
416945.1599511895
 10
2489509.1625074497
 20
416945.54453177156
  0
LWPOLYLINE
  5
110
330
17
100
AcDbEntity
  8
SANITARY_CLEAR_ZONE
100
AcDbPolyline
 90
4
 70
0
 10
2489530.526505551
 20
416941.4283127785
 10
2489528.309094577
 20
416938.62188567803
 10
2489576.723950559
 20
416886.2366348231
 10
2489530.526505551
 20
416941.4283127785
  0
LWPOLYLINE
  5
111
330
17
100
AcDbEntity
  8
SANITARY_CLEAR_ZONE
100
AcDbPolyline
 90
4
 70
0
 10
2489528.309094577
 20
416938.62188567803
 10
2489576.723950559
 20
416886.2366348231
 10
2489573.8271804233
 20
416884.8785553401
 10
2489528.309094577
 20
416938.62188567803
  0
LWPOLYLINE
  5
112
330
17
100
AcDbEntity
  8
SANITARY_CLEAR_ZONE
100
AcDbPolyline
 90
5
 70
0
 10
2489577.9259798955
 20
416862.9494632951
 10
2489578.3105604774
 20
416864.01313252264
 10
2489586.8617970343
 20
416890.9905258571
 10
2489587.5408856794
 20
416889.54227604746
 10
2489577.9259798955
 20
416862.9494632951
  0
LWPOLYLINE
  5
113
330
17
100
AcDbEntity
  8
SANITARY_CLEAR_ZONE
100
AcDbPolyline
 90
5
 70
0
 10
2489567.853840532
 20
416875.01048319694
 10
2489595.8705376866
 20
416879.3139887295
 10
2489596.934206914
 20
416878.9294081474
 10
2489568.9175097593
 20
416874.62590261485
 10
2489567.853840532
 20
416875.01048319694
  0
LWPOLYLINE
  5
114
330
17
100
AcDbEntity
  8
SANITARY_CLEAR_ZONE
100
AcDbPolyline
 90
4
 70
0
 10
2489589.218206957
 20
416870.894436912
 10
2489587.3852787577
 20
416869.15140852303
 10
2489635.799642611
 20
416816.76648854185
 10
2489589.218206957
 20
416870.894436912
  0
LWPOLYLINE
  5
115
330
17
100
AcDbEntity
  8
SANITARY_CLEAR_ZONE
100
AcDbPolyline
 90
4
 70
0
 10
2489587.3852787577
 20
416869.15140852303
 10
2489635.799642611
 20
416816.76648854185
 10
2489632.518513506
 20
416814.3445067655
 10
2489587.3852787577
 20
416869.15140852303
  0
LWPOLYLINE
  5
116
330
17
100
AcDbEntity
  8
SANITARY_CLEAR_ZONE
100
AcDbPolyline
 90
4
 70
0
 10
2489637.00221298
 20
416793.4791213981
 10
2489646.232538182
 20
416819.008264923
 10
2489645.553449536
 20
416820.4565147326
 10
2489637.00221298
 20
416793.4791213981
  0
LWPOLYLINE
  5
117
330
17
100
AcDbEntity
  8
SANITARY_CLEAR_ZONE
100
AcDbPolyline
 90
5
 70
0
 10
2489626.9298031
 20
416805.54023910785
 10
2489654.5621901886
 20
416808.77997760504
 10
2489655.625859416
 20
416808.39539702295
 10
2489627.6088917456
 20
416804.09198929823
 10
2489626.9298031
 20
416805.54023910785
  0
LWPOLYLINE
  5
118
330
17
100
AcDbEntity
  8
SANITARY_CLEAR_ZONE
100
AcDbPolyline
 90
4
 70
0
 10
2489648.2941206214
 20
416801.42405756493
 10
2489646.0766607434
 20
416798.6174952064
 10
2489675.4101934847
 20
416769.9702675127
 10
2489648.2941206214
 20
416801.42405756493
  0
LWPOLYLINE
  5
119
330
17
100
AcDbEntity
  8
SANITARY_CLEAR_ZONE
100
AcDbPolyline
 90
4
 70
0
 10
2489646.0766607434
 20
416798.6174952064
 10
2489675.4101934847
 20
416769.9702675127
 10
2489672.1290643797
 20
416767.5482857363
 10
2489646.0766607434
 20
416798.6174952064
  0
LWPOLYLINE
  5
11A
330
17
100
AcDbEntity
  8
SANITARY_CLEAR_ZONE
100
AcDbPolyline
 90
4
 70
0
 10
2489674.346524257
 20
416770.3548480948
 10
2489672.1290643797
 20
416767.5482857363
 10
2489696.708754991
 20
416749.0390397759
 10
2489674.346524257
 20
416770.3548480948
  0
LWPOLYLINE
  5
11B
330
17
100
AcDbEntity
  8
SANITARY_CLEAR_ZONE
100
AcDbPolyline
 90
4
 70
0
 10
2489672.1290643797
 20
416767.5482857363
 10
2489696.708754991
 20
416749.0390397759
 10
2489694.491295113
 20
416746.2324774174
 10
2489672.1290643797
 20
416767.5482857363
  0
LWPOLYLINE
  5
11C
330
17
100
AcDbEntity
  8
SANITARY_CLEAR_ZONE
100
AcDbPolyline
 90
5
 70
0
 10
2489701.486913624
 20
416725.6616001134
 10
2489700.807873883
 20
416727.1099851811
 10
2489705.783202755
 20
416754.17741358414
 10
2489706.8468719823
 20
416753.79283300205
 10
2489701.486913624
 20
416725.6616001134
  0
LWPOLYLINE
  5
11D
330
17
100
AcDbEntity
  8
SANITARY_CLEAR_ZONE
100
AcDbPolyline
 90
5
 70
0
 10
2489689.966253935
 20
416737.0436291777
 10
2489716.6248227027
 20
416744.24376958754
 10
2489717.6884919303
 20
416743.85918900545
 10
2489690.6453425805
 20
416735.59537936805
 10
2489689.966253935
 20
416737.0436291777
  0
LWPOLYLINE
  5
11E
330
17
100
AcDbEntity
  8
SANITARY_CLEAR_ZONE
100
AcDbPolyline
 90
4
 70
0
 10
2489712.0995110082
 20
416735.05501915567
 10
2489709.8820511308
 20
416732.2484567972
 10
2489753.3385545374
 20
416696.08933381736
 10
2489712.0995110082
 20
416735.05501915567
  0
LWPOLYLINE
  5
11F
330
17
100
AcDbEntity
  8
SANITARY_CLEAR_ZONE
100
AcDbPolyline
 90
3
 70
0
 10
2489751.12109466
 20
416693.28277145885
 10
2489709.8820511308
 20
416732.2484567972
 10
2489753.3385545374
 20
416696.08933381736
  0
LWPOLYLINE
  5
120
330
17
100
AcDbEntity
  8
SANITARY_CLEAR_ZONE
100
AcDbPolyline
 90
4
 70
0
 10
2488643.073676108
 20
415275.32464732364
 10
2488647.0341154705
 20
415276.29814622446
 10
2488629.67162792
 20
415311.44219553337
 10
2488643.073676108
 20
415275.32464732364
  0
LWPOLYLINE
  5
121
330
17
100
AcDbEntity
  8
SANITARY_CLEAR_ZONE
100
AcDbPolyline
 90
4
 70
0
 10
2488647.0341154705
 20
415276.29814622446
 10
2488629.67162792
 20
415311.44219553337
 10
2488632.5684958636
 20
415312.80054553243
 10
2488647.0341154705
 20
415276.29814622446
  0
LWPOLYLINE
  5
122
330
17
100
AcDbEntity
  8
SANITARY_CLEAR_ZONE
100
AcDbPolyline
 90
5
 70
0
 10
2488635.620775113
 20
415334.54922202375
 10
2488636.2998637585
 20
415333.10097221413
 10
2488618.94459261
 20
415311.7125108976
 10
2488619.3291731924
 20
415312.7761801251
 10
2488635.620775113
 20
415334.54922202375
  0
LWPOLYLINE
  5
123
330
17
100
AcDbEntity
  8
SANITARY_CLEAR_ZONE
100
AcDbPolyline
 90
5
 70
0
 10
2488640.9635844654
 20
415319.3872669582
 10
2488614.2806013864
 20
415325.42631396145
 10
2488613.216932159
 20
415325.81089454354
 10
2488641.348165048
 20
415320.4509361857
 10
2488640.9635844654
 20
415319.3872669582
  0
LWPOLYLINE
  5
124
330
17
100
AcDbEntity
  8
SANITARY_CLEAR_ZONE
100
AcDbPolyline
 90
4
 70
0
 10
2488626.2519170935
 20
415331.92303776875
 10
2488629.442924776
 20
415330.7692960224
 10
2488640.637765109
 20
415391.67092148407
 10
2488626.2519170935
 20
415331.92303776875
  0
LWPOLYLINE
  5
125
330
17
100
AcDbEntity
  8
SANITARY_CLEAR_ZONE
100
AcDbPolyline
 90
4
 70
0
 10
2488629.442924776
 20
415330.7692960224
 10
2488640.637765109
 20
415391.67092148407
 10
2488643.8290433073
 20
415390.5170819299
 10
2488629.442924776
 20
415330.7692960224
  0
LWPOLYLINE
  5
126
330
17
100
AcDbEntity
  8
SANITARY_CLEAR_ZONE
100
AcDbPolyline
 90
4
 70
0
 10
2488640.637765109
 20
415391.67092148407
 10
2488643.8290433073
 20
415390.5170819299
 10
2488644.0991859636
 20
415401.24448556395
 10
2488640.637765109
 20
415391.67092148407
  0
LWPOLYLINE
  5
127
330
17
100
AcDbEntity
  8
SANITARY_CLEAR_ZONE
100
AcDbPolyline
 90
4
 70
0
 10
2488643.8290433073
 20
415390.5170819299
 10
2488644.0991859636
 20
415401.24448556395
 10
2488647.2904641624
 20
415400.0906460097
 10
2488643.8290433073
 20
415390.5170819299
  0
LWPOLYLINE
  5
128
330
17
100
AcDbEntity
  8
SANITARY_CLEAR_ZONE
100
AcDbPolyline
 90
5
 70
0
 10
2488663.4015527214
 20
415414.7123386709
 10
2488663.016972139
 20
415413.6486694434
 10
2488635.679634146
 20
415407.89681629324
 10
2488636.0642147283
 20
415408.9604855208
 10
2488663.4015527214
 20
415414.7123386709
  0
LWPOLYLINE
  5
129
330
17
100
AcDbEntity
  8
SANITARY_CLEAR_ZONE
100
AcDbPolyline
 90
5
 70
0
 10
2488658.0172289563
 20
415399.8204284534
 10
2488640.679377329
 20
415421.72505728324
 10
2488641.063957911
 20
415422.7887265108
 10
2488658.4018095382
 20
415400.8840976809
 10
2488658.0172289563
 20
415399.8204284534
  0
LWPOLYLINE
  5
12A
330
17
100
AcDbEntity
  8
SANITARY_CLEAR_ZONE
100
AcDbPolyline
 90
4
 70
0
 10
2488651.021929865
 20
415420.39134320756
 10
2488654.2132080635
 20
415419.2375036534
 10
2488663.238827205
 20
415450.85425228794
 10
2488651.021929865
 20
415420.39134320756
  0
LWPOLYLINE
  5
12B
330
17
100
AcDbEntity
  8
SANITARY_CLEAR_ZONE
100
AcDbPolyline
 90
4
 70
0
 10
2488654.2132080635
 20
415419.2375036534
 10
2488663.238827205
 20
415450.85425228794
 10
2488666.4301054035
 20
415449.7004127338
 10
2488654.2132080635
 20
415419.2375036534
  0
LWPOLYLINE
  5
12C
330
17
100
AcDbEntity
  8
SANITARY_CLEAR_ZONE
100
AcDbPolyline
 90
4
 70
0
 10
2488663.238827205
 20
415450.85425228794
 10
2488666.4301054035
 20
415449.7004127338
 10
2488680.5701012695
 20
415485.4822089839
 10
2488663.238827205
 20
415450.85425228794
  0
LWPOLYLINE
  5
12D
330
17
100
AcDbEntity
  8
SANITARY_CLEAR_ZONE
100
AcDbPolyline
 90
4
 70
0
 10
2488666.4301054035
 20
415449.7004127338
 10
2488680.5701012695
 20
415485.4822089839
 10
2488683.376430562
 20
415483.264527494
 10
2488666.4301054035
 20
415449.7004127338
  0
LWPOLYLINE
  5
12E
330
17
100
AcDbEntity
  8
SANITARY_CLEAR_ZONE
100
AcDbPolyline
 90
5
 70
0
 10
2488702.294585062
 20
415495.66888408165
 10
2488701.91000448
 20
415494.6052148541
 10
2488673.5986265535
 20
415492.81399668264
 10
2488673.983207136
 20
415493.8776659101
 10
2488702.294585062
 20
415495.66888408165
  0
LWPOLYLINE
  5
12F
330
17
100
AcDbEntity
  8
SANITARY_CLEAR_ZONE
100
AcDbPolyline
 90
5
 70
0
 10
2488694.7829228416
 20
415481.54613502836
 10
2488680.7257081917
 20
415505.87307650835
 10
2488681.1102887737
 20
415506.9367457359
 10
2488695.167503424
 20
415482.6098042559
 10
2488694.7829228416
 20
415481.54613502836
  0
LWPOLYLINE
  5
130
330
17
100
AcDbEntity
  8
SANITARY_CLEAR_ZONE
100
AcDbPolyline
 90
4
 70
0
 10
2488690.6838528537
 20
415503.4753248812
 10
2488693.4902799544
 20
415501.2579139074
 10
2488709.4632789204
 20
415538.7820997065
 10
2488690.6838528537
 20
415503.4753248812
  0
LWPOLYLINE
  5
131
330
17
100
AcDbEntity
  8
SANITARY_CLEAR_ZONE
100
AcDbPolyline
 90
4
 70
0
 10
2488693.4902799544
 20
415501.2579139074
 10
2488709.4632789204
 20
415538.7820997065
 10
2488712.654557119
 20
415537.62826015236
 10
2488693.4902799544
 20
415501.2579139074
  0
LWPOLYLINE
  5
132
330
17
100
AcDbEntity
  8
SANITARY_CLEAR_ZONE
100
AcDbPolyline
 90
4
 70
0
 10
2488709.8478595023
 20
415539.84576893406
 10
2488712.2699765367
 20
415536.5645909248
 10
2488733.5855143396
 20
415558.92691946623
 10
2488709.8478595023
 20
415539.84576893406
  0
LWPOLYLINE
  5
133
330
17
100
AcDbEntity
  8
SANITARY_CLEAR_ZONE
100
AcDbPolyline
 90
4
 70
0
 10
2488712.2699765367
 20
415536.5645909248
 10
2488733.5855143396
 20
415558.92691946623
 10
2488736.3922119564
 20
415556.70941068453
 10
2488712.2699765367
 20
415536.5645909248
  0
LWPOLYLINE
  5
134
330
17
100
AcDbEntity
  8
SANITARY_CLEAR_ZONE
100
AcDbPolyline
 90
5
 70
0
 10
2488757.2573642577
 20
415561.1928885465
 10
2488756.8727836753
 20
415560.129219319
 10
2488729.895390341
 20
415568.68045587547
 10
2488731.3436401505
 20
415569.35954452085
 10
2488757.2573642577
 20
415561.1928885465
  0
LWPOLYLINE
  5
135
330
17
100
AcDbEntity
  8
SANITARY_CLEAR_ZONE
100
AcDbPolyline
 90
5
 70
0
 10
2488745.196246548
 20
415551.1204786666
 10
2488741.572197985
 20
415577.6890987199
 10
2488741.956778567
 20
415578.75276794744
 10
2488746.2599157756
 20
415550.73589808453
 10
2488745.196246548
 20
415551.1204786666
  0
LWPOLYLINE
  5
136
330
17
100
AcDbEntity
  8
SANITARY_CLEAR_ZONE
100
AcDbPolyline
 90
4
 70
0
 10
2488749.312390641
 20
415572.485115608
 10
2488751.7344098673
 20
415569.20366708277
 10
2488805.1832321417
 20
415617.2336719663
 10
2488749.312390641
 20
415572.485115608
  0
LWPOLYLINE
  5
137
330
17
100
AcDbEntity
  8
SANITARY_CLEAR_ZONE
100
AcDbPolyline
 90
4
 70
0
 10
2488751.7344098673
 20
415569.20366708277
 10
2488805.1832321417
 20
415617.2336719663
 10
2488806.541409433
 20
415614.33717234706
 10
2488751.7344098673
 20
415569.20366708277
  0
LWPOLYLINE
  5
138
330
17
100
AcDbEntity
  8
SANITARY_CLEAR_ZONE
100
AcDbPolyline
 90
5
 70
0
 10
2488828.470599286
 20
415618.4362423351
 10
2488827.0219811522
 20
415617.7569809815
 10
2488800.4291683994
 20
415627.3718867655
 10
2488801.8777865334
 20
415628.05114811915
 10
2488828.470599286
 20
415618.4362423351
  0
LWPOLYLINE
  5
139
330
17
100
AcDbEntity
  8
SANITARY_CLEAR_ZONE
100
AcDbPolyline
 90
5
 70
0
 10
2488815.345812348
 20
415608.7484130374
 10
2488812.1059760433
 20
415636.38052961
 10
2488813.5542258527
 20
415637.05961825536
 10
2488816.794062158
 20
415609.4275016828
 10
2488815.345812348
 20
415608.7484130374
  0
LWPOLYLINE
  5
13A
330
17
100
AcDbEntity
  8
SANITARY_CLEAR_ZONE
100
AcDbPolyline
 90
4
 70
0
 10
2488820.5257983766
 20
415629.7281010727
 10
2488822.268458442
 20
415627.8950001649
 10
2488875.3324296186
 20
415674.8614336289
 10
2488820.5257983766
 20
415629.7281010727
  0
LWPOLYLINE
  5
13B
330
17
100
AcDbEntity
  8
SANITARY_CLEAR_ZONE
100
AcDbPolyline
 90
4
 70
0
 10
2488822.268458442
 20
415627.8950001649
 10
2488875.3324296186
 20
415674.8614336289
 10
2488877.0751874913
 20
415673.0286032371
 10
2488822.268458442
 20
415627.8950001649
  0
LWPOLYLINE
  5
13C
330
17
100
AcDbEntity
  8
SANITARY_CLEAR_ZONE
100
AcDbPolyline
 90
4
 70
0
 10
2488899.0046478603
 20
415677.1275754173
 10
2488872.027156718
 20
415685.67854145775
 10
2488897.556300243
 20
415676.4482162558
 10
2488899.0046478603
 20
415677.1275754173
  0
LWPOLYLINE
  5
13D
330
17
100
AcDbEntity
  8
SANITARY_CLEAR_ZONE
100
AcDbPolyline
 90
5
 70
0
 10
2488886.9432596345
 20
415667.05526334536
 10
2488882.639754102
 20
415695.07196050003
 10
2488884.0880039115
 20
415695.7510491455
 10
2488887.3278402165
 20
415668.11893257283
 10
2488886.9432596345
 20
415667.05526334536
  0
LWPOLYLINE
  5
13E
330
17
100
AcDbEntity
  8
SANITARY_CLEAR_ZONE
100
AcDbPolyline
 90
4
 70
0
 10
2488891.0595764355
 20
415688.4195319628
 10
2488893.481422954
 20
415685.13845176145
 10
2488893.956076055
 20
415689.77770925366
 10
2488891.0595764355
 20
415688.4195319628
  0
LWPOLYLINE
  5
13F
330
17
100
AcDbEntity
  8
SANITARY_CLEAR_ZONE
100
AcDbPolyline
 90
4
 70
0
 10
2488893.481422954
 20
415685.13845176145
 10
2488893.956076055
 20
415689.77770925366
 10
2488895.6988339275
 20
415687.94487886195
 10
2488893.481422954
 20
415685.13845176145
  0
LWPOLYLINE
  5
140
330
17
100
AcDbEntity
  8
SANITARY_CLEAR_ZONE
100
AcDbPolyline
 90
4
 70
0
 10
2488894.3406566367
 20
415690.8413784812
 10
2488895.3142533456
 20
415686.8812096344
 10
2488942.249277708
 20
415703.58870343067
 10
2488894.3406566367
 20
415690.8413784812
  0
LWPOLYLINE
  5
141
330
17
100
AcDbEntity
  8
SANITARY_CLEAR_ZONE
100
AcDbPolyline
 90
4
 70
0
 10
2488895.3142533456
 20
415686.8812096344
 10
2488942.249277708
 20
415703.58870343067
 10
2488943.222874417
 20
415699.6285345839
 10
2488895.3142533456
 20
415686.8812096344
  0
LWPOLYLINE
  5
142
330
17
100
AcDbEntity
  8
SANITARY_CLEAR_ZONE
100
AcDbPolyline
 90
4
 70
0
 10
2488942.249277708
 20
415703.58870343067
 10
2488943.222874417
 20
415699.6285345839
 10
2488960.218028198
 20
415706.71427451784
 10
2488942.249277708
 20
415703.58870343067
  0
LWPOLYLINE
  5
143
330
17
100
AcDbEntity
  8
SANITARY_CLEAR_ZONE
100
AcDbPolyline
 90
4
 70
0
 10
2488943.222874417
 20
415699.6285345839
 10
2488960.218028198
 20
415706.71427451784
 10
2488961.5761076813
 20
415703.8175043825
 10
2488943.222874417
 20
415699.6285345839
  0
LWPOLYLINE
  5
144
330
17
100
AcDbEntity
  8
SANITARY_CLEAR_ZONE
100
AcDbPolyline
 90
5
 70
0
 10
2488981.7869050684
 20
415696.5100820911
 10
2488980.723235841
 20
415696.89466267324
 10
2488961.55201279
 20
415717.0567292458
 10
2488963.0002625994
 20
415717.73581789125
 10
2488981.7869050684
 20
415696.5100820911
  0
LWPOLYLINE
  5
145
330
17
100
AcDbEntity
  8
SANITARY_CLEAR_ZONE
100
AcDbPolyline
 90
5
 70
0
 10
2488966.3301714235
 20
415693.67928958335
 10
2488975.9450772074
 20
415720.2721023357
 10
2488977.393327017
 20
415720.95119098114
 10
2488967.778421233
 20
415694.35837822873
 10
2488966.3301714235
 20
415693.67928958335
  0
LWPOLYLINE
  5
146
330
17
100
AcDbEntity
  8
SANITARY_CLEAR_ZONE
100
AcDbPolyline
 90
4
 70
0
 10
2488980.6985999173
 20
415710.1340831523
 10
2488980.9933784967
 20
415707.62206630723
 10
2489050.446511031
 20
415723.4045215012
 10
2488980.6985999173
 20
415710.1340831523
  0
LWPOLYLINE
  5
147
330
17
100
AcDbEntity
  8
SANITARY_CLEAR_ZONE
100
AcDbPolyline
 90
4
 70
0
 10
2488980.9933784967
 20
415707.62206630723
 10
2489050.446511031
 20
415723.4045215012
 10
2489050.7410190944
 20
415720.89260246407
 10
2488980.9933784967
 20
415707.62206630723
  0
LWPOLYLINE
  5
148
330
17
100
AcDbEntity
  8
SANITARY_CLEAR_ZONE
100
AcDbPolyline
 90
5
 70
0
 10
2489072.399525259
 20
415714.2644644338
 10
2489070.9512754492
 20
415713.5853757884
 10
2489052.164903497
 20
415734.81101378065
 10
2489053.2285727244
 20
415734.42643319856
 10
2489072.399525259
 20
415714.2644644338
  0
LWPOLYLINE
  5
149
330
17
100
AcDbEntity
  8
SANITARY_CLEAR_ZONE
100
AcDbPolyline
 90
4
 70
0
 10
2489067.621637142
 20
415737.64180628845
 10
2489066.173387332
 20
415736.962717643
 10
2489056.94306213
 20
415711.4335741181
 10
2489067.621637142
 20
415737.64180628845
  0
LWPOLYLINE
  5
14A
330
17
100
AcDbEntity
  8
SANITARY_CLEAR_ZONE
100
AcDbPolyline
 90
4
 70
0
 10
2489070.248091913
 20
415728.2728504613
 10
2489071.2215908137
 20
415724.31241109845
 10
2489108.697316314
 20
415734.81795966683
 10
2489070.248091913
 20
415728.2728504613
  0
LWPOLYLINE
  5
14B
330
17
100
AcDbEntity
  8
SANITARY_CLEAR_ZONE
100
AcDbPolyline
 90
4
 70
0
 10
2489071.2215908137
 20
415724.31241109845
 10
2489108.697316314
 20
415734.81795966683
 10
2489108.9918243773
 20
415732.3060406297
 10
2489071.2215908137
 20
415724.31241109845
  0
LWPOLYLINE
  5
14C
330
17
100
AcDbEntity
  8
SANITARY_CLEAR_ZONE
100
AcDbPolyline
 90
4
 70
0
 10
2488242.1241580644
 20
415224.24104532116
 10
2488239.2276584455
 20
415222.88286803034
 10
2488250.069229489
 20
415212.94908877567
 10
2488242.1241580644
 20
415224.24104532116
  0
LWPOLYLINE
  5
14D
330
17
100
AcDbEntity
  8
SANITARY_CLEAR_ZONE
100
AcDbPolyline
 90
4
 70
0
 10
2488239.2276584455
 20
415222.88286803034
 10
2488250.069229489
 20
415212.94908877567
 10
2488247.172459354
 20
415211.5910092927
 10
2488239.2276584455
 20
415222.88286803034
  0
LWPOLYLINE
  5
14E
330
17
100
AcDbEntity
  8
SANITARY_CLEAR_ZONE
100
AcDbPolyline
 90
4
 70
0
 10
2488249.0055602617
 20
415213.33366935776
 10
2488247.8517207075
 20
415210.14239115914
 10
2488268.242219908
 20
415209.9866115289
 10
2488249.0055602617
 20
415213.33366935776
  0
LWPOLYLINE
  5
14F
330
17
100
AcDbEntity
  8
SANITARY_CLEAR_ZONE
100
AcDbPolyline
 90
4
 70
0
 10
2488247.8517207075
 20
415210.14239115914
 10
2488268.242219908
 20
415209.9866115289
 10
2488268.1521473895
 20
415206.4110232642
 10
2488247.8517207075
 20
415210.14239115914
  0
LWPOLYLINE
  5
150
330
17
100
AcDbEntity
  8
SANITARY_CLEAR_ZONE
100
AcDbPolyline
 90
5
 70
0
 10
2488278.69921037
 20
415198.9891630467
 10
2488277.6355411424
 20
415199.3737436288
 10
2488271.228889854
 20
415214.9206476005
 10
2488272.2925590817
 20
415214.5360670184
 10
2488278.69921037
 20
415198.9891630467
  0
LWPOLYLINE
  5
151
330
17
100
AcDbEntity
  8
SANITARY_CLEAR_ZONE
100
AcDbPolyline
 90
5
 70
0
 10
2488268.356485126
 20
415200.3232454463
 10
2488280.1233652886
 20
415212.90747655544
 10
2488281.187034516
 20
415212.52289597335
 10
2488269.8047349355
 20
415201.00233409175
 10
2488268.356485126
 20
415200.3232454463
  0
LWPOLYLINE
  5
152
330
17
100
AcDbEntity
  8
SANITARY_CLEAR_ZONE
100
AcDbPolyline
 90
4
 70
0
 10
2488280.327703025
 20
415206.8196987375
 10
2488279.558541861
 20
415204.6923602825
 10
2488289.6065863334
 20
415205.870565244
 10
2488280.327703025
 20
415206.8196987375
  0
LWPOLYLINE
  5
153
330
17
100
AcDbEntity
  8
SANITARY_CLEAR_ZONE
100
AcDbPolyline
 90
4
 70
0
 10
2488279.558541861
 20
415204.6923602825
 10
2488289.6065863334
 20
415205.870565244
 10
2488289.5164160067
 20
415202.29470646323
 10
2488279.558541861
 20
415204.6923602825
  0
LWPOLYLINE
  5
154
330
17
100
AcDbEntity
  8
SANITARY_CLEAR_ZONE
100
AcDbPolyline
 90
4
 70
0
 10
2488289.2220057514
 20
415204.80689601647
 10
2488290.5803557504
 20
415201.9100280733
 10
2488307.6653115344
 20
415212.57145407976
 10
2488289.2220057514
 20
415204.80689601647
  0
LWPOLYLINE
  5
155
330
17
100
AcDbEntity
  8
SANITARY_CLEAR_ZONE
100
AcDbPolyline
 90
4
 70
0
 10
2488290.5803557504
 20
415201.9100280733
 10
2488307.6653115344
 20
415212.57145407976
 10
2488309.0237593413
 20
415209.6748566526
 10
2488290.5803557504
 20
415201.9100280733
  0
LWPOLYLINE
  5
156
330
17
100
AcDbEntity
  8
SANITARY_CLEAR_ZONE
100
AcDbPolyline
 90
4
 70
0
 10
2488309.113929668
 20
415213.2507154334
 10
2488307.960090114
 20
415210.0594372347
 10
2488320.0453027147
 20
415206.8926222513
 10
2488309.113929668
 20
415213.2507154334
  0
LWPOLYLINE
  5
157
330
17
100
AcDbEntity
  8
SANITARY_CLEAR_ZONE
100
AcDbPolyline
 90
4
 70
0
 10
2488307.960090114
 20
415210.0594372347
 10
2488320.0453027147
 20
415206.8926222513
 10
2488318.8915609685
 20
415203.7016145687
 10
2488307.960090114
 20
415210.0594372347
  0
LWPOLYLINE
  5
158
330
17
100
AcDbEntity
  8
SANITARY_CLEAR_ZONE
100
AcDbPolyline
 90
5
 70
0
 10
2488327.220942459
 20
415193.47342505865
 10
2488326.1572732315
 20
415193.85800564074
 10
2488325.159581632
 20
415211.0573993508
 10
2488326.2232508594
 20
415210.6728187687
 10
2488327.220942459
 20
415193.47342505865
  0
LWPOLYLINE
  5
159
330
17
100
AcDbEntity
  8
SANITARY_CLEAR_ZONE
100
AcDbPolyline
 90
4
 70
0
 10
2488318.0322294775
 20
415197.99841733294
 10
2488319.096169221
 20
415197.61373894295
 10
2488333.284625386
 20
415206.9169876586
 10
2488318.0322294775
 20
415197.99841733294
  0
LWPOLYLINE
  5
15A
330
17
100
AcDbEntity
  8
SANITARY_CLEAR_ZONE
100
AcDbPolyline
 90
4
 70
0
 10
2488331.3616246674
 20
415201.5983710049
 10
2488330.207882921
 20
415198.40736332233
 10
2488335.231991512
 20
415198.9962816411
 10
2488331.3616246674
 20
415201.5983710049
  0
LWPOLYLINE
  5
15B
330
17
100
AcDbEntity
  8
SANITARY_CLEAR_ZONE
100
AcDbPolyline
 90
4
 70
0
 10
2488330.207882921
 20
415198.40736332233
 10
2488335.231991512
 20
415198.9962816411
 10
2488334.0782497656
 20
415195.80527395854
 10
2488330.207882921
 20
415198.40736332233
  0
LWPOLYLINE
  5
15C
330
17
100
AcDbEntity
  8
SANITARY_CLEAR_ZONE
100
AcDbPolyline
 90
4
 70
0
 10
2488335.231991512
 20
415198.9962816411
 10
2488334.0782497656
 20
415195.80527395854
 10
2488364.1323855645
 20
415195.7636617383
 10
2488335.231991512
 20
415198.9962816411
  0
LWPOLYLINE
  5
15D
330
17
100
AcDbEntity
  8
SANITARY_CLEAR_ZONE
100
AcDbPolyline
 90
4
 70
0
 10
2488334.0782497656
 20
415195.80527395854
 10
2488364.1323855645
 20
415195.7636617383
 10
2488364.042215238
 20
415192.18780295755
 10
2488334.0782497656
 20
415195.80527395854
  0
LINE
  5
15E
330
17
100
AcDbEntity
  8
SANITARY_CLEAR_ZONE
100
AcDbLine
 10
2488364.1323855645
 20
415195.7636617383
 30
0.0
 11
2488364.042215238
 21
415192.18780295755
 31
0.0
  0
ENDSEC
  0
SECTION
  2
OBJECTS
  0
DICTIONARY
  5
A
330
0
100
AcDbDictionary
281
1
  3
ACAD_COLOR
350
B
  3
ACAD_GROUP
350
C
  3
ACAD_LAYOUT
350
D
  3
ACAD_MATERIAL
350
E
  3
ACAD_MLEADERSTYLE
350
F
  3
ACAD_MLINESTYLE
350
10
  3
ACAD_PLOTSETTINGS
350
11
  3
ACAD_PLOTSTYLENAME
350
12
  3
ACAD_SCALELIST
350
14
  3
ACAD_TABLESTYLE
350
15
  3
ACAD_VISUALSTYLE
350
16
  3
EZDXF_META
350
2D
  0
DICTIONARY
  5
B
330
A
100
AcDbDictionary
281
1
  0
DICTIONARY
  5
C
330
A
100
AcDbDictionary
281
1
  0
DICTIONARY
  5
D
330
A
100
AcDbDictionary
281
1
  3
Model
350
1A
  3
Layout1
350
1E
  0
DICTIONARY
  5
E
330
A
100
AcDbDictionary
281
1
  3
ByBlock
350
1F
  3
ByLayer
350
20
  3
Global
350
21
  0
DICTIONARY
  5
F
330
A
100
AcDbDictionary
281
1
  3
Standard
350
2C
  0
DICTIONARY
  5
10
330
A
100
AcDbDictionary
281
1
  3
Standard
350
22
  0
DICTIONARY
  5
11
330
A
100
AcDbDictionary
281
1
  0
ACDBDICTIONARYWDFLT
  5
12
330
A
100
AcDbDictionary
281
1
  3
Normal
350
13
100
AcDbDictionaryWithDefault
340
13
  0
ACDBPLACEHOLDER
  5
13
330
12
  0
DICTIONARY
  5
14
330
A
100
AcDbDictionary
281
1
  0
DICTIONARY
  5
15
330
A
100
AcDbDictionary
281
1
  0
DICTIONARY
  5
16
330
A
100
AcDbDictionary
281
1
  0
LAYOUT
  5
1A
330
D
100
AcDbPlotSettings
  1

  4
A3
  6

 40
7.5
 41
20.0
 42
7.5
 43
20.0
 44
420.0
 45
297.0
 46
0.0
 47
0.0
 48
0.0
 49
0.0
140
0.0
141
0.0
142
1.0
143
1.0
 70
1024
 72
1
 73
0
 74
5
  7

 75
16
 76
0
 77
2
 78
300
147
1.0
148
0.0
149
0.0
100
AcDbLayout
  1
Model
 70
1
 71
0
 10
0.0
 20
0.0
 11
420.0
 21
297.0
 12
0.0
 22
0.0
 32
0.0
 14
1e+20
 24
1e+20
 34
1e+20
 15
-1e+20
 25
-1e+20
 35
-1e+20
146
0.0
 13
0.0
 23
0.0
 33
0.0
 16
1.0
 26
0.0
 36
0.0
 17
0.0
 27
1.0
 37
0.0
 76
1
330
17
  0
LAYOUT
  5
1E
330
D
100
AcDbPlotSettings
  1

  4
A3
  6

 40
7.5
 41
20.0
 42
7.5
 43
20.0
 44
420.0
 45
297.0
 46
0.0
 47
0.0
 48
0.0
 49
0.0
140
0.0
141
0.0
142
1.0
143
1.0
 70
0
 72
1
 73
0
 74
5
  7

 75
16
 76
0
 77
2
 78
300
147
1.0
148
0.0
149
0.0
100
AcDbLayout
  1
Layout1
 70
1
 71
1
 10
0.0
 20
0.0
 11
420.0
 21
297.0
 12
0.0
 22
0.0
 32
0.0
 14
1e+20
 24
1e+20
 34
1e+20
 15
-1e+20
 25
-1e+20
 35
-1e+20
146
0.0
 13
0.0
 23
0.0
 33
0.0
 16
1.0
 26
0.0
 36
0.0
 17
0.0
 27
1.0
 37
0.0
 76
1
330
1B
  0
MATERIAL
  5
1F
102
{ACAD_REACTORS
330
E
102
}
330
E
100
AcDbMaterial
  1
ByBlock
  2

 70
0
 40
1.0
 71
1
 41
1.0
 91
-1023410177
 42
1.0
 72
1
  3

 73
1
 74
1
 75
1
 44
0.5
 73
0
 45
1.0
 46
1.0
 77
1
  4

 78
1
 79
1
170
1
 48
1.0
171
1
  6

172
1
173
1
174
1
140
1.0
141
1.0
175
1
  7

176
1
177
1
178
1
143
1.0
179
1
  8

270
1
271
1
272
1
145
1.0
146
1.0
273
1
  9

274
1
275
1
276
1
 42
1.0
 72
1
  3

 73
1
 74
1
 75
1
 94
63
  0
MATERIAL
  5
20
102
{ACAD_REACTORS
330
E
102
}
330
E
100
AcDbMaterial
  1
ByLayer
  2

 70
0
 40
1.0
 71
1
 41
1.0
 91
-1023410177
 42
1.0
 72
1
  3

 73
1
 74
1
 75
1
 44
0.5
 73
0
 45
1.0
 46
1.0
 77
1
  4

 78
1
 79
1
170
1
 48
1.0
171
1
  6

172
1
173
1
174
1
140
1.0
141
1.0
175
1
  7

176
1
177
1
178
1
143
1.0
179
1
  8

270
1
271
1
272
1
145
1.0
146
1.0
273
1
  9

274
1
275
1
276
1
 42
1.0
 72
1
  3

 73
1
 74
1
 75
1
 94
63
  0
MATERIAL
  5
21
102
{ACAD_REACTORS
330
E
102
}
330
E
100
AcDbMaterial
  1
Global
  2

 70
0
 40
1.0
 71
1
 41
1.0
 91
-1023410177
 42
1.0
 72
1
  3

 73
1
 74
1
 75
1
 44
0.5
 73
0
 45
1.0
 46
1.0
 77
1
  4

 78
1
 79
1
170
1
 48
1.0
171
1
  6

172
1
173
1
174
1
140
1.0
141
1.0
175
1
  7

176
1
177
1
178
1
143
1.0
179
1
  8

270
1
271
1
272
1
145
1.0
146
1.0
273
1
  9

274
1
275
1
276
1
 42
1.0
 72
1
  3

 73
1
 74
1
 75
1
 94
63
  0
MLINESTYLE
  5
22
102
{ACAD_REACTORS
330
10
102
}
330
10
100
AcDbMlineStyle
  2
Standard
 70
0
  3

 62
256
 51
90.0
 52
90.0
 71
2
 49
0.5
 62
256
  6
BYLAYER
 49
-0.5
 62
256
  6
BYLAYER
  0
MLEADERSTYLE
  5
2C
102
{ACAD_REACTORS
330
F
102
}
330
F
100
AcDbMLeaderStyle
179
2
170
2
171
1
172
0
 90
2
 40
0.0
 41
0.0
173
1
 91
-1056964608
 92
-2
290
1
 42
2.0
291
1
 43
8.0
  3
Standard
 44
4.0
300

342
29
174
1
175
1
176
0
178
1
 93
-1056964608
 45
4.0
292
0
297
0
 46
4.0
 94
-1056964608
 47
1.0
 49
1.0
140
1.0
294
1
141
0.0
177
0
142
1.0
295
0
296
0
143
3.75
271
0
272
9
273
9
  0
DICTIONARY
  5
2D
330
A
100
AcDbDictionary
280
1
281
1
  3
CREATED_BY_EZDXF
350
2E
  3
WRITTEN_BY_EZDXF
350
161
  0
DICTIONARYVAR
  5
2E
330
2D
100
DictionaryVariables
280
0
  1
1.4.4 @ 2026-08-06T16:15:25.025737+00:00
  0
DICTIONARYVAR
  5
161
330
2D
100
DictionaryVariables
280
0
  1
1.4.4 @ 2026-08-06T16:15:25.034134+00:00
  0
ENDSEC
  0
EOF
